<?xml version="1.0"?>
<!-- Created by MetaPost 2.00 on 2021.10.26:1438 -->
<svg version="1.1" xmlns="http://www.w3.org/2000/svg" xmlns:xlink="http://www.w3.org/1999/xlink" width="151.294298" height="362.795184" viewBox="0 0 151.294298 362.795184">
<!-- Original BoundingBox: -70.081338 -125.739479 81.212960 237.055705 -->
  <path d="M30.643760 348.315659L109.356240 348.315659" style="stroke:rgb(0.000000%,0.000000%,0.000000%); stroke-width: 0.500000;stroke-linecap: round;stroke-linejoin: round;stroke-miterlimit: 10.000000;fill: none;"></path>
  <path d="M30.643760 348.315659L30.472406 347.697253L30.301817 347.078818L30.131965 346.460384L29.962907 345.841977L29.794586 345.223543L29.627030 344.605108L29.460239 343.986674L29.294214 343.368268L29.128983 342.749833L28.964517 342.131399L28.800844 341.512964L28.637966 340.894558L28.475852 340.276124L28.314533 339.657689L28.154007 339.039283L27.994274 338.420848L27.835364 337.802414L27.677219 337.183979L27.519925 336.565573L27.363396 335.947139L27.207717 335.328704L27.052832 334.710270L26.898741 334.091864L26.745528 333.473429L26.593081 332.854995L26.441484 332.236560L26.290738 331.618154L26.140785 330.999720L25.991711 330.381285L25.843431 329.762879L25.696029 329.144444L25.549450 328.526010L25.403721 327.907575L25.258842 327.289169L25.114814 326.670735L24.971636 326.052300L24.829308 325.433866L24.687860 324.815460L24.547261 324.197025L24.407541 323.578591L24.268672 322.960184L24.130682 322.341750L23.993570 321.723315L23.857309 321.104881L23.721954 320.486475L23.587479 319.868040L23.453882 319.249606L23.321164 318.631171L23.189353 318.012765L23.058421 317.394331L22.928367 316.775896L22.799221 316.157462L22.670981 315.539055L22.543649 314.920621L22.417195 314.302186L22.291677 313.683780L22.167038 313.065346L22.043334 312.446911L21.920537 311.828477L21.798648 311.210071L21.677693 310.591636L21.557646 309.973202L21.438506 309.354767L21.320301 308.736361L21.203032 308.117927L21.086698 307.499492L20.971271 306.881086L20.856808 306.262651L20.743253 305.644217L20.630632 305.025782L20.518975 304.407376L20.408254 303.788942L20.298468 303.170507L20.189618 302.552073L20.081731 301.933667L19.974809 301.315232L19.868821 300.696798L19.763798 300.078391L19.659738 299.459957L19.556613 298.841522L19.454453 298.223088L19.353256 297.604682L19.253023 296.986247L19.153782 296.367813L19.055477 295.749378L18.958163 295.130972L18.861814 294.512538L18.766428 293.894103L18.672034 293.275697L18.578604 292.657262L18.486138 292.038828L18.394692 291.420422L18.304211 290.801987L18.214693 290.183581L18.126195 289.565147L18.038661 288.946712L17.952119 288.328306L17.866570 287.709871L17.782041 287.091437L17.698475 286.473031L17.615902 285.854596L17.534349 285.236190L17.453760 284.617756L17.374220 283.999321L17.295644 283.380915L17.218088 282.762481L17.141524 282.144074L17.065981 281.525640L16.991430 280.907205L16.917899 280.288799L16.845389 279.670365L16.773871 279.051959L16.703373 278.433524L16.633896 277.815090L16.565411 277.196683L16.497975 276.578249L16.431559 275.959814L16.366135 275.341408L16.301761 274.722974L16.238378 274.104568L16.176044 273.486133L16.114702 272.867699L16.054438 272.249292L15.995166 271.630858L15.936914 271.012452L15.879710 270.394017L15.823528 269.775583L15.768394 269.157177L15.714281 268.538742L15.661188 267.920336L15.609144 267.301902L15.558148 266.683467L15.508173 266.065061L15.459219 265.446626L15.411342 264.828192L15.364485 264.209786L15.318649 263.591351L15.273890 262.972945L15.230152 262.354511L15.187433 261.736076L15.145792 261.117670L15.105200 260.499235L15.065629 259.880829L15.027106 259.262395L14.989660 258.643960L14.953235 258.025554L14.917859 257.407120L14.883531 256.788713L14.850252 256.170279L14.818051 255.551844L14.786870 254.933438L14.756737 254.315004L14.727682 253.696569L14.699648 253.078163L14.672690 252.459729L14.646782 251.841322L14.621922 251.222888L14.598111 250.604453L14.575377 249.986047L14.553663 249.367613L14.533027 248.749207L14.513440 248.130772L14.494930 247.512338L14.477440 246.893932L14.461056 246.275497L14.445692 245.657091L14.431377 245.038656L14.418167 244.420222L14.405978 243.801816L14.394838 243.183381L14.384775 242.564947L14.375790 241.946541L14.367824 241.328106L14.360936 240.709700L14.355125 240.091265L14.350363 239.472831L14.346649 238.854425L14.343985 238.235990L14.342397 237.617584L14.341887 236.999150L14.342397 236.380715L14.343985 235.762309L14.346649 235.143874L14.350363 234.525440L14.355125 233.907034L14.360936 233.288599L14.367824 232.670193L14.375790 232.051759L14.384775 231.433324L14.394838 230.814918L14.405978 230.196483L14.418167 229.578077L14.431377 228.959643L14.445692 228.341208L14.461056 227.722802L14.477440 227.104368L14.494930 226.485933L14.513440 225.867527L14.533027 225.249093L14.553663 224.630686L14.575377 224.012252L14.598111 223.393817L14.621922 222.775411L14.646782 222.156977L14.672690 221.538571L14.699648 220.920136L14.727682 220.301702L14.756737 219.683295L14.786870 219.064861L14.818051 218.446455L14.850252 217.828020L14.883531 217.209586L14.917859 216.591180L14.953235 215.972745L14.989660 215.354311L15.027106 214.735904L15.065629 214.117470L15.105200 213.499064L15.145792 212.880629L15.187433 212.262195L15.230152 211.643789L15.273890 211.025354L15.318649 210.406948L15.364485 209.788514L15.411342 209.170079L15.459219 208.551673L15.508173 207.933238L15.558148 207.314804L15.609144 206.696398L15.661188 206.077963L15.714281 205.459557L15.768394 204.841123L15.823528 204.222688L15.879710 203.604282L15.936914 202.985847L15.995166 202.367441L16.054438 201.749007L16.114702 201.130572L16.176044 200.512166L16.238378 199.893732L16.301761 199.275325L16.366135 198.656891L16.431559 198.038456L16.497975 197.420050L16.565411 196.801616L16.633896 196.183181L16.703373 195.564775L16.773871 194.946341L16.845389 194.327934L16.917899 193.709500L16.991430 193.091065L17.065981 192.472659L17.141524 191.854225L17.218088 191.235819L17.295644 190.617384L17.374220 189.998950L17.453760 189.380544L17.534349 188.762109L17.615902 188.143703L17.698475 187.525268L17.782041 186.906834L17.866570 186.288428L17.952119 185.669993L18.038661 185.051559L18.126195 184.433153L18.214693 183.814718L18.304211 183.196312L18.394692 182.577877L18.486138 181.959443L18.578604 181.341037L18.672034 180.722602L18.766428 180.104168L18.861814 179.485762L18.958163 178.867327L19.055477 178.248893L19.153782 177.630486L19.253023 177.012052L19.353256 176.393617L19.454453 175.775183L19.556613 175.156777L19.659738 174.538342L19.763798 173.919908L19.868821 173.301473L19.974809 172.683067L20.081731 172.064633L20.189618 171.446198L20.298468 170.827792L20.408254 170.209358L20.518975 169.590923L20.630632 168.972489L20.743253 168.354082L20.856808 167.735648L20.971271 167.117213L21.086698 166.498779L21.203032 165.880373L21.320301 165.261938L21.438506 164.643504L21.557646 164.025069L21.677693 163.406663L21.798648 162.788229L21.920537 162.169794L22.043334 161.551388L22.167038 160.932953L22.291677 160.314519L22.417195 159.696084L22.543649 159.077678L22.670981 158.459244L22.799221 157.840809L22.928367 157.222375L23.058421 156.603969L23.189353 155.985534L23.321164 155.367100L23.453882 154.748693L23.587479 154.130259L23.721954 153.511824L23.857309 152.893390L23.993570 152.274984L24.130682 151.656549L24.268672 151.038115L24.407541 150.419680L24.547261 149.801274L24.687860 149.182840L24.829308 148.564405L24.971636 147.945971L25.114814 147.327564L25.258842 146.709130L25.403721 146.090695L25.549450 145.472289L25.696029 144.853855L25.843431 144.235420L25.991711 143.616986L26.140785 142.998580L26.290738 142.380145L26.441484 141.761711L26.593081 141.143276L26.745528 140.524870L26.898741 139.906436L27.052832 139.288001L27.207717 138.669595L27.363396 138.051160L27.519925 137.432726L27.677219 136.814291L27.835364 136.195885L27.994274 135.577451L28.154007 134.959016L28.314533 134.340582L28.475852 133.722176L28.637966 133.103741L28.800844 132.485307L28.964517 131.866900L29.128983 131.248466L29.294214 130.630031L29.460239 130.011597L29.627030 129.393191L29.794586 128.774756L29.962907 128.156322L30.131965 127.537887L30.301817 126.919481L30.472406 126.301047L30.643760 125.682612L30.815852 125.064178L30.988708 124.445771L31.162302 123.827337L31.336633 123.208931L31.511672 122.590496L31.687477 121.972062L31.863990 121.353627L32.041240 120.735221L32.219228 120.116787L32.397924 119.498352L32.577329 118.879918L32.757442 118.261512L32.938264 117.643077L33.119823 117.024643L33.302034 116.406208L33.484982 115.787802L33.668610 115.169367L33.852947 114.550933L34.037964 113.932527L34.223634 113.314092L34.410012 112.695658L34.597070 112.077223L34.784808 111.458817L34.973199 110.840383L35.162270 110.221948L35.351992 109.603514L35.542396 108.985107L35.733451 108.366673L35.925129 107.748238L36.117488 107.129832L36.310471 106.511398L36.504106 105.892963L36.698364 105.274529L36.893274 104.656123L37.088808 104.037688L37.284965 103.419254L37.481746 102.800819L37.679179 102.182413L37.877179 101.563978L38.075803 100.945544L38.275050 100.327109L38.474892 99.708703L38.675330 99.090269L38.876363 98.471834L39.077992 97.853428L39.280215 97.234994L39.483034 96.616559L39.686420 95.998125L39.890372 95.379718L40.094920 94.761284L40.300007 94.142849L40.505689 93.524415L40.711909 92.906009L40.918725 92.287574L41.126051 91.669140L41.333944 91.050734L41.542375 90.432299L41.751374 89.813865L41.960882 89.195430L42.170929 88.577024L42.381515 87.958590L42.592640 87.340155L42.804274 86.721721L43.016419 86.103314L43.229074 85.484880L43.442239 84.866445L43.655915 84.248011L43.870101 83.629605L44.084768 83.011170L44.299946 82.392736L44.515606 81.774330L44.731748 81.155895L44.948371 80.537461L45.165477 79.919026L45.383036 79.300620L45.601077 78.682185L45.819599 78.063751L46.038576 77.445316L46.257977 76.826910L46.477861 76.208476L46.698169 75.590041L46.918960 74.971635L47.140147 74.353201L47.361816 73.734766L47.583882 73.116332L47.806374 72.497925L48.029290 71.879491L48.252632 71.261056L48.476399 70.642622L48.700563 70.024216L48.925123 69.405781L49.150109 68.787347L49.375463 68.168941L49.601243 67.550506L49.827391 66.932072L50.053907 66.313637L50.280820 65.695231L50.508131 65.076796L50.735781 64.458362L50.963800 63.839927L51.192187 63.221521L51.420943 62.603087L51.650039 61.984652L51.879475 61.366218L52.109280 60.747812L52.339425 60.129377L52.569881 59.510943L52.800706 58.892537L53.031815 58.274102L53.263292 57.655668L53.495053 57.037233L53.727153 56.418827L53.959538 55.800392L54.192234 55.181958L54.425241 54.563523L54.658533 53.945117L54.892136 53.326683L55.126022 52.708248L55.360164 52.089842L55.594618 51.471408L55.829326 50.852973L56.064318 50.234539L56.299565 49.616132L56.535068 48.997698L56.770854 48.379263L57.006866 47.760829L57.243134 47.142423L57.479656 46.523988L57.716406 45.905554L57.953382 45.287119L58.190585 44.668713L58.428015 44.050279L58.665672 43.431844L58.903555 42.813438L59.141637 42.195003L59.379946 41.576569L59.618424 40.958134L59.857102 40.339728L60.096005 39.721294L60.335079 39.102859L60.574323 38.484425L60.813766 37.866019L61.053378 37.247584L61.293161 36.629150L61.533114 36.010744L61.773208 35.392309L62.013473 34.773875L62.253879 34.155440L62.494455 33.537034L62.735173 32.918599L62.976005 32.300165L63.216978 31.681730L63.458093 31.063324L63.699321 30.444890L63.940691 29.826455L64.182146 29.208021L64.423715 28.589615L64.665397 27.971180L64.907192 27.352746L65.149072 26.734339L65.391066 26.115905L65.633116 25.497470L65.875251 24.879036L66.117500 24.260630L66.359777 23.642195L66.602168 23.023761L66.844587 22.405326L67.087090 21.786920L67.329623 21.168486L67.572240 20.550051L67.814886 19.931645L68.057560 19.313210L68.300290 18.694776L68.543049 18.076341L68.785837 17.457935L69.028624 16.839501L69.271468 16.221066L69.514312 15.602632L69.757156 14.984226L70.000000 14.365791" style="stroke:rgb(0.000000%,0.000000%,0.000000%); stroke-width: 0.500000;stroke-linecap: round;stroke-linejoin: round;stroke-miterlimit: 10.000000;fill: none;"></path>
  <path d="M109.356240 348.315659L109.527594 347.697253L109.698183 347.078818L109.868035 346.460384L110.037093 345.841977L110.205414 345.223543L110.372970 344.605108L110.539761 343.986674L110.705786 343.368268L110.871017 342.749833L111.035483 342.131399L111.199156 341.512964L111.362034 340.894558L111.524148 340.276124L111.685467 339.657689L111.845993 339.039283L112.005726 338.420848L112.164636 337.802414L112.322781 337.183979L112.480075 336.565573L112.636604 335.947139L112.792283 335.328704L112.947168 334.710270L113.101259 334.091864L113.254472 333.473429L113.406919 332.854995L113.558516 332.236560L113.709262 331.618154L113.859215 330.999720L114.008289 330.381285L114.156569 329.762879L114.303971 329.144444L114.450550 328.526010L114.596279 327.907575L114.741158 327.289169L114.885186 326.670735L115.028364 326.052300L115.170692 325.433866L115.312140 324.815460L115.452739 324.197025L115.592459 323.578591L115.731328 322.960184L115.869318 322.341750L116.006430 321.723315L116.142691 321.104881L116.278046 320.486475L116.412521 319.868040L116.546118 319.249606L116.678836 318.631171L116.810647 318.012765L116.941579 317.394331L117.071633 316.775896L117.200779 316.157462L117.329019 315.539055L117.456351 314.920621L117.582805 314.302186L117.708323 313.683780L117.832962 313.065346L117.956666 312.446911L118.079463 311.828477L118.201352 311.210071L118.322307 310.591636L118.442354 309.973202L118.561494 309.354767L118.679699 308.736361L118.796968 308.117927L118.913302 307.499492L119.028729 306.881086L119.143192 306.262651L119.256747 305.644217L119.369368 305.025782L119.481025 304.407376L119.591746 303.788942L119.701532 303.170507L119.810382 302.552073L119.918269 301.933667L120.025191 301.315232L120.131179 300.696798L120.236202 300.078391L120.340262 299.459957L120.443387 298.841522L120.545547 298.223088L120.646744 297.604682L120.746977 296.986247L120.846218 296.367813L120.944523 295.749378L121.041837 295.130972L121.138186 294.512538L121.233572 293.894103L121.327966 293.275697L121.421396 292.657262L121.513862 292.038828L121.605308 291.420422L121.695789 290.801987L121.785307 290.183581L121.873805 289.565147L121.961339 288.946712L122.047881 288.328306L122.133430 287.709871L122.217959 287.091437L122.301525 286.473031L122.384098 285.854596L122.465651 285.236190L122.546240 284.617756L122.625780 283.999321L122.704356 283.380915L122.781912 282.762481L122.858476 282.144074L122.934019 281.525640L123.008570 280.907205L123.082101 280.288799L123.154611 279.670365L123.226129 279.051959L123.296627 278.433524L123.366104 277.815090L123.434589 277.196683L123.502025 276.578249L123.568441 275.959814L123.633865 275.341408L123.698239 274.722974L123.761622 274.104568L123.823956 273.486133L123.885298 272.867699L123.945562 272.249292L124.004834 271.630858L124.063086 271.012452L124.120290 270.394017L124.176472 269.775583L124.231606 269.157177L124.285719 268.538742L124.338812 267.920336L124.390856 267.301902L124.441852 266.683467L124.491827 266.065061L124.540781 265.446626L124.588658 264.828192L124.635515 264.209786L124.681351 263.591351L124.726110 262.972945L124.769848 262.354511L124.812567 261.736076L124.854208 261.117670L124.894800 260.499235L124.934371 259.880829L124.972894 259.262395L125.010340 258.643960L125.046765 258.025554L125.082141 257.407120L125.116469 256.788713L125.149748 256.170279L125.181949 255.551844L125.213130 254.933438L125.243263 254.315004L125.272318 253.696569L125.300352 253.078163L125.327310 252.459729L125.353218 251.841322L125.378078 251.222888L125.401889 250.604453L125.424623 249.986047L125.446337 249.367613L125.466973 248.749207L125.486560 248.130772L125.505070 247.512338L125.522560 246.893932L125.538944 246.275497L125.554308 245.657091L125.568623 245.038656L125.581833 244.420222L125.594022 243.801816L125.605162 243.183381L125.615225 242.564947L125.624210 241.946541L125.632176 241.328106L125.639064 240.709700L125.644875 240.091265L125.649637 239.472831L125.653351 238.854425L125.656015 238.235990L125.657603 237.617584L125.658113 236.999150L125.657603 236.380715L125.656015 235.762309L125.653351 235.143874L125.649637 234.525440L125.644875 233.907034L125.639064 233.288599L125.632176 232.670193L125.624210 232.051759L125.615225 231.433324L125.605162 230.814918L125.594022 230.196483L125.581833 229.578077L125.568623 228.959643L125.554308 228.341208L125.538944 227.722802L125.522560 227.104368L125.505070 226.485933L125.486560 225.867527L125.466973 225.249093L125.446337 224.630686L125.424623 224.012252L125.401889 223.393817L125.378078 222.775411L125.353218 222.156977L125.327310 221.538571L125.300352 220.920136L125.272318 220.301702L125.243263 219.683295L125.213130 219.064861L125.181949 218.446455L125.149748 217.828020L125.116469 217.209586L125.082141 216.591180L125.046765 215.972745L125.010340 215.354311L124.972894 214.735904L124.934371 214.117470L124.894800 213.499064L124.854208 212.880629L124.812567 212.262195L124.769848 211.643789L124.726110 211.025354L124.681351 210.406948L124.635515 209.788514L124.588658 209.170079L124.540781 208.551673L124.491827 207.933238L124.441852 207.314804L124.390856 206.696398L124.338812 206.077963L124.285719 205.459557L124.231606 204.841123L124.176472 204.222688L124.120290 203.604282L124.063086 202.985847L124.004834 202.367441L123.945562 201.749007L123.885298 201.130572L123.823956 200.512166L123.761622 199.893732L123.698239 199.275325L123.633865 198.656891L123.568441 198.038456L123.502025 197.420050L123.434589 196.801616L123.366104 196.183181L123.296627 195.564775L123.226129 194.946341L123.154611 194.327934L123.082101 193.709500L123.008570 193.091065L122.934019 192.472659L122.858476 191.854225L122.781912 191.235819L122.704356 190.617384L122.625780 189.998950L122.546240 189.380544L122.465651 188.762109L122.384098 188.143703L122.301525 187.525268L122.217959 186.906834L122.133430 186.288428L122.047881 185.669993L121.961339 185.051559L121.873805 184.433153L121.785307 183.814718L121.695789 183.196312L121.605308 182.577877L121.513862 181.959443L121.421396 181.341037L121.327966 180.722602L121.233572 180.104168L121.138186 179.485762L121.041837 178.867327L120.944523 178.248893L120.846218 177.630486L120.746977 177.012052L120.646744 176.393617L120.545547 175.775183L120.443387 175.156777L120.340262 174.538342L120.236202 173.919908L120.131179 173.301473L120.025191 172.683067L119.918269 172.064633L119.810382 171.446198L119.701532 170.827792L119.591746 170.209358L119.481025 169.590923L119.369368 168.972489L119.256747 168.354082L119.143192 167.735648L119.028729 167.117213L118.913302 166.498779L118.796968 165.880373L118.679699 165.261938L118.561494 164.643504L118.442354 164.025069L118.322307 163.406663L118.201352 162.788229L118.079463 162.169794L117.956666 161.551388L117.832962 160.932953L117.708323 160.314519L117.582805 159.696084L117.456351 159.077678L117.329019 158.459244L117.200779 157.840809L117.071633 157.222375L116.941579 156.603969L116.810647 155.985534L116.678836 155.367100L116.546118 154.748693L116.412521 154.130259L116.278046 153.511824L116.142691 152.893390L116.006430 152.274984L115.869318 151.656549L115.731328 151.038115L115.592459 150.419680L115.452739 149.801274L115.312140 149.182840L115.170692 148.564405L115.028364 147.945971L114.885186 147.327564L114.741158 146.709130L114.596279 146.090695L114.450550 145.472289L114.303971 144.853855L114.156569 144.235420L114.008289 143.616986L113.859215 142.998580L113.709262 142.380145L113.558516 141.761711L113.406919 141.143276L113.254472 140.524870L113.101259 139.906436L112.947168 139.288001L112.792283 138.669595L112.636604 138.051160L112.480075 137.432726L112.322781 136.814291L112.164636 136.195885L112.005726 135.577451L111.845993 134.959016L111.685467 134.340582L111.524148 133.722176L111.362034 133.103741L111.199156 132.485307L111.035483 131.866900L110.871017 131.248466L110.705786 130.630031L110.539761 130.011597L110.372970 129.393191L110.205414 128.774756L110.037093 128.156322L109.868035 127.537887L109.698183 126.919481L109.527594 126.301047L109.356240 125.682612L109.184148 125.064178L109.011292 124.445771L108.837698 123.827337L108.663367 123.208931L108.488328 122.590496L108.312523 121.972062L108.136010 121.353627L107.958760 120.735221L107.780772 120.116787L107.602076 119.498352L107.422671 118.879918L107.242558 118.261512L107.061736 117.643077L106.880177 117.024643L106.697966 116.406208L106.515018 115.787802L106.331390 115.169367L106.147053 114.550933L105.962036 113.932527L105.776366 113.314092L105.589988 112.695658L105.402930 112.077223L105.215192 111.458817L105.026801 110.840383L104.837730 110.221948L104.648008 109.603514L104.457604 108.985107L104.266549 108.366673L104.074871 107.748238L103.882512 107.129832L103.689529 106.511398L103.495894 105.892963L103.301636 105.274529L103.106726 104.656123L102.911192 104.037688L102.715035 103.419254L102.518254 102.800819L102.320821 102.182413L102.122821 101.563978L101.924197 100.945544L101.724950 100.327109L101.525108 99.708703L101.324670 99.090269L101.123637 98.471834L100.922008 97.853428L100.719785 97.234994L100.516966 96.616559L100.313580 95.998125L100.109628 95.379718L99.905080 94.761284L99.699993 94.142849L99.494311 93.524415L99.288091 92.906009L99.081275 92.287574L98.873949 91.669140L98.666056 91.050734L98.457625 90.432299L98.248626 89.813865L98.039118 89.195430L97.829071 88.577024L97.618485 87.958590L97.407360 87.340155L97.195726 86.721721L96.983581 86.103314L96.770926 85.484880L96.557761 84.866445L96.344085 84.248011L96.129899 83.629605L95.915232 83.011170L95.700054 82.392736L95.484394 81.774330L95.268252 81.155895L95.051629 80.537461L94.834523 79.919026L94.616964 79.300620L94.398923 78.682185L94.180401 78.063751L93.961424 77.445316L93.742023 76.826910L93.522139 76.208476L93.301831 75.590041L93.081040 74.971635L92.859853 74.353201L92.638184 73.734766L92.416118 73.116332L92.193626 72.497925L91.970710 71.879491L91.747368 71.261056L91.523601 70.642622L91.299437 70.024216L91.074877 69.405781L90.849891 68.787347L90.624537 68.168941L90.398757 67.550506L90.172609 66.932072L89.946093 66.313637L89.719180 65.695231L89.491869 65.076796L89.264219 64.458362L89.036200 63.839927L88.807813 63.221521L88.579057 62.603087L88.349961 61.984652L88.120525 61.366218L87.890720 60.747812L87.660575 60.129377L87.430119 59.510943L87.199294 58.892537L86.968185 58.274102L86.736708 57.655668L86.504947 57.037233L86.272847 56.418827L86.040462 55.800392L85.807766 55.181958L85.574759 54.563523L85.341467 53.945117L85.107864 53.326683L84.873978 52.708248L84.639836 52.089842L84.405382 51.471408L84.170674 50.852973L83.935682 50.234539L83.700435 49.616132L83.464932 48.997698L83.229146 48.379263L82.993134 47.760829L82.756866 47.142423L82.520344 46.523988L82.283594 45.905554L82.046618 45.287119L81.809415 44.668713L81.571985 44.050279L81.334328 43.431844L81.096445 42.813438L80.858363 42.195003L80.620054 41.576569L80.381576 40.958134L80.142898 40.339728L79.903995 39.721294L79.664921 39.102859L79.425677 38.484425L79.186234 37.866019L78.946622 37.247584L78.706839 36.629150L78.466886 36.010744L78.226792 35.392309L77.986527 34.773875L77.746121 34.155440L77.505545 33.537034L77.264827 32.918599L77.023995 32.300165L76.783022 31.681730L76.541907 31.063324L76.300679 30.444890L76.059309 29.826455L75.817854 29.208021L75.576285 28.589615L75.334603 27.971180L75.092808 27.352746L74.850928 26.734339L74.608934 26.115905L74.366884 25.497470L74.124749 24.879036L73.882500 24.260630L73.640223 23.642195L73.397832 23.023761L73.155413 22.405326L72.912910 21.786920L72.670377 21.168486L72.427760 20.550051L72.185114 19.931645L71.942440 19.313210L71.699710 18.694776L71.456951 18.076341L71.214163 17.457935L70.971376 16.839501L70.728532 16.221066L70.485688 15.602632L70.242844 14.984226L70.000000 14.365791" style="stroke:rgb(0.000000%,0.000000%,0.000000%); stroke-width: 0.500000;stroke-linecap: round;stroke-linejoin: round;stroke-miterlimit: 10.000000;fill: none;"></path>
  <path d="M117.227482 348.315659L117.433107 347.697253L117.637825 347.078818L117.841636 346.460384L118.044511 345.841977L118.246508 345.223543L118.447570 344.605108L118.647724 343.986674L118.846943 343.368268L119.045226 342.749833L119.242574 342.131399L119.438987 341.512964L119.634464 340.894558L119.828977 340.276124L120.022555 339.657689L120.215198 339.039283L120.406876 338.420848L120.597563 337.802414L120.787314 337.183979L120.976101 336.565573L121.163925 335.947139L121.350756 335.328704L121.536624 334.710270L121.721500 334.091864L121.905383 333.473429L122.088303 332.854995L122.270202 332.236560L122.451109 331.618154L122.631052 330.999720L122.809975 330.381285L122.987877 329.762879L123.164787 329.144444L123.340677 328.526010L123.515546 327.907575L123.689395 327.289169L123.862224 326.670735L124.034031 326.052300L124.204819 325.433866L124.374586 324.815460L124.543275 324.197025L124.710973 323.578591L124.877593 322.960184L125.043193 322.341750L125.207716 321.723315L125.371218 321.104881L125.533644 320.486475L125.695020 319.868040L125.855347 319.249606L126.014598 318.631171L126.172799 318.012765L126.329895 317.394331L126.485943 316.775896L126.640913 316.157462L126.794805 315.539055L126.947621 314.920621L127.099360 314.302186L127.249993 313.683780L127.399549 313.065346L127.547999 312.446911L127.695344 311.828477L127.841612 311.210071L127.986774 310.591636L128.130830 309.973202L128.273782 309.354767L128.415627 308.736361L128.556367 308.117927L128.695974 307.499492L128.834474 306.881086L128.971841 306.262651L129.108103 305.644217L129.243230 305.025782L129.377224 304.407376L129.510112 303.788942L129.641838 303.170507L129.772430 302.552073L129.901917 301.933667L130.030213 301.315232L130.157403 300.696798L130.283460 300.078391L130.408326 299.459957L130.532058 298.841522L130.654657 298.223088L130.776093 297.604682L130.896367 296.986247L131.015479 296.367813L131.133428 295.749378L131.250215 295.130972L131.365841 294.512538L131.480304 293.894103L131.593576 293.275697L131.705686 292.657262L131.816606 292.038828L131.926392 291.420422L132.034959 290.801987L132.142363 290.183581L132.248577 289.565147L132.353601 288.946712L132.457462 288.328306L132.560105 287.709871L132.661557 287.091437L132.761847 286.473031L132.860917 285.854596L132.958798 285.236190L133.055487 284.617756L133.150958 283.999321L133.245239 283.380915L133.338300 282.762481L133.430171 282.144074L133.520823 281.525640L133.610284 280.907205L133.698527 280.288799L133.785550 279.670365L133.871355 279.051959L133.955941 278.433524L134.039336 277.815090L134.121484 277.196683L134.202442 276.578249L134.282152 275.959814L134.360643 275.341408L134.437915 274.722974L134.513941 274.104568L134.588747 273.486133L134.662334 272.867699L134.734703 272.249292L134.805824 271.630858L134.875698 271.012452L134.944353 270.394017L135.011761 269.775583L135.077922 269.157177L135.142863 268.538742L135.206558 267.920336L135.269033 267.301902L135.330233 266.683467L135.390214 266.065061L135.448920 265.446626L135.506407 264.828192L135.562646 264.209786L135.617610 263.591351L135.671355 262.972945L135.723824 262.354511L135.775074 261.736076L135.825049 261.117670L135.873777 260.499235L135.921229 259.880829L135.967462 259.262395L136.012419 258.643960L136.056129 258.025554L136.098564 257.407120L136.139751 256.788713L136.179691 256.170279L136.218356 255.551844L136.255773 254.933438L136.291915 254.315004L136.326810 253.696569L136.360428 253.078163L136.392772 252.459729L136.423868 251.841322L136.453717 251.222888L136.482261 250.604453L136.509559 249.986047L136.535609 249.367613L136.560356 248.749207L136.583855 248.130772L136.606079 247.512338L136.627055 246.893932L136.646756 246.275497L136.665181 245.657091L136.682331 245.038656L136.698205 244.420222L136.712831 243.801816L136.726183 243.183381L136.738258 242.564947L136.749058 241.946541L136.758611 241.328106L136.766860 240.709700L136.773861 240.091265L136.779587 239.472831L136.784038 238.854425L136.787213 238.235990L136.789112 237.617584L136.789735 236.999150L136.789112 236.380715L136.787213 235.762309L136.784038 235.143874L136.779587 234.525440L136.773861 233.907034L136.766860 233.288599L136.758611 232.670193L136.749058 232.051759L136.738258 231.433324L136.726183 230.814918L136.712831 230.196483L136.698205 229.578077L136.682331 228.959643L136.665181 228.341208L136.646756 227.722802L136.627055 227.104368L136.606079 226.485933L136.583855 225.867527L136.560356 225.249093L136.535609 224.630686L136.509559 224.012252L136.482261 223.393817L136.453717 222.775411L136.423868 222.156977L136.392772 221.538571L136.360428 220.920136L136.326810 220.301702L136.291915 219.683295L136.255773 219.064861L136.218356 218.446455L136.179691 217.828020L136.139751 217.209586L136.098564 216.591180L136.056129 215.972745L136.012419 215.354311L135.967462 214.735904L135.921229 214.117470L135.873777 213.499064L135.825049 212.880629L135.775074 212.262195L135.723824 211.643789L135.671355 211.025354L135.617610 210.406948L135.562646 209.788514L135.506407 209.170079L135.448920 208.551673L135.390214 207.933238L135.330233 207.314804L135.269033 206.696398L135.206558 206.077963L135.142863 205.459557L135.077922 204.841123L135.011761 204.222688L134.944353 203.604282L134.875698 202.985847L134.805824 202.367441L134.734703 201.749007L134.662334 201.130572L134.588747 200.512166L134.513941 199.893732L134.437915 199.275325L134.360643 198.656891L134.282152 198.038456L134.202442 197.420050L134.121484 196.801616L134.039336 196.183181L133.955941 195.564775L133.871355 194.946341L133.785550 194.327934L133.698527 193.709500L133.610284 193.091065L133.520823 192.472659L133.430171 191.854225L133.338300 191.235819L133.245239 190.617384L133.150958 189.998950L133.055487 189.380544L132.958798 188.762109L132.860917 188.143703L132.761847 187.525268L132.661557 186.906834L132.560105 186.288428L132.457462 185.669993L132.353601 185.051559L132.248577 184.433153L132.142363 183.814718L132.034959 183.196312L131.926392 182.577877L131.816606 181.959443L131.705686 181.341037L131.593576 180.722602L131.480304 180.104168L131.365841 179.485762L131.250215 178.867327L131.133428 178.248893L131.015479 177.630486L130.896367 177.012052L130.776093 176.393617L130.654657 175.775183L130.532058 175.156777L130.408326 174.538342L130.283460 173.919908L130.157403 173.301473L130.030213 172.683067L129.901917 172.064633L129.772430 171.446198L129.641838 170.827792L129.510112 170.209358L129.377224 169.590923L129.243230 168.972489L129.108103 168.354082L128.971841 167.735648L128.834474 167.117213L128.695974 166.498779L128.556367 165.880373L128.415627 165.261938L128.273782 164.643504L128.130830 164.025069L127.986774 163.406663L127.841612 162.788229L127.695344 162.169794L127.547999 161.551388L127.399549 160.932953L127.249993 160.314519L127.099360 159.696084L126.947621 159.077678L126.794805 158.459244L126.640913 157.840809L126.485943 157.222375L126.329895 156.603969L126.172799 155.985534L126.014598 155.367100L125.855347 154.748693L125.695020 154.130259L125.533644 153.511824L125.371218 152.893390L125.207716 152.274984L125.043193 151.656549L124.877593 151.038115L124.710973 150.419680L124.543275 149.801274L124.374586 149.182840L124.204819 148.564405L124.034031 147.945971L123.862224 147.327564L123.689395 146.709130L123.515546 146.090695L123.340677 145.472289L123.164787 144.853855L122.987877 144.235420L122.809975 143.616986L122.631052 142.998580L122.451109 142.380145L122.270202 141.761711L122.088303 141.143276L121.905383 140.524870L121.721500 139.906436L121.536624 139.288001L121.350756 138.669595L121.163925 138.051160L120.976101 137.432726L120.787314 136.814291L120.597563 136.195885L120.406876 135.577451L120.215198 134.959016L120.022555 134.340582L119.828977 133.722176L119.634464 133.103741L119.438987 132.485307L119.242574 131.866900L119.045226 131.248466L118.846943 130.630031L118.647724 130.011597L118.447570 129.393191L118.246508 128.774756L118.044511 128.156322L117.841636 127.537887L117.637825 126.919481L117.433107 126.301047L117.227482 125.682612L117.020978 125.064178L116.813567 124.445771L116.605249 123.827337L116.396052 123.208931L116.185976 122.590496L115.975022 121.972062L115.763189 121.353627L115.550506 120.735221L115.336944 120.116787L115.122503 119.498352L114.907211 118.879918L114.691070 118.261512L114.474078 117.643077L114.256235 117.024643L114.037542 116.406208L113.818027 115.787802L113.597662 115.169367L113.376475 114.550933L113.154465 113.932527L112.931634 113.314092L112.707980 112.695658L112.483505 112.077223L112.258236 111.458817L112.032144 110.840383L111.805259 110.221948L111.577609 109.603514L111.349137 108.985107L111.119871 108.366673L110.889839 107.748238L110.659014 107.129832L110.427424 106.511398L110.195068 105.892963L109.961946 105.274529L109.728060 104.656123L109.493436 104.037688L109.258019 103.419254L109.021893 102.800819L108.785002 102.182413L108.547374 101.563978L108.309008 100.945544L108.069934 100.327109L107.830123 99.708703L107.589604 99.090269L107.348347 98.471834L107.106382 97.853428L106.863736 97.234994L106.620354 96.616559L106.376291 95.998125L106.131547 95.379718L105.886095 94.761284L105.639992 94.142849L105.393179 93.524415L105.145686 92.906009L104.897541 92.287574L104.648745 91.669140L104.399267 91.050734L104.149138 90.432299L103.898357 89.813865L103.646924 89.195430L103.394868 88.577024L103.142187 87.958590L102.888855 87.340155L102.634871 86.721721L102.380320 86.103314L102.125117 85.484880L101.869318 84.866445L101.612896 84.248011L101.355879 83.629605L101.098267 83.011170L100.840087 82.392736L100.581284 81.774330L100.321914 81.155895L100.061949 80.537461L99.801445 79.919026L99.540346 79.300620L99.278708 78.682185L99.016475 78.063751L98.753732 77.445316L98.490422 76.826910L98.226573 76.208476L97.962186 75.590041L97.697260 74.971635L97.431795 74.353201L97.165849 73.734766L96.899364 73.116332L96.632340 72.497925L96.364835 71.879491L96.096819 71.261056L95.828321 70.642622L95.559342 70.024216" style="stroke:rgb(0.000000%,0.000000%,0.000000%); stroke-width: 0.500000;stroke-linecap: round;stroke-linejoin: round;stroke-miterlimit: 10.000000;fill: none;"></path>
  <path d="M99.819218 70.024216L99.504828 69.405781L99.189842 68.787347L98.874346 68.168941L98.558283 67.550506L98.241682 66.932072L97.924513 66.313637L97.606834 65.695231L97.288646 65.076796L96.969918 64.458362L96.650680 63.839927L96.330932 63.221521L96.010674 62.603087L95.689934 61.984652L95.368712 61.366218L95.047008 60.747812L94.724823 60.129377L94.402155 59.510943L94.079034 58.892537L93.755431 58.274102L93.431402 57.655668L93.106921 57.037233L92.782014 56.418827L92.456653 55.800392L92.130867 55.181958L91.804656 54.563523L91.478048 53.945117L91.151015 53.326683L90.823586 52.708248L90.495759 52.089842L90.167535 51.471408L89.838915 50.852973L89.509954 50.234539L89.180597 49.616132L88.850899 48.997698L88.520805 48.379263L88.190371 47.760829L87.859596 47.142423L87.528481 46.523988L87.197054 45.905554L86.865259 45.287119L86.533180 44.668713L86.200762 44.050279L85.868031 43.431844L85.535017 42.813438L85.201691 42.195003" style="stroke:rgb(0.000000%,0.000000%,0.000000%); stroke-width: 0.500000;stroke-linecap: round;stroke-linejoin: round;stroke-miterlimit: 10.000000;fill: none;"></path>
  <path d="M91.299437 70.024216L99.819218 70.024216" style="stroke:rgb(0.000000%,0.000000%,0.000000%); stroke-width: 0.500000;stroke-linecap: round;stroke-linejoin: round;stroke-miterlimit: 10.000000;fill: none;"></path>
  <path d="M80.858363 42.195003L85.201691 42.195003" style="stroke:rgb(0.000000%,0.000000%,0.000000%); stroke-width: 0.500000;stroke-linecap: round;stroke-linejoin: round;stroke-miterlimit: 10.000000;fill: none;"></path>
  <path d="M109.356240 348.316254L117.227482 348.316254" style="stroke:rgb(0.000000%,0.000000%,0.000000%); stroke-width: 0.500000;stroke-linecap: round;stroke-linejoin: round;stroke-miterlimit: 10.000000;fill: none;"></path>
  <path d="M116.278046 320.487212L125.533644 320.487212" style="stroke:rgb(0.000000%,0.000000%,0.000000%); stroke-width: 0.500000;stroke-linecap: round;stroke-linejoin: round;stroke-miterlimit: 10.000000;fill: none;"></path>
  <path d="M121.421396 292.658141L131.705686 292.658141" style="stroke:rgb(0.000000%,0.000000%,0.000000%); stroke-width: 0.500000;stroke-linecap: round;stroke-linejoin: round;stroke-miterlimit: 10.000000;fill: none;"></path>
  <path d="M124.588658 264.829071L135.506407 264.829071" style="stroke:rgb(0.000000%,0.000000%,0.000000%); stroke-width: 0.500000;stroke-linecap: round;stroke-linejoin: round;stroke-miterlimit: 10.000000;fill: none;"></path>
  <path d="M125.658113 237.000028L136.789735 237.000028" style="stroke:rgb(0.000000%,0.000000%,0.000000%); stroke-width: 0.500000;stroke-linecap: round;stroke-linejoin: round;stroke-miterlimit: 10.000000;fill: none;"></path>
  <path d="M124.588658 209.170958L135.506407 209.170958" style="stroke:rgb(0.000000%,0.000000%,0.000000%); stroke-width: 0.500000;stroke-linecap: round;stroke-linejoin: round;stroke-miterlimit: 10.000000;fill: none;"></path>
  <path d="M121.421396 181.341887L131.705686 181.341887" style="stroke:rgb(0.000000%,0.000000%,0.000000%); stroke-width: 0.500000;stroke-linecap: round;stroke-linejoin: round;stroke-miterlimit: 10.000000;fill: none;"></path>
  <path d="M116.278046 153.512817L125.533644 153.512817" style="stroke:rgb(0.000000%,0.000000%,0.000000%); stroke-width: 0.500000;stroke-linecap: round;stroke-linejoin: round;stroke-miterlimit: 10.000000;fill: none;"></path>
  <path d="M109.356240 125.683746L117.227482 125.683746" style="stroke:rgb(0.000000%,0.000000%,0.000000%); stroke-width: 0.500000;stroke-linecap: round;stroke-linejoin: round;stroke-miterlimit: 10.000000;fill: none;"></path>
  <path d="M100.922008 97.854704L107.106382 97.854704" style="stroke:rgb(0.000000%,0.000000%,0.000000%); stroke-width: 0.500000;stroke-linecap: round;stroke-linejoin: round;stroke-miterlimit: 10.000000;fill: none;"></path>
  <path d="M114.958122 342.749833l0 0" style="stroke:rgb(0.000000%,0.000000%,0.000000%); stroke-width: 1.992529;stroke-linecap: round;stroke-linejoin: round;stroke-miterlimit: 10.000000;fill: none;"></path>
  <path d="M33.216087 342.749833l0 0" style="stroke:rgb(0.000000%,0.000000%,0.000000%); stroke-width: 1.992529;stroke-linecap: round;stroke-linejoin: round;stroke-miterlimit: 10.000000;fill: none;"></path>
  <path d="M116.555047 337.183979l0 0" style="stroke:rgb(0.000000%,0.000000%,0.000000%); stroke-width: 1.992529;stroke-linecap: round;stroke-linejoin: round;stroke-miterlimit: 10.000000;fill: none;"></path>
  <path d="M31.909515 337.183979l0 0" style="stroke:rgb(0.000000%,0.000000%,0.000000%); stroke-width: 1.992529;stroke-linecap: round;stroke-linejoin: round;stroke-miterlimit: 10.000000;fill: none;"></path>
  <path d="M118.080200 331.618154l0 0" style="stroke:rgb(0.000000%,0.000000%,0.000000%); stroke-width: 1.992529;stroke-linecap: round;stroke-linejoin: round;stroke-miterlimit: 10.000000;fill: none;"></path>
  <path d="M30.661647 331.618154l0 0" style="stroke:rgb(0.000000%,0.000000%,0.000000%); stroke-width: 1.992529;stroke-linecap: round;stroke-linejoin: round;stroke-miterlimit: 10.000000;fill: none;"></path>
  <path d="M119.531198 326.052300l0 0" style="stroke:rgb(0.000000%,0.000000%,0.000000%); stroke-width: 1.992529;stroke-linecap: round;stroke-linejoin: round;stroke-miterlimit: 10.000000;fill: none;"></path>
  <path d="M29.474469 326.052300l0 0" style="stroke:rgb(0.000000%,0.000000%,0.000000%); stroke-width: 1.992529;stroke-linecap: round;stroke-linejoin: round;stroke-miterlimit: 10.000000;fill: none;"></path>
  <path d="M120.905859 320.486475l0 0" style="stroke:rgb(0.000000%,0.000000%,0.000000%); stroke-width: 1.992529;stroke-linecap: round;stroke-linejoin: round;stroke-miterlimit: 10.000000;fill: none;"></path>
  <path d="M28.349767 320.486475l0 0" style="stroke:rgb(0.000000%,0.000000%,0.000000%); stroke-width: 1.992529;stroke-linecap: round;stroke-linejoin: round;stroke-miterlimit: 10.000000;fill: none;"></path>
  <path d="M122.202000 314.920621l0 0" style="stroke:rgb(0.000000%,0.000000%,0.000000%); stroke-width: 1.992529;stroke-linecap: round;stroke-linejoin: round;stroke-miterlimit: 10.000000;fill: none;"></path>
  <path d="M27.289270 314.920621l0 0" style="stroke:rgb(0.000000%,0.000000%,0.000000%); stroke-width: 1.992529;stroke-linecap: round;stroke-linejoin: round;stroke-miterlimit: 10.000000;fill: none;"></path>
  <path d="M123.417638 309.354767l0 0" style="stroke:rgb(0.000000%,0.000000%,0.000000%); stroke-width: 1.992529;stroke-linecap: round;stroke-linejoin: round;stroke-miterlimit: 10.000000;fill: none;"></path>
  <path d="M26.294650 309.354767l0 0" style="stroke:rgb(0.000000%,0.000000%,0.000000%); stroke-width: 1.992529;stroke-linecap: round;stroke-linejoin: round;stroke-miterlimit: 10.000000;fill: none;"></path>
  <path d="M124.550929 303.788942l0 0" style="stroke:rgb(0.000000%,0.000000%,0.000000%); stroke-width: 1.992529;stroke-linecap: round;stroke-linejoin: round;stroke-miterlimit: 10.000000;fill: none;"></path>
  <path d="M25.367409 303.788942l0 0" style="stroke:rgb(0.000000%,0.000000%,0.000000%); stroke-width: 1.992529;stroke-linecap: round;stroke-linejoin: round;stroke-miterlimit: 10.000000;fill: none;"></path>
  <path d="M125.600088 298.223088l0 0" style="stroke:rgb(0.000000%,0.000000%,0.000000%); stroke-width: 1.992529;stroke-linecap: round;stroke-linejoin: round;stroke-miterlimit: 10.000000;fill: none;"></path>
  <path d="M24.509022 298.223088l0 0" style="stroke:rgb(0.000000%,0.000000%,0.000000%); stroke-width: 1.992529;stroke-linecap: round;stroke-linejoin: round;stroke-miterlimit: 10.000000;fill: none;"></path>
  <path d="M126.563555 292.657262l0 0" style="stroke:rgb(0.000000%,0.000000%,0.000000%); stroke-width: 1.992529;stroke-linecap: round;stroke-linejoin: round;stroke-miterlimit: 10.000000;fill: none;"></path>
  <path d="M23.720735 292.657262l0 0" style="stroke:rgb(0.000000%,0.000000%,0.000000%); stroke-width: 1.992529;stroke-linecap: round;stroke-linejoin: round;stroke-miterlimit: 10.000000;fill: none;"></path>
  <path d="M127.439772 287.091437l0 0" style="stroke:rgb(0.000000%,0.000000%,0.000000%); stroke-width: 1.992529;stroke-linecap: round;stroke-linejoin: round;stroke-miterlimit: 10.000000;fill: none;"></path>
  <path d="M23.003825 287.091437l0 0" style="stroke:rgb(0.000000%,0.000000%,0.000000%); stroke-width: 1.992529;stroke-linecap: round;stroke-linejoin: round;stroke-miterlimit: 10.000000;fill: none;"></path>
  <path d="M128.227435 281.525640l0 0" style="stroke:rgb(0.000000%,0.000000%,0.000000%); stroke-width: 1.992529;stroke-linecap: round;stroke-linejoin: round;stroke-miterlimit: 10.000000;fill: none;"></path>
  <path d="M22.359369 281.525640l0 0" style="stroke:rgb(0.000000%,0.000000%,0.000000%); stroke-width: 1.992529;stroke-linecap: round;stroke-linejoin: round;stroke-miterlimit: 10.000000;fill: none;"></path>
  <path d="M128.925296 275.959814l0 0" style="stroke:rgb(0.000000%,0.000000%,0.000000%); stroke-width: 1.992529;stroke-linecap: round;stroke-linejoin: round;stroke-miterlimit: 10.000000;fill: none;"></path>
  <path d="M21.788386 275.959814l0 0" style="stroke:rgb(0.000000%,0.000000%,0.000000%); stroke-width: 1.992529;stroke-linecap: round;stroke-linejoin: round;stroke-miterlimit: 10.000000;fill: none;"></path>
  <path d="M129.532307 270.394017l0 0" style="stroke:rgb(0.000000%,0.000000%,0.000000%); stroke-width: 1.992529;stroke-linecap: round;stroke-linejoin: round;stroke-miterlimit: 10.000000;fill: none;"></path>
  <path d="M21.291728 270.394017l0 0" style="stroke:rgb(0.000000%,0.000000%,0.000000%); stroke-width: 1.992529;stroke-linecap: round;stroke-linejoin: round;stroke-miterlimit: 10.000000;fill: none;"></path>
  <path d="M130.047532 264.828192l0 0" style="stroke:rgb(0.000000%,0.000000%,0.000000%); stroke-width: 1.992529;stroke-linecap: round;stroke-linejoin: round;stroke-miterlimit: 10.000000;fill: none;"></path>
  <path d="M20.870188 264.828192l0 0" style="stroke:rgb(0.000000%,0.000000%,0.000000%); stroke-width: 1.992529;stroke-linecap: round;stroke-linejoin: round;stroke-miterlimit: 10.000000;fill: none;"></path>
  <path d="M130.470178 259.262395l0 0" style="stroke:rgb(0.000000%,0.000000%,0.000000%); stroke-width: 1.992529;stroke-linecap: round;stroke-linejoin: round;stroke-miterlimit: 10.000000;fill: none;"></path>
  <path d="M20.524418 259.262395l0 0" style="stroke:rgb(0.000000%,0.000000%,0.000000%); stroke-width: 1.992529;stroke-linecap: round;stroke-linejoin: round;stroke-miterlimit: 10.000000;fill: none;"></path>
  <path d="M130.799564 253.696569l0 0" style="stroke:rgb(0.000000%,0.000000%,0.000000%); stroke-width: 1.992529;stroke-linecap: round;stroke-linejoin: round;stroke-miterlimit: 10.000000;fill: none;"></path>
  <path d="M20.254900 253.696569l0 0" style="stroke:rgb(0.000000%,0.000000%,0.000000%); stroke-width: 1.992529;stroke-linecap: round;stroke-linejoin: round;stroke-miterlimit: 10.000000;fill: none;"></path>
  <path d="M131.035208 248.130772l0 0" style="stroke:rgb(0.000000%,0.000000%,0.000000%); stroke-width: 1.992529;stroke-linecap: round;stroke-linejoin: round;stroke-miterlimit: 10.000000;fill: none;"></path>
  <path d="M20.062116 248.130772l0 0" style="stroke:rgb(0.000000%,0.000000%,0.000000%); stroke-width: 1.992529;stroke-linecap: round;stroke-linejoin: round;stroke-miterlimit: 10.000000;fill: none;"></path>
  <path d="M131.176741 242.564947l0 0" style="stroke:rgb(0.000000%,0.000000%,0.000000%); stroke-width: 1.992529;stroke-linecap: round;stroke-linejoin: round;stroke-miterlimit: 10.000000;fill: none;"></path>
  <path d="M19.946320 242.564947l0 0" style="stroke:rgb(0.000000%,0.000000%,0.000000%); stroke-width: 1.992529;stroke-linecap: round;stroke-linejoin: round;stroke-miterlimit: 10.000000;fill: none;"></path>
  <path d="M131.223938 237.000000l0 0" style="stroke:rgb(0.000000%,0.000000%,0.000000%); stroke-width: 1.992529;stroke-linecap: round;stroke-linejoin: round;stroke-miterlimit: 10.000000;fill: none;"></path>
  <path d="M19.907684 237.000000l0 0" style="stroke:rgb(0.000000%,0.000000%,0.000000%); stroke-width: 1.992529;stroke-linecap: round;stroke-linejoin: round;stroke-miterlimit: 10.000000;fill: none;"></path>
  <path d="M131.176741 231.433324l0 0" style="stroke:rgb(0.000000%,0.000000%,0.000000%); stroke-width: 1.992529;stroke-linecap: round;stroke-linejoin: round;stroke-miterlimit: 10.000000;fill: none;"></path>
  <path d="M19.946320 231.433324l0 0" style="stroke:rgb(0.000000%,0.000000%,0.000000%); stroke-width: 1.992529;stroke-linecap: round;stroke-linejoin: round;stroke-miterlimit: 10.000000;fill: none;"></path>
  <path d="M131.035208 225.867527l0 0" style="stroke:rgb(0.000000%,0.000000%,0.000000%); stroke-width: 1.992529;stroke-linecap: round;stroke-linejoin: round;stroke-miterlimit: 10.000000;fill: none;"></path>
  <path d="M20.062116 225.867527l0 0" style="stroke:rgb(0.000000%,0.000000%,0.000000%); stroke-width: 1.992529;stroke-linecap: round;stroke-linejoin: round;stroke-miterlimit: 10.000000;fill: none;"></path>
  <path d="M130.799564 220.301702l0 0" style="stroke:rgb(0.000000%,0.000000%,0.000000%); stroke-width: 1.992529;stroke-linecap: round;stroke-linejoin: round;stroke-miterlimit: 10.000000;fill: none;"></path>
  <path d="M20.254900 220.301702l0 0" style="stroke:rgb(0.000000%,0.000000%,0.000000%); stroke-width: 1.992529;stroke-linecap: round;stroke-linejoin: round;stroke-miterlimit: 10.000000;fill: none;"></path>
  <path d="M130.470178 214.735904l0 0" style="stroke:rgb(0.000000%,0.000000%,0.000000%); stroke-width: 1.992529;stroke-linecap: round;stroke-linejoin: round;stroke-miterlimit: 10.000000;fill: none;"></path>
  <path d="M20.524418 214.735904l0 0" style="stroke:rgb(0.000000%,0.000000%,0.000000%); stroke-width: 1.992529;stroke-linecap: round;stroke-linejoin: round;stroke-miterlimit: 10.000000;fill: none;"></path>
  <path d="M130.047532 209.170079l0 0" style="stroke:rgb(0.000000%,0.000000%,0.000000%); stroke-width: 1.992529;stroke-linecap: round;stroke-linejoin: round;stroke-miterlimit: 10.000000;fill: none;"></path>
  <path d="M20.870188 209.170079l0 0" style="stroke:rgb(0.000000%,0.000000%,0.000000%); stroke-width: 1.992529;stroke-linecap: round;stroke-linejoin: round;stroke-miterlimit: 10.000000;fill: none;"></path>
  <path d="M129.532307 203.604282l0 0" style="stroke:rgb(0.000000%,0.000000%,0.000000%); stroke-width: 1.992529;stroke-linecap: round;stroke-linejoin: round;stroke-miterlimit: 10.000000;fill: none;"></path>
  <path d="M21.291728 203.604282l0 0" style="stroke:rgb(0.000000%,0.000000%,0.000000%); stroke-width: 1.992529;stroke-linecap: round;stroke-linejoin: round;stroke-miterlimit: 10.000000;fill: none;"></path>
  <path d="M128.925296 198.038456l0 0" style="stroke:rgb(0.000000%,0.000000%,0.000000%); stroke-width: 1.992529;stroke-linecap: round;stroke-linejoin: round;stroke-miterlimit: 10.000000;fill: none;"></path>
  <path d="M21.788386 198.038456l0 0" style="stroke:rgb(0.000000%,0.000000%,0.000000%); stroke-width: 1.992529;stroke-linecap: round;stroke-linejoin: round;stroke-miterlimit: 10.000000;fill: none;"></path>
  <path d="M128.227435 192.472659l0 0" style="stroke:rgb(0.000000%,0.000000%,0.000000%); stroke-width: 1.992529;stroke-linecap: round;stroke-linejoin: round;stroke-miterlimit: 10.000000;fill: none;"></path>
  <path d="M22.359369 192.472659l0 0" style="stroke:rgb(0.000000%,0.000000%,0.000000%); stroke-width: 1.992529;stroke-linecap: round;stroke-linejoin: round;stroke-miterlimit: 10.000000;fill: none;"></path>
  <path d="M127.439772 186.906834l0 0" style="stroke:rgb(0.000000%,0.000000%,0.000000%); stroke-width: 1.992529;stroke-linecap: round;stroke-linejoin: round;stroke-miterlimit: 10.000000;fill: none;"></path>
  <path d="M23.003825 186.906834l0 0" style="stroke:rgb(0.000000%,0.000000%,0.000000%); stroke-width: 1.992529;stroke-linecap: round;stroke-linejoin: round;stroke-miterlimit: 10.000000;fill: none;"></path>
  <path d="M126.563555 181.341037l0 0" style="stroke:rgb(0.000000%,0.000000%,0.000000%); stroke-width: 1.992529;stroke-linecap: round;stroke-linejoin: round;stroke-miterlimit: 10.000000;fill: none;"></path>
  <path d="M23.720735 181.341037l0 0" style="stroke:rgb(0.000000%,0.000000%,0.000000%); stroke-width: 1.992529;stroke-linecap: round;stroke-linejoin: round;stroke-miterlimit: 10.000000;fill: none;"></path>
  <path d="M125.600088 175.775183l0 0" style="stroke:rgb(0.000000%,0.000000%,0.000000%); stroke-width: 1.992529;stroke-linecap: round;stroke-linejoin: round;stroke-miterlimit: 10.000000;fill: none;"></path>
  <path d="M24.509022 175.775183l0 0" style="stroke:rgb(0.000000%,0.000000%,0.000000%); stroke-width: 1.992529;stroke-linecap: round;stroke-linejoin: round;stroke-miterlimit: 10.000000;fill: none;"></path>
  <path d="M124.550929 170.209358l0 0" style="stroke:rgb(0.000000%,0.000000%,0.000000%); stroke-width: 1.992529;stroke-linecap: round;stroke-linejoin: round;stroke-miterlimit: 10.000000;fill: none;"></path>
  <path d="M25.367409 170.209358l0 0" style="stroke:rgb(0.000000%,0.000000%,0.000000%); stroke-width: 1.992529;stroke-linecap: round;stroke-linejoin: round;stroke-miterlimit: 10.000000;fill: none;"></path>
  <path d="M123.417638 164.643504l0 0" style="stroke:rgb(0.000000%,0.000000%,0.000000%); stroke-width: 1.992529;stroke-linecap: round;stroke-linejoin: round;stroke-miterlimit: 10.000000;fill: none;"></path>
  <path d="M26.294650 164.643504l0 0" style="stroke:rgb(0.000000%,0.000000%,0.000000%); stroke-width: 1.992529;stroke-linecap: round;stroke-linejoin: round;stroke-miterlimit: 10.000000;fill: none;"></path>
  <path d="M122.202000 159.077678l0 0" style="stroke:rgb(0.000000%,0.000000%,0.000000%); stroke-width: 1.992529;stroke-linecap: round;stroke-linejoin: round;stroke-miterlimit: 10.000000;fill: none;"></path>
  <path d="M27.289270 159.077678l0 0" style="stroke:rgb(0.000000%,0.000000%,0.000000%); stroke-width: 1.992529;stroke-linecap: round;stroke-linejoin: round;stroke-miterlimit: 10.000000;fill: none;"></path>
  <path d="M120.905859 153.511824l0 0" style="stroke:rgb(0.000000%,0.000000%,0.000000%); stroke-width: 1.992529;stroke-linecap: round;stroke-linejoin: round;stroke-miterlimit: 10.000000;fill: none;"></path>
  <path d="M28.349767 153.511824l0 0" style="stroke:rgb(0.000000%,0.000000%,0.000000%); stroke-width: 1.992529;stroke-linecap: round;stroke-linejoin: round;stroke-miterlimit: 10.000000;fill: none;"></path>
  <path d="M119.531198 147.945971l0 0" style="stroke:rgb(0.000000%,0.000000%,0.000000%); stroke-width: 1.992529;stroke-linecap: round;stroke-linejoin: round;stroke-miterlimit: 10.000000;fill: none;"></path>
  <path d="M29.474469 147.945971l0 0" style="stroke:rgb(0.000000%,0.000000%,0.000000%); stroke-width: 1.992529;stroke-linecap: round;stroke-linejoin: round;stroke-miterlimit: 10.000000;fill: none;"></path>
  <path d="M118.080200 142.380145l0 0" style="stroke:rgb(0.000000%,0.000000%,0.000000%); stroke-width: 1.992529;stroke-linecap: round;stroke-linejoin: round;stroke-miterlimit: 10.000000;fill: none;"></path>
  <path d="M30.661647 142.380145l0 0" style="stroke:rgb(0.000000%,0.000000%,0.000000%); stroke-width: 1.992529;stroke-linecap: round;stroke-linejoin: round;stroke-miterlimit: 10.000000;fill: none;"></path>
  <path d="M116.555047 136.814291l0 0" style="stroke:rgb(0.000000%,0.000000%,0.000000%); stroke-width: 1.992529;stroke-linecap: round;stroke-linejoin: round;stroke-miterlimit: 10.000000;fill: none;"></path>
  <path d="M31.909515 136.814291l0 0" style="stroke:rgb(0.000000%,0.000000%,0.000000%); stroke-width: 1.992529;stroke-linecap: round;stroke-linejoin: round;stroke-miterlimit: 10.000000;fill: none;"></path>
  <path d="M114.958122 131.248466l0 0" style="stroke:rgb(0.000000%,0.000000%,0.000000%); stroke-width: 1.992529;stroke-linecap: round;stroke-linejoin: round;stroke-miterlimit: 10.000000;fill: none;"></path>
  <path d="M33.216087 131.248466l0 0" style="stroke:rgb(0.000000%,0.000000%,0.000000%); stroke-width: 1.992529;stroke-linecap: round;stroke-linejoin: round;stroke-miterlimit: 10.000000;fill: none;"></path>
  <path d="M113.291861 125.682612l0 0" style="stroke:rgb(0.000000%,0.000000%,0.000000%); stroke-width: 1.992529;stroke-linecap: round;stroke-linejoin: round;stroke-miterlimit: 10.000000;fill: none;"></path>
  <path d="M34.579382 125.682612l0 0" style="stroke:rgb(0.000000%,0.000000%,0.000000%); stroke-width: 1.992529;stroke-linecap: round;stroke-linejoin: round;stroke-miterlimit: 10.000000;fill: none;"></path>
  <path d="M111.558844 120.116787l0 0" style="stroke:rgb(0.000000%,0.000000%,0.000000%); stroke-width: 1.992529;stroke-linecap: round;stroke-linejoin: round;stroke-miterlimit: 10.000000;fill: none;"></path>
  <path d="M35.997299 120.116787l0 0" style="stroke:rgb(0.000000%,0.000000%,0.000000%); stroke-width: 1.992529;stroke-linecap: round;stroke-linejoin: round;stroke-miterlimit: 10.000000;fill: none;"></path>
  <path d="M109.761764 114.550933l0 0" style="stroke:rgb(0.000000%,0.000000%,0.000000%); stroke-width: 1.992529;stroke-linecap: round;stroke-linejoin: round;stroke-miterlimit: 10.000000;fill: none;"></path>
  <path d="M37.467658 114.550933l0 0" style="stroke:rgb(0.000000%,0.000000%,0.000000%); stroke-width: 1.992529;stroke-linecap: round;stroke-linejoin: round;stroke-miterlimit: 10.000000;fill: none;"></path>
  <path d="M107.903371 108.985107l0 0" style="stroke:rgb(0.000000%,0.000000%,0.000000%); stroke-width: 1.992529;stroke-linecap: round;stroke-linejoin: round;stroke-miterlimit: 10.000000;fill: none;"></path>
  <path d="M38.988162 108.985107l0 0" style="stroke:rgb(0.000000%,0.000000%,0.000000%); stroke-width: 1.992529;stroke-linecap: round;stroke-linejoin: round;stroke-miterlimit: 10.000000;fill: none;"></path>
  <path d="M105.986527 103.419254l0 0" style="stroke:rgb(0.000000%,0.000000%,0.000000%); stroke-width: 1.992529;stroke-linecap: round;stroke-linejoin: round;stroke-miterlimit: 10.000000;fill: none;"></path>
  <path d="M40.556486 103.419254l0 0" style="stroke:rgb(0.000000%,0.000000%,0.000000%); stroke-width: 1.992529;stroke-linecap: round;stroke-linejoin: round;stroke-miterlimit: 10.000000;fill: none;"></path>
  <path d="M104.014181 97.853428l0 0" style="stroke:rgb(0.000000%,0.000000%,0.000000%); stroke-width: 1.992529;stroke-linecap: round;stroke-linejoin: round;stroke-miterlimit: 10.000000;fill: none;"></path>
  <path d="M42.170192 97.853428l0 0" style="stroke:rgb(0.000000%,0.000000%,0.000000%); stroke-width: 1.992529;stroke-linecap: round;stroke-linejoin: round;stroke-miterlimit: 10.000000;fill: none;"></path>
  <path d="M101.989422 92.287574l0 0" style="stroke:rgb(0.000000%,0.000000%,0.000000%); stroke-width: 1.992529;stroke-linecap: round;stroke-linejoin: round;stroke-miterlimit: 10.000000;fill: none;"></path>
  <path d="M43.826844 92.287574l0 0" style="stroke:rgb(0.000000%,0.000000%,0.000000%); stroke-width: 1.992529;stroke-linecap: round;stroke-linejoin: round;stroke-miterlimit: 10.000000;fill: none;"></path>
  <path d="M99.915313 86.721721l0 0" style="stroke:rgb(0.000000%,0.000000%,0.000000%); stroke-width: 1.992529;stroke-linecap: round;stroke-linejoin: round;stroke-miterlimit: 10.000000;fill: none;"></path>
  <path d="M45.523833 86.721721l0 0" style="stroke:rgb(0.000000%,0.000000%,0.000000%); stroke-width: 1.992529;stroke-linecap: round;stroke-linejoin: round;stroke-miterlimit: 10.000000;fill: none;"></path>
  <path d="M97.795083 81.155895l0 0" style="stroke:rgb(0.000000%,0.000000%,0.000000%); stroke-width: 1.992529;stroke-linecap: round;stroke-linejoin: round;stroke-miterlimit: 10.000000;fill: none;"></path>
  <path d="M47.258579 81.155895l0 0" style="stroke:rgb(0.000000%,0.000000%,0.000000%); stroke-width: 1.992529;stroke-linecap: round;stroke-linejoin: round;stroke-miterlimit: 10.000000;fill: none;"></path>
  <path d="M95.631994 75.590041l0 0" style="stroke:rgb(0.000000%,0.000000%,0.000000%); stroke-width: 1.992529;stroke-linecap: round;stroke-linejoin: round;stroke-miterlimit: 10.000000;fill: none;"></path>
  <path d="M49.028361 75.590041l0 0" style="stroke:rgb(0.000000%,0.000000%,0.000000%); stroke-width: 1.992529;stroke-linecap: round;stroke-linejoin: round;stroke-miterlimit: 10.000000;fill: none;"></path>
  <path d="M93.429390 70.024216l0 0" style="stroke:rgb(0.000000%,0.000000%,0.000000%); stroke-width: 1.992529;stroke-linecap: round;stroke-linejoin: round;stroke-miterlimit: 10.000000;fill: none;"></path>
  <path d="M50.830515 70.024216l0 0" style="stroke:rgb(0.000000%,0.000000%,0.000000%); stroke-width: 1.992529;stroke-linecap: round;stroke-linejoin: round;stroke-miterlimit: 10.000000;fill: none;"></path>
  <path d="M93.390272 65.076796l0 0" style="stroke:rgb(0.000000%,0.000000%,0.000000%); stroke-width: 1.992529;stroke-linecap: round;stroke-linejoin: round;stroke-miterlimit: 10.000000;fill: none;"></path>
  <path d="M54.406504 65.076796l0 0" style="stroke:rgb(0.000000%,0.000000%,0.000000%); stroke-width: 1.992529;stroke-linecap: round;stroke-linejoin: round;stroke-miterlimit: 10.000000;fill: none;"></path>
  <path d="M91.192685 60.129377l0 0" style="stroke:rgb(0.000000%,0.000000%,0.000000%); stroke-width: 1.992529;stroke-linecap: round;stroke-linejoin: round;stroke-miterlimit: 10.000000;fill: none;"></path>
  <path d="M55.871534 60.129377l0 0" style="stroke:rgb(0.000000%,0.000000%,0.000000%); stroke-width: 1.992529;stroke-linecap: round;stroke-linejoin: round;stroke-miterlimit: 10.000000;fill: none;"></path>
  <path d="M88.969303 55.181958l0 0" style="stroke:rgb(0.000000%,0.000000%,0.000000%); stroke-width: 1.992529;stroke-linecap: round;stroke-linejoin: round;stroke-miterlimit: 10.000000;fill: none;"></path>
  <path d="M57.353798 55.181958l0 0" style="stroke:rgb(0.000000%,0.000000%,0.000000%); stroke-width: 1.992529;stroke-linecap: round;stroke-linejoin: round;stroke-miterlimit: 10.000000;fill: none;"></path>
  <path d="M86.722818 50.234539l0 0" style="stroke:rgb(0.000000%,0.000000%,0.000000%); stroke-width: 1.992529;stroke-linecap: round;stroke-linejoin: round;stroke-miterlimit: 10.000000;fill: none;"></path>
  <path d="M58.851455 50.234539l0 0" style="stroke:rgb(0.000000%,0.000000%,0.000000%); stroke-width: 1.992529;stroke-linecap: round;stroke-linejoin: round;stroke-miterlimit: 10.000000;fill: none;"></path>
  <path d="M84.455952 45.287119l0 0" style="stroke:rgb(0.000000%,0.000000%,0.000000%); stroke-width: 1.992529;stroke-linecap: round;stroke-linejoin: round;stroke-miterlimit: 10.000000;fill: none;"></path>
  <path d="M60.362717 45.287119l0 0" style="stroke:rgb(0.000000%,0.000000%,0.000000%); stroke-width: 1.992529;stroke-linecap: round;stroke-linejoin: round;stroke-miterlimit: 10.000000;fill: none;"></path>
  <path d="M72.578308 39.102859l0 0" style="stroke:rgb(0.000000%,0.000000%,0.000000%); stroke-width: 1.992529;stroke-linecap: round;stroke-linejoin: round;stroke-miterlimit: 10.000000;fill: none;"></path>
  <path d="M69.696410 31.681730l0 0" style="stroke:rgb(0.000000%,0.000000%,0.000000%); stroke-width: 1.992529;stroke-linecap: round;stroke-linejoin: round;stroke-miterlimit: 10.000000;fill: none;"></path>
  <path d="M67.421692 39.102859l0 0" style="stroke:rgb(0.000000%,0.000000%,0.000000%); stroke-width: 1.992529;stroke-linecap: round;stroke-linejoin: round;stroke-miterlimit: 10.000000;fill: none;"></path>
  <path d="M70.303590 31.681730l0 0" style="stroke:rgb(0.000000%,0.000000%,0.000000%); stroke-width: 1.992529;stroke-linecap: round;stroke-linejoin: round;stroke-miterlimit: 10.000000;fill: none;"></path>
  <path d="M70.000000 24.260630l0 0" style="stroke:rgb(0.000000%,0.000000%,0.000000%); stroke-width: 1.992529;stroke-linecap: round;stroke-linejoin: round;stroke-miterlimit: 10.000000;fill: none;"></path>
  <path d="M0.168662 362.489479L150.962960 362.489479L150.962960 0.194295L0.168662 0.194295Z" style="stroke:rgb(100.000000%,100.000000%,100.000000%); stroke-width: 0.500000;stroke-linecap: round;stroke-linejoin: round;stroke-miterlimit: 10.000000;fill: none;"></path>
  <path d="M70.000000 348.315659L70.000000 14.365791" style="stroke:rgb(0.000000%,0.000000%,0.000000%); stroke-width: 0.500000;stroke-linecap: round;stroke-linejoin: round;stroke-miterlimit: 10.000000;fill: none;"></path>
  <path d="M23.721954 320.487212L116.278046 320.487212" style="stroke:rgb(60.000000%,60.000000%,60.000000%); stroke-width: 0.500000;stroke-linecap: round;stroke-linejoin: round;stroke-miterlimit: 10.000000;fill: none;"></path>
  <path d="M18.578604 292.658141L121.421396 292.658141" style="stroke:rgb(60.000000%,60.000000%,60.000000%); stroke-width: 0.500000;stroke-linecap: round;stroke-linejoin: round;stroke-miterlimit: 10.000000;fill: none;"></path>
  <path d="M15.411342 264.829071L124.588658 264.829071" style="stroke:rgb(60.000000%,60.000000%,60.000000%); stroke-width: 0.500000;stroke-linecap: round;stroke-linejoin: round;stroke-miterlimit: 10.000000;fill: none;"></path>
  <path d="M14.341887 237.000028L125.658113 237.000028" style="stroke:rgb(60.000000%,60.000000%,60.000000%); stroke-width: 0.500000;stroke-linecap: round;stroke-linejoin: round;stroke-miterlimit: 10.000000;fill: none;"></path>
  <path d="M15.411342 209.170958L124.588658 209.170958" style="stroke:rgb(60.000000%,60.000000%,60.000000%); stroke-width: 0.500000;stroke-linecap: round;stroke-linejoin: round;stroke-miterlimit: 10.000000;fill: none;"></path>
  <path d="M18.578604 181.341887L121.421396 181.341887" style="stroke:rgb(60.000000%,60.000000%,60.000000%); stroke-width: 0.500000;stroke-linecap: round;stroke-linejoin: round;stroke-miterlimit: 10.000000;fill: none;"></path>
  <path d="M23.721954 153.512817L116.278046 153.512817" style="stroke:rgb(60.000000%,60.000000%,60.000000%); stroke-width: 0.500000;stroke-linecap: round;stroke-linejoin: round;stroke-miterlimit: 10.000000;fill: none;"></path>
  <path d="M30.643760 125.683746L109.356240 125.683746" style="stroke:rgb(60.000000%,60.000000%,60.000000%); stroke-width: 0.500000;stroke-linecap: round;stroke-linejoin: round;stroke-miterlimit: 10.000000;fill: none;"></path>
  <path d="M39.077992 97.854704L100.922008 97.854704" style="stroke:rgb(60.000000%,60.000000%,60.000000%); stroke-width: 0.500000;stroke-linecap: round;stroke-linejoin: round;stroke-miterlimit: 10.000000;fill: none;"></path>
  <path d="M48.700563 70.025633L91.299437 70.025633" style="stroke:rgb(60.000000%,60.000000%,60.000000%); stroke-width: 0.500000;stroke-linecap: round;stroke-linejoin: round;stroke-miterlimit: 10.000000;fill: none;"></path>
  <path d="M59.141637 42.196591L80.858363 42.196591" style="stroke:rgb(60.000000%,60.000000%,60.000000%); stroke-width: 0.500000;stroke-linecap: round;stroke-linejoin: round;stroke-miterlimit: 10.000000;fill: none;"></path>
  <path d="M70.000000 14.367520L70.000000 14.367520" style="stroke:rgb(60.000000%,60.000000%,60.000000%); stroke-width: 0.500000;stroke-linecap: round;stroke-linejoin: round;stroke-miterlimit: 10.000000;fill: none;"></path>
</svg>
