<?xml version="1.0"?>
<!-- Created by MetaPost 2.00 on 2021.10.26:1413 -->
<svg version="1.1" xmlns="http://www.w3.org/2000/svg" xmlns:xlink="http://www.w3.org/1999/xlink" width="122.947848" height="334.450463" viewBox="0 0 122.947848 334.450463">
<!-- Original BoundingBox: -55.908113 -111.566254 67.039735 222.884209 -->
  <path d="M15.643760 333.315659L94.356240 333.315659" style="stroke:rgb(0.000000%,0.000000%,0.000000%); stroke-width: 0.500000;stroke-linecap: round;stroke-linejoin: round;stroke-miterlimit: 10.000000;fill: none;"></path>
  <path d="M15.643760 333.315659L15.472406 332.697253L15.301817 332.078818L15.131965 331.460384L14.962907 330.841977L14.794586 330.223543L14.627030 329.605108L14.460239 328.986674L14.294214 328.368268L14.128983 327.749833L13.964517 327.131399L13.800844 326.512964L13.637966 325.894558L13.475852 325.276124L13.314533 324.657689L13.154007 324.039283L12.994274 323.420848L12.835364 322.802414L12.677219 322.183979L12.519925 321.565573L12.363396 320.947139L12.207717 320.328704L12.052832 319.710270L11.898741 319.091864L11.745528 318.473429L11.593081 317.854995L11.441484 317.236560L11.290738 316.618154L11.140785 315.999720L10.991711 315.381285L10.843431 314.762879L10.696029 314.144444L10.549450 313.526010L10.403721 312.907575L10.258842 312.289169L10.114814 311.670735L9.971636 311.052300L9.829308 310.433866L9.687860 309.815460L9.547261 309.197025L9.407541 308.578591L9.268672 307.960184L9.130682 307.341750L8.993570 306.723315L8.857309 306.104881L8.721954 305.486475L8.587479 304.868040L8.453882 304.249606L8.321164 303.631171L8.189353 303.012765L8.058421 302.394331L7.928367 301.775896L7.799221 301.157462L7.670981 300.539055L7.543649 299.920621L7.417195 299.302186L7.291677 298.683780L7.167038 298.065346L7.043334 297.446911L6.920537 296.828477L6.798648 296.210071L6.677693 295.591636L6.557646 294.973202L6.438506 294.354767L6.320301 293.736361L6.203032 293.117927L6.086698 292.499492L5.971271 291.881086L5.856808 291.262651L5.743253 290.644217L5.630632 290.025782L5.518975 289.407376L5.408254 288.788942L5.298468 288.170507L5.189618 287.552073L5.081731 286.933667L4.974809 286.315232L4.868821 285.696798L4.763798 285.078391L4.659738 284.459957L4.556613 283.841522L4.454453 283.223088L4.353256 282.604682L4.253023 281.986247L4.153782 281.367813L4.055477 280.749378L3.958163 280.130972L3.861814 279.512538L3.766428 278.894103L3.672034 278.275697L3.578604 277.657262L3.486138 277.038828L3.394692 276.420422L3.304211 275.801987L3.214693 275.183581L3.126195 274.565147L3.038661 273.946712L2.952119 273.328306L2.866570 272.709871L2.782041 272.091437L2.698475 271.473031L2.615902 270.854596L2.534349 270.236190L2.453760 269.617756L2.374220 268.999321L2.295644 268.380915L2.218088 267.762481L2.141524 267.144074L2.065981 266.525640L1.991430 265.907205L1.917899 265.288799L1.845389 264.670365L1.773871 264.051959L1.703373 263.433524L1.633896 262.815090L1.565411 262.196683L1.497975 261.578249L1.431559 260.959814L1.366135 260.341408L1.301761 259.722974L1.238378 259.104568L1.176044 258.486133L1.114702 257.867699L1.054438 257.249292L0.995166 256.630858L0.936914 256.012452L0.879710 255.394017L0.823528 254.775583L0.768394 254.157177L0.714281 253.538742L0.661188 252.920336L0.609144 252.301902L0.558148 251.683467L0.508173 251.065061L0.459219 250.446626L0.411342 249.828192L0.364485 249.209786L0.318649 248.591351L0.273890 247.972945L0.230152 247.354511L0.187433 246.736076L0.145792 246.117670L0.105200 245.499235L0.065629 244.880829L0.027106 244.262395L-0.010340 243.643960L-0.046765 243.025554L-0.082141 242.407120L-0.116469 241.788713L-0.149748 241.170279L-0.181949 240.551844L-0.213130 239.933438L-0.243263 239.315004L-0.272318 238.696569L-0.300352 238.078163L-0.327310 237.459729L-0.353218 236.841322L-0.378078 236.222888L-0.401889 235.604453L-0.424623 234.986047L-0.446337 234.367613L-0.466973 233.749207L-0.486560 233.130772L-0.505070 232.512338L-0.522560 231.893932L-0.538944 231.275497L-0.554308 230.657091L-0.568623 230.038656L-0.581833 229.420222L-0.594022 228.801816L-0.605162 228.183381L-0.615225 227.564947L-0.624210 226.946541L-0.632176 226.328106L-0.639064 225.709700L-0.644875 225.091265L-0.649637 224.472831L-0.653351 223.854425L-0.656015 223.235990L-0.657603 222.617584L-0.658113 221.999150L-0.657603 221.380715L-0.656015 220.762309L-0.653351 220.143874L-0.649637 219.525440L-0.644875 218.907034L-0.639064 218.288599L-0.632176 217.670193L-0.624210 217.051759L-0.615225 216.433324L-0.605162 215.814918L-0.594022 215.196483L-0.581833 214.578077L-0.568623 213.959643L-0.554308 213.341208L-0.538944 212.722802L-0.522560 212.104368L-0.505070 211.485933L-0.486560 210.867527L-0.466973 210.249093L-0.446337 209.630686L-0.424623 209.012252L-0.401889 208.393817L-0.378078 207.775411L-0.353218 207.156977L-0.327310 206.538571L-0.300352 205.920136L-0.272318 205.301702L-0.243263 204.683295L-0.213130 204.064861L-0.181949 203.446455L-0.149748 202.828020L-0.116469 202.209586L-0.082141 201.591180L-0.046765 200.972745L-0.010340 200.354311L0.027106 199.735904L0.065629 199.117470L0.105200 198.499064L0.145792 197.880629L0.187433 197.262195L0.230152 196.643789L0.273890 196.025354L0.318649 195.406948L0.364485 194.788514L0.411342 194.170079L0.459219 193.551673L0.508173 192.933238L0.558148 192.314804L0.609144 191.696398L0.661188 191.077963L0.714281 190.459557L0.768394 189.841123L0.823528 189.222688L0.879710 188.604282L0.936914 187.985847L0.995166 187.367441L1.054438 186.749007L1.114702 186.130572L1.176044 185.512166L1.238378 184.893732L1.301761 184.275325L1.366135 183.656891L1.431559 183.038456L1.497975 182.420050L1.565411 181.801616L1.633896 181.183181L1.703373 180.564775L1.773871 179.946341L1.845389 179.327934L1.917899 178.709500L1.991430 178.091065L2.065981 177.472659L2.141524 176.854225L2.218088 176.235819L2.295644 175.617384L2.374220 174.998950L2.453760 174.380544L2.534349 173.762109L2.615902 173.143703L2.698475 172.525268L2.782041 171.906834L2.866570 171.288428L2.952119 170.669993L3.038661 170.051559L3.126195 169.433153L3.214693 168.814718L3.304211 168.196312L3.394692 167.577877L3.486138 166.959443L3.578604 166.341037L3.672034 165.722602L3.766428 165.104168L3.861814 164.485762L3.958163 163.867327L4.055477 163.248893L4.153782 162.630486L4.253023 162.012052L4.353256 161.393617L4.454453 160.775183L4.556613 160.156777L4.659738 159.538342L4.763798 158.919908L4.868821 158.301473L4.974809 157.683067L5.081731 157.064633L5.189618 156.446198L5.298468 155.827792L5.408254 155.209358L5.518975 154.590923L5.630632 153.972489L5.743253 153.354082L5.856808 152.735648L5.971271 152.117213L6.086698 151.498779L6.203032 150.880373L6.320301 150.261938L6.438506 149.643504L6.557646 149.025069L6.677693 148.406663L6.798648 147.788229L6.920537 147.169794L7.043334 146.551388L7.167038 145.932953L7.291677 145.314519L7.417195 144.696084L7.543649 144.077678L7.670981 143.459244L7.799221 142.840809L7.928367 142.222375L8.058421 141.603969L8.189353 140.985534L8.321164 140.367100L8.453882 139.748693L8.587479 139.130259L8.721954 138.511824L8.857309 137.893390L8.993570 137.274984L9.130682 136.656549L9.268672 136.038115L9.407541 135.419680L9.547261 134.801274L9.687860 134.182840L9.829308 133.564405L9.971636 132.945971L10.114814 132.327564L10.258842 131.709130L10.403721 131.090695L10.549450 130.472289L10.696029 129.853855L10.843431 129.235420L10.991711 128.616986L11.140785 127.998580L11.290738 127.380145L11.441484 126.761711L11.593081 126.143276L11.745528 125.524870L11.898741 124.906436L12.052832 124.288001L12.207717 123.669595L12.363396 123.051160L12.519925 122.432726L12.677219 121.814291L12.835364 121.195885L12.994274 120.577451L13.154007 119.959016L13.314533 119.340582L13.475852 118.722176L13.637966 118.103741L13.800844 117.485307L13.964517 116.866900L14.128983 116.248466L14.294214 115.630031L14.460239 115.011597L14.627030 114.393191L14.794586 113.774756L14.962907 113.156322L15.131965 112.537887L15.301817 111.919481L15.472406 111.301047L15.643760 110.682612L15.815852 110.064178L15.988708 109.445771L16.162302 108.827337L16.336633 108.208931L16.511672 107.590496L16.687477 106.972062L16.863990 106.353627L17.041240 105.735221L17.219228 105.116787L17.397924 104.498352L17.577329 103.879918L17.757442 103.261512L17.938264 102.643077L18.119823 102.024643L18.302034 101.406208L18.484982 100.787802L18.668610 100.169367L18.852947 99.550933L19.037964 98.932527L19.223634 98.314092L19.410012 97.695658L19.597070 97.077223L19.784808 96.458817L19.973199 95.840383L20.162270 95.221948L20.351992 94.603514L20.542396 93.985107L20.733451 93.366673L20.925129 92.748238L21.117488 92.129832L21.310471 91.511398L21.504106 90.892963L21.698364 90.274529L21.893274 89.656123L22.088808 89.037688L22.284965 88.419254L22.481746 87.800819L22.679179 87.182413L22.877179 86.563978L23.075803 85.945544L23.275050 85.327109L23.474892 84.708703L23.675330 84.090269L23.876363 83.471834L24.077992 82.853428L24.280215 82.234994L24.483034 81.616559L24.686420 80.998125L24.890372 80.379718L25.094920 79.761284L25.300007 79.142849L25.505689 78.524415L25.711909 77.906009L25.918725 77.287574L26.126051 76.669140L26.333944 76.050734L26.542375 75.432299L26.751374 74.813865L26.960882 74.195430L27.170929 73.577024L27.381515 72.958590L27.592640 72.340155L27.804274 71.721721L28.016419 71.103314L28.229074 70.484880L28.442239 69.866445L28.655915 69.248011L28.870101 68.629605L29.084768 68.011170L29.299946 67.392736L29.515606 66.774330L29.731748 66.155895L29.948371 65.537461L30.165477 64.919026L30.383036 64.300620L30.601077 63.682185L30.819599 63.063751L31.038576 62.445316L31.257977 61.826910L31.477861 61.208476L31.698169 60.590041L31.918960 59.971635L32.140147 59.353201L32.361816 58.734766L32.583882 58.116332L32.806374 57.497925L33.029290 56.879491L33.252632 56.261056L33.476399 55.642622L33.700563 55.024216L33.925123 54.405781L34.150109 53.787347L34.375463 53.168941L34.601243 52.550506L34.827391 51.932072L35.053907 51.313637L35.280820 50.695231L35.508131 50.076796L35.735781 49.458362L35.963800 48.839927L36.192187 48.221521L36.420943 47.603087L36.650039 46.984652L36.879475 46.366218L37.109280 45.747812L37.339425 45.129377L37.569881 44.510943L37.800706 43.892537L38.031815 43.274102L38.263292 42.655668L38.495053 42.037233L38.727153 41.418827L38.959538 40.800392L39.192234 40.181958L39.425241 39.563523L39.658533 38.945117L39.892136 38.326683L40.126022 37.708248L40.360164 37.089842L40.594618 36.471408L40.829326 35.852973L41.064318 35.234539L41.299565 34.616132L41.535068 33.997698L41.770854 33.379263L42.006866 32.760829L42.243134 32.142423L42.479656 31.523988L42.716406 30.905554L42.953382 30.287119L43.190585 29.668713L43.428015 29.050279L43.665672 28.431844L43.903555 27.813438L44.141637 27.195003L44.379946 26.576569L44.618424 25.958134L44.857102 25.339728L45.096005 24.721294L45.335079 24.102859L45.574323 23.484425L45.813766 22.866019L46.053378 22.247584L46.293161 21.629150L46.533114 21.010744L46.773208 20.392309L47.013473 19.773875L47.253879 19.155440L47.494455 18.537034L47.735173 17.918599L47.976005 17.300165L48.216978 16.681730L48.458093 16.063324L48.699321 15.444890L48.940691 14.826455L49.182146 14.208021L49.423715 13.589615L49.665397 12.971180L49.907192 12.352746L50.149072 11.734339L50.391066 11.115905L50.633116 10.497470L50.875251 9.879036L51.117500 9.260630L51.359777 8.642195L51.602168 8.023761L51.844587 7.405326L52.087090 6.786920L52.329623 6.168486L52.572240 5.550051L52.814886 4.931645L53.057560 4.313210L53.300290 3.694776L53.543049 3.076341L53.785837 2.457935L54.028624 1.839501L54.271468 1.221066L54.514312 0.602632L54.757156 -0.015774L55.000000 -0.634209" style="stroke:rgb(0.000000%,0.000000%,0.000000%); stroke-width: 0.500000;stroke-linecap: round;stroke-linejoin: round;stroke-miterlimit: 10.000000;fill: none;"></path>
  <path d="M94.356240 333.315659L94.527594 332.697253L94.698183 332.078818L94.868035 331.460384L95.037093 330.841977L95.205414 330.223543L95.372970 329.605108L95.539761 328.986674L95.705786 328.368268L95.871017 327.749833L96.035483 327.131399L96.199156 326.512964L96.362034 325.894558L96.524148 325.276124L96.685467 324.657689L96.845993 324.039283L97.005726 323.420848L97.164636 322.802414L97.322781 322.183979L97.480075 321.565573L97.636604 320.947139L97.792283 320.328704L97.947168 319.710270L98.101259 319.091864L98.254472 318.473429L98.406919 317.854995L98.558516 317.236560L98.709262 316.618154L98.859215 315.999720L99.008289 315.381285L99.156569 314.762879L99.303971 314.144444L99.450550 313.526010L99.596279 312.907575L99.741158 312.289169L99.885186 311.670735L100.028364 311.052300L100.170692 310.433866L100.312140 309.815460L100.452739 309.197025L100.592459 308.578591L100.731328 307.960184L100.869318 307.341750L101.006430 306.723315L101.142691 306.104881L101.278046 305.486475L101.412521 304.868040L101.546118 304.249606L101.678836 303.631171L101.810647 303.012765L101.941579 302.394331L102.071633 301.775896L102.200779 301.157462L102.329019 300.539055L102.456351 299.920621L102.582805 299.302186L102.708323 298.683780L102.832962 298.065346L102.956666 297.446911L103.079463 296.828477L103.201352 296.210071L103.322307 295.591636L103.442354 294.973202L103.561494 294.354767L103.679699 293.736361L103.796968 293.117927L103.913302 292.499492L104.028729 291.881086L104.143192 291.262651L104.256747 290.644217L104.369368 290.025782L104.481025 289.407376L104.591746 288.788942L104.701532 288.170507L104.810382 287.552073L104.918269 286.933667L105.025191 286.315232L105.131179 285.696798L105.236202 285.078391L105.340262 284.459957L105.443387 283.841522L105.545547 283.223088L105.646744 282.604682L105.746977 281.986247L105.846218 281.367813L105.944523 280.749378L106.041837 280.130972L106.138186 279.512538L106.233572 278.894103L106.327966 278.275697L106.421396 277.657262L106.513862 277.038828L106.605308 276.420422L106.695789 275.801987L106.785307 275.183581L106.873805 274.565147L106.961339 273.946712L107.047881 273.328306L107.133430 272.709871L107.217959 272.091437L107.301525 271.473031L107.384098 270.854596L107.465651 270.236190L107.546240 269.617756L107.625780 268.999321L107.704356 268.380915L107.781912 267.762481L107.858476 267.144074L107.934019 266.525640L108.008570 265.907205L108.082101 265.288799L108.154611 264.670365L108.226129 264.051959L108.296627 263.433524L108.366104 262.815090L108.434589 262.196683L108.502025 261.578249L108.568441 260.959814L108.633865 260.341408L108.698239 259.722974L108.761622 259.104568L108.823956 258.486133L108.885298 257.867699L108.945562 257.249292L109.004834 256.630858L109.063086 256.012452L109.120290 255.394017L109.176472 254.775583L109.231606 254.157177L109.285719 253.538742L109.338812 252.920336L109.390856 252.301902L109.441852 251.683467L109.491827 251.065061L109.540781 250.446626L109.588658 249.828192L109.635515 249.209786L109.681351 248.591351L109.726110 247.972945L109.769848 247.354511L109.812567 246.736076L109.854208 246.117670L109.894800 245.499235L109.934371 244.880829L109.972894 244.262395L110.010340 243.643960L110.046765 243.025554L110.082141 242.407120L110.116469 241.788713L110.149748 241.170279L110.181949 240.551844L110.213130 239.933438L110.243263 239.315004L110.272318 238.696569L110.300352 238.078163L110.327310 237.459729L110.353218 236.841322L110.378078 236.222888L110.401889 235.604453L110.424623 234.986047L110.446337 234.367613L110.466973 233.749207L110.486560 233.130772L110.505070 232.512338L110.522560 231.893932L110.538944 231.275497L110.554308 230.657091L110.568623 230.038656L110.581833 229.420222L110.594022 228.801816L110.605162 228.183381L110.615225 227.564947L110.624210 226.946541L110.632176 226.328106L110.639064 225.709700L110.644875 225.091265L110.649637 224.472831L110.653351 223.854425L110.656015 223.235990L110.657603 222.617584L110.658113 221.999150L110.657603 221.380715L110.656015 220.762309L110.653351 220.143874L110.649637 219.525440L110.644875 218.907034L110.639064 218.288599L110.632176 217.670193L110.624210 217.051759L110.615225 216.433324L110.605162 215.814918L110.594022 215.196483L110.581833 214.578077L110.568623 213.959643L110.554308 213.341208L110.538944 212.722802L110.522560 212.104368L110.505070 211.485933L110.486560 210.867527L110.466973 210.249093L110.446337 209.630686L110.424623 209.012252L110.401889 208.393817L110.378078 207.775411L110.353218 207.156977L110.327310 206.538571L110.300352 205.920136L110.272318 205.301702L110.243263 204.683295L110.213130 204.064861L110.181949 203.446455L110.149748 202.828020L110.116469 202.209586L110.082141 201.591180L110.046765 200.972745L110.010340 200.354311L109.972894 199.735904L109.934371 199.117470L109.894800 198.499064L109.854208 197.880629L109.812567 197.262195L109.769848 196.643789L109.726110 196.025354L109.681351 195.406948L109.635515 194.788514L109.588658 194.170079L109.540781 193.551673L109.491827 192.933238L109.441852 192.314804L109.390856 191.696398L109.338812 191.077963L109.285719 190.459557L109.231606 189.841123L109.176472 189.222688L109.120290 188.604282L109.063086 187.985847L109.004834 187.367441L108.945562 186.749007L108.885298 186.130572L108.823956 185.512166L108.761622 184.893732L108.698239 184.275325L108.633865 183.656891L108.568441 183.038456L108.502025 182.420050L108.434589 181.801616L108.366104 181.183181L108.296627 180.564775L108.226129 179.946341L108.154611 179.327934L108.082101 178.709500L108.008570 178.091065L107.934019 177.472659L107.858476 176.854225L107.781912 176.235819L107.704356 175.617384L107.625780 174.998950L107.546240 174.380544L107.465651 173.762109L107.384098 173.143703L107.301525 172.525268L107.217959 171.906834L107.133430 171.288428L107.047881 170.669993L106.961339 170.051559L106.873805 169.433153L106.785307 168.814718L106.695789 168.196312L106.605308 167.577877L106.513862 166.959443L106.421396 166.341037L106.327966 165.722602L106.233572 165.104168L106.138186 164.485762L106.041837 163.867327L105.944523 163.248893L105.846218 162.630486L105.746977 162.012052L105.646744 161.393617L105.545547 160.775183L105.443387 160.156777L105.340262 159.538342L105.236202 158.919908L105.131179 158.301473L105.025191 157.683067L104.918269 157.064633L104.810382 156.446198L104.701532 155.827792L104.591746 155.209358L104.481025 154.590923L104.369368 153.972489L104.256747 153.354082L104.143192 152.735648L104.028729 152.117213L103.913302 151.498779L103.796968 150.880373L103.679699 150.261938L103.561494 149.643504L103.442354 149.025069L103.322307 148.406663L103.201352 147.788229L103.079463 147.169794L102.956666 146.551388L102.832962 145.932953L102.708323 145.314519L102.582805 144.696084L102.456351 144.077678L102.329019 143.459244L102.200779 142.840809L102.071633 142.222375L101.941579 141.603969L101.810647 140.985534L101.678836 140.367100L101.546118 139.748693L101.412521 139.130259L101.278046 138.511824L101.142691 137.893390L101.006430 137.274984L100.869318 136.656549L100.731328 136.038115L100.592459 135.419680L100.452739 134.801274L100.312140 134.182840L100.170692 133.564405L100.028364 132.945971L99.885186 132.327564L99.741158 131.709130L99.596279 131.090695L99.450550 130.472289L99.303971 129.853855L99.156569 129.235420L99.008289 128.616986L98.859215 127.998580L98.709262 127.380145L98.558516 126.761711L98.406919 126.143276L98.254472 125.524870L98.101259 124.906436L97.947168 124.288001L97.792283 123.669595L97.636604 123.051160L97.480075 122.432726L97.322781 121.814291L97.164636 121.195885L97.005726 120.577451L96.845993 119.959016L96.685467 119.340582L96.524148 118.722176L96.362034 118.103741L96.199156 117.485307L96.035483 116.866900L95.871017 116.248466L95.705786 115.630031L95.539761 115.011597L95.372970 114.393191L95.205414 113.774756L95.037093 113.156322L94.868035 112.537887L94.698183 111.919481L94.527594 111.301047L94.356240 110.682612L94.184148 110.064178L94.011292 109.445771L93.837698 108.827337L93.663367 108.208931L93.488328 107.590496L93.312523 106.972062L93.136010 106.353627L92.958760 105.735221L92.780772 105.116787L92.602076 104.498352L92.422671 103.879918L92.242558 103.261512L92.061736 102.643077L91.880177 102.024643L91.697966 101.406208L91.515018 100.787802L91.331390 100.169367L91.147053 99.550933L90.962036 98.932527L90.776366 98.314092L90.589988 97.695658L90.402930 97.077223L90.215192 96.458817L90.026801 95.840383L89.837730 95.221948L89.648008 94.603514L89.457604 93.985107L89.266549 93.366673L89.074871 92.748238L88.882512 92.129832L88.689529 91.511398L88.495894 90.892963L88.301636 90.274529L88.106726 89.656123L87.911192 89.037688L87.715035 88.419254L87.518254 87.800819L87.320821 87.182413L87.122821 86.563978L86.924197 85.945544L86.724950 85.327109L86.525108 84.708703L86.324670 84.090269L86.123637 83.471834L85.922008 82.853428L85.719785 82.234994L85.516966 81.616559L85.313580 80.998125L85.109628 80.379718L84.905080 79.761284L84.699993 79.142849L84.494311 78.524415L84.288091 77.906009L84.081275 77.287574L83.873949 76.669140L83.666056 76.050734L83.457625 75.432299L83.248626 74.813865L83.039118 74.195430L82.829071 73.577024L82.618485 72.958590L82.407360 72.340155L82.195726 71.721721L81.983581 71.103314L81.770926 70.484880L81.557761 69.866445L81.344085 69.248011L81.129899 68.629605L80.915232 68.011170L80.700054 67.392736L80.484394 66.774330L80.268252 66.155895L80.051629 65.537461L79.834523 64.919026L79.616964 64.300620L79.398923 63.682185L79.180401 63.063751L78.961424 62.445316L78.742023 61.826910L78.522139 61.208476L78.301831 60.590041L78.081040 59.971635L77.859853 59.353201L77.638184 58.734766L77.416118 58.116332L77.193626 57.497925L76.970710 56.879491L76.747368 56.261056L76.523601 55.642622L76.299437 55.024216L76.074877 54.405781L75.849891 53.787347L75.624537 53.168941L75.398757 52.550506L75.172609 51.932072L74.946093 51.313637L74.719180 50.695231L74.491869 50.076796L74.264219 49.458362L74.036200 48.839927L73.807813 48.221521L73.579057 47.603087L73.349961 46.984652L73.120525 46.366218L72.890720 45.747812L72.660575 45.129377L72.430119 44.510943L72.199294 43.892537L71.968185 43.274102L71.736708 42.655668L71.504947 42.037233L71.272847 41.418827L71.040462 40.800392L70.807766 40.181958L70.574759 39.563523L70.341467 38.945117L70.107864 38.326683L69.873978 37.708248L69.639836 37.089842L69.405382 36.471408L69.170674 35.852973L68.935682 35.234539L68.700435 34.616132L68.464932 33.997698L68.229146 33.379263L67.993134 32.760829L67.756866 32.142423L67.520344 31.523988L67.283594 30.905554L67.046618 30.287119L66.809415 29.668713L66.571985 29.050279L66.334328 28.431844L66.096445 27.813438L65.858363 27.195003L65.620054 26.576569L65.381576 25.958134L65.142898 25.339728L64.903995 24.721294L64.664921 24.102859L64.425677 23.484425L64.186234 22.866019L63.946622 22.247584L63.706839 21.629150L63.466886 21.010744L63.226792 20.392309L62.986527 19.773875L62.746121 19.155440L62.505545 18.537034L62.264827 17.918599L62.023995 17.300165L61.783022 16.681730L61.541907 16.063324L61.300679 15.444890L61.059309 14.826455L60.817854 14.208021L60.576285 13.589615L60.334603 12.971180L60.092808 12.352746L59.850928 11.734339L59.608934 11.115905L59.366884 10.497470L59.124749 9.879036L58.882500 9.260630L58.640223 8.642195L58.397832 8.023761L58.155413 7.405326L57.912910 6.786920L57.670377 6.168486L57.427760 5.550051L57.185114 4.931645L56.942440 4.313210L56.699710 3.694776L56.456951 3.076341L56.214163 2.457935L55.971376 1.839501L55.728532 1.221066L55.485688 0.602632L55.242844 -0.015774L55.000000 -0.634209" style="stroke:rgb(0.000000%,0.000000%,0.000000%); stroke-width: 0.500000;stroke-linecap: round;stroke-linejoin: round;stroke-miterlimit: 10.000000;fill: none;"></path>
  <path d="M102.227482 333.315659L102.433107 332.697253L102.637825 332.078818L102.841636 331.460384L103.044511 330.841977L103.246508 330.223543L103.447570 329.605108L103.647724 328.986674L103.846943 328.368268L104.045226 327.749833L104.242574 327.131399L104.438987 326.512964L104.634464 325.894558L104.828977 325.276124L105.022555 324.657689L105.215198 324.039283L105.406876 323.420848L105.597563 322.802414L105.787314 322.183979L105.976101 321.565573L106.163925 320.947139L106.350756 320.328704L106.536624 319.710270L106.721500 319.091864L106.905383 318.473429L107.088303 317.854995L107.270202 317.236560L107.451109 316.618154L107.631052 315.999720L107.809975 315.381285L107.987877 314.762879L108.164787 314.144444L108.340677 313.526010L108.515546 312.907575L108.689395 312.289169L108.862224 311.670735L109.034031 311.052300L109.204819 310.433866L109.374586 309.815460L109.543275 309.197025L109.710973 308.578591L109.877593 307.960184L110.043193 307.341750L110.207716 306.723315L110.371218 306.104881L110.533644 305.486475L110.695020 304.868040L110.855347 304.249606L111.014598 303.631171L111.172799 303.012765L111.329895 302.394331L111.485943 301.775896L111.640913 301.157462L111.794805 300.539055L111.947621 299.920621L112.099360 299.302186L112.249993 298.683780L112.399549 298.065346L112.547999 297.446911L112.695344 296.828477L112.841612 296.210071L112.986774 295.591636L113.130830 294.973202L113.273782 294.354767L113.415627 293.736361L113.556367 293.117927L113.695974 292.499492L113.834474 291.881086L113.971841 291.262651L114.108103 290.644217L114.243230 290.025782L114.377224 289.407376L114.510112 288.788942L114.641838 288.170507L114.772430 287.552073L114.901917 286.933667L115.030213 286.315232L115.157403 285.696798L115.283460 285.078391L115.408326 284.459957L115.532058 283.841522L115.654657 283.223088L115.776093 282.604682L115.896367 281.986247L116.015479 281.367813L116.133428 280.749378L116.250215 280.130972L116.365841 279.512538L116.480304 278.894103L116.593576 278.275697L116.705686 277.657262L116.816606 277.038828L116.926392 276.420422L117.034959 275.801987L117.142363 275.183581L117.248577 274.565147L117.353601 273.946712L117.457462 273.328306L117.560105 272.709871L117.661557 272.091437L117.761847 271.473031L117.860917 270.854596L117.958798 270.236190L118.055487 269.617756L118.150958 268.999321L118.245239 268.380915L118.338300 267.762481L118.430171 267.144074L118.520823 266.525640L118.610284 265.907205L118.698527 265.288799L118.785550 264.670365L118.871355 264.051959L118.955941 263.433524L119.039336 262.815090L119.121484 262.196683L119.202442 261.578249L119.282152 260.959814L119.360643 260.341408L119.437915 259.722974L119.513941 259.104568L119.588747 258.486133L119.662334 257.867699L119.734703 257.249292L119.805824 256.630858L119.875698 256.012452L119.944353 255.394017L120.011761 254.775583L120.077922 254.157177L120.142863 253.538742L120.206558 252.920336L120.269033 252.301902L120.330233 251.683467L120.390214 251.065061L120.448920 250.446626L120.506407 249.828192L120.562646 249.209786L120.617610 248.591351L120.671355 247.972945L120.723824 247.354511L120.775074 246.736076L120.825049 246.117670L120.873777 245.499235L120.921229 244.880829L120.967462 244.262395L121.012419 243.643960L121.056129 243.025554L121.098564 242.407120L121.139751 241.788713L121.179691 241.170279L121.218356 240.551844L121.255773 239.933438L121.291915 239.315004L121.326810 238.696569L121.360428 238.078163L121.392772 237.459729L121.423868 236.841322L121.453717 236.222888L121.482261 235.604453L121.509559 234.986047L121.535609 234.367613L121.560356 233.749207L121.583855 233.130772L121.606079 232.512338L121.627055 231.893932L121.646756 231.275497L121.665181 230.657091L121.682331 230.038656L121.698205 229.420222L121.712831 228.801816L121.726183 228.183381L121.738258 227.564947L121.749058 226.946541L121.758611 226.328106L121.766860 225.709700L121.773861 225.091265L121.779587 224.472831L121.784038 223.854425L121.787213 223.235990L121.789112 222.617584L121.789735 221.999150L121.789112 221.380715L121.787213 220.762309L121.784038 220.143874L121.779587 219.525440L121.773861 218.907034L121.766860 218.288599L121.758611 217.670193L121.749058 217.051759L121.738258 216.433324L121.726183 215.814918L121.712831 215.196483L121.698205 214.578077L121.682331 213.959643L121.665181 213.341208L121.646756 212.722802L121.627055 212.104368L121.606079 211.485933L121.583855 210.867527L121.560356 210.249093L121.535609 209.630686L121.509559 209.012252L121.482261 208.393817L121.453717 207.775411L121.423868 207.156977L121.392772 206.538571L121.360428 205.920136L121.326810 205.301702L121.291915 204.683295L121.255773 204.064861L121.218356 203.446455L121.179691 202.828020L121.139751 202.209586L121.098564 201.591180L121.056129 200.972745L121.012419 200.354311L120.967462 199.735904L120.921229 199.117470L120.873777 198.499064L120.825049 197.880629L120.775074 197.262195L120.723824 196.643789L120.671355 196.025354L120.617610 195.406948L120.562646 194.788514L120.506407 194.170079L120.448920 193.551673L120.390214 192.933238L120.330233 192.314804L120.269033 191.696398L120.206558 191.077963L120.142863 190.459557L120.077922 189.841123L120.011761 189.222688L119.944353 188.604282L119.875698 187.985847L119.805824 187.367441L119.734703 186.749007L119.662334 186.130572L119.588747 185.512166L119.513941 184.893732L119.437915 184.275325L119.360643 183.656891L119.282152 183.038456L119.202442 182.420050L119.121484 181.801616L119.039336 181.183181L118.955941 180.564775L118.871355 179.946341L118.785550 179.327934L118.698527 178.709500L118.610284 178.091065L118.520823 177.472659L118.430171 176.854225L118.338300 176.235819L118.245239 175.617384L118.150958 174.998950L118.055487 174.380544L117.958798 173.762109L117.860917 173.143703L117.761847 172.525268L117.661557 171.906834L117.560105 171.288428L117.457462 170.669993L117.353601 170.051559L117.248577 169.433153L117.142363 168.814718L117.034959 168.196312L116.926392 167.577877L116.816606 166.959443L116.705686 166.341037L116.593576 165.722602L116.480304 165.104168L116.365841 164.485762L116.250215 163.867327L116.133428 163.248893L116.015479 162.630486L115.896367 162.012052L115.776093 161.393617L115.654657 160.775183L115.532058 160.156777L115.408326 159.538342L115.283460 158.919908L115.157403 158.301473L115.030213 157.683067L114.901917 157.064633L114.772430 156.446198L114.641838 155.827792L114.510112 155.209358L114.377224 154.590923L114.243230 153.972489L114.108103 153.354082L113.971841 152.735648L113.834474 152.117213L113.695974 151.498779L113.556367 150.880373L113.415627 150.261938L113.273782 149.643504L113.130830 149.025069L112.986774 148.406663L112.841612 147.788229L112.695344 147.169794L112.547999 146.551388L112.399549 145.932953L112.249993 145.314519L112.099360 144.696084L111.947621 144.077678L111.794805 143.459244L111.640913 142.840809L111.485943 142.222375L111.329895 141.603969L111.172799 140.985534L111.014598 140.367100L110.855347 139.748693L110.695020 139.130259L110.533644 138.511824L110.371218 137.893390L110.207716 137.274984L110.043193 136.656549L109.877593 136.038115L109.710973 135.419680L109.543275 134.801274L109.374586 134.182840L109.204819 133.564405L109.034031 132.945971L108.862224 132.327564L108.689395 131.709130L108.515546 131.090695L108.340677 130.472289L108.164787 129.853855L107.987877 129.235420L107.809975 128.616986L107.631052 127.998580L107.451109 127.380145L107.270202 126.761711L107.088303 126.143276L106.905383 125.524870L106.721500 124.906436L106.536624 124.288001L106.350756 123.669595L106.163925 123.051160L105.976101 122.432726L105.787314 121.814291L105.597563 121.195885L105.406876 120.577451L105.215198 119.959016L105.022555 119.340582L104.828977 118.722176L104.634464 118.103741L104.438987 117.485307L104.242574 116.866900L104.045226 116.248466L103.846943 115.630031L103.647724 115.011597L103.447570 114.393191L103.246508 113.774756L103.044511 113.156322L102.841636 112.537887L102.637825 111.919481L102.433107 111.301047L102.227482 110.682612L102.020978 110.064178L101.813567 109.445771L101.605249 108.827337L101.396052 108.208931L101.185976 107.590496L100.975022 106.972062L100.763189 106.353627L100.550506 105.735221L100.336944 105.116787L100.122503 104.498352L99.907211 103.879918L99.691070 103.261512L99.474078 102.643077L99.256235 102.024643L99.037542 101.406208L98.818027 100.787802L98.597662 100.169367L98.376475 99.550933L98.154465 98.932527L97.931634 98.314092L97.707980 97.695658L97.483505 97.077223L97.258236 96.458817L97.032144 95.840383L96.805259 95.221948L96.577609 94.603514L96.349137 93.985107L96.119871 93.366673L95.889839 92.748238L95.659014 92.129832L95.427424 91.511398L95.195068 90.892963L94.961946 90.274529L94.728060 89.656123L94.493436 89.037688L94.258019 88.419254L94.021893 87.800819L93.785002 87.182413L93.547374 86.563978L93.309008 85.945544L93.069934 85.327109L92.830123 84.708703L92.589604 84.090269L92.348347 83.471834L92.106382 82.853428L91.863736 82.234994L91.620354 81.616559L91.376291 80.998125L91.131547 80.379718L90.886095 79.761284L90.639992 79.142849L90.393179 78.524415L90.145686 77.906009L89.897541 77.287574L89.648745 76.669140L89.399267 76.050734L89.149138 75.432299L88.898357 74.813865L88.646924 74.195430L88.394868 73.577024L88.142187 72.958590L87.888855 72.340155L87.634871 71.721721L87.380320 71.103314L87.125117 70.484880L86.869318 69.866445L86.612896 69.248011L86.355879 68.629605L86.098267 68.011170L85.840087 67.392736L85.581284 66.774330L85.321914 66.155895L85.061949 65.537461L84.801445 64.919026L84.540346 64.300620L84.278708 63.682185L84.016475 63.063751L83.753732 62.445316L83.490422 61.826910L83.226573 61.208476L82.962186 60.590041L82.697260 59.971635L82.431795 59.353201L82.165849 58.734766L81.899364 58.116332L81.632340 57.497925L81.364835 56.879491L81.096819 56.261056L80.828321 55.642622L80.559342 55.024216" style="stroke:rgb(0.000000%,0.000000%,0.000000%); stroke-width: 0.500000;stroke-linecap: round;stroke-linejoin: round;stroke-miterlimit: 10.000000;fill: none;"></path>
  <path d="M84.819218 55.024216L84.504828 54.405781L84.189842 53.787347L83.874346 53.168941L83.558283 52.550506L83.241682 51.932072L82.924513 51.313637L82.606834 50.695231L82.288646 50.076796L81.969918 49.458362L81.650680 48.839927L81.330932 48.221521L81.010674 47.603087L80.689934 46.984652L80.368712 46.366218L80.047008 45.747812L79.724823 45.129377L79.402155 44.510943L79.079034 43.892537L78.755431 43.274102L78.431402 42.655668L78.106921 42.037233L77.782014 41.418827L77.456653 40.800392L77.130867 40.181958L76.804656 39.563523L76.478048 38.945117L76.151015 38.326683L75.823586 37.708248L75.495759 37.089842L75.167535 36.471408L74.838915 35.852973L74.509954 35.234539L74.180597 34.616132L73.850899 33.997698L73.520805 33.379263L73.190371 32.760829L72.859596 32.142423L72.528481 31.523988L72.197054 30.905554L71.865259 30.287119L71.533180 29.668713L71.200762 29.050279L70.868031 28.431844L70.535017 27.813438L70.201691 27.195003" style="stroke:rgb(0.000000%,0.000000%,0.000000%); stroke-width: 0.500000;stroke-linecap: round;stroke-linejoin: round;stroke-miterlimit: 10.000000;fill: none;"></path>
  <path d="M76.299437 55.024216L84.819218 55.024216" style="stroke:rgb(0.000000%,0.000000%,0.000000%); stroke-width: 0.500000;stroke-linecap: round;stroke-linejoin: round;stroke-miterlimit: 10.000000;fill: none;"></path>
  <path d="M65.858363 27.195003L70.201691 27.195003" style="stroke:rgb(0.000000%,0.000000%,0.000000%); stroke-width: 0.500000;stroke-linecap: round;stroke-linejoin: round;stroke-miterlimit: 10.000000;fill: none;"></path>
  <path d="M94.356240 333.316254L102.227482 333.316254" style="stroke:rgb(0.000000%,0.000000%,0.000000%); stroke-width: 0.500000;stroke-linecap: round;stroke-linejoin: round;stroke-miterlimit: 10.000000;fill: none;"></path>
  <path d="M101.278046 305.487212L110.533644 305.487212" style="stroke:rgb(0.000000%,0.000000%,0.000000%); stroke-width: 0.500000;stroke-linecap: round;stroke-linejoin: round;stroke-miterlimit: 10.000000;fill: none;"></path>
  <path d="M106.421396 277.658141L116.705686 277.658141" style="stroke:rgb(0.000000%,0.000000%,0.000000%); stroke-width: 0.500000;stroke-linecap: round;stroke-linejoin: round;stroke-miterlimit: 10.000000;fill: none;"></path>
  <path d="M109.588658 249.829071L120.506407 249.829071" style="stroke:rgb(0.000000%,0.000000%,0.000000%); stroke-width: 0.500000;stroke-linecap: round;stroke-linejoin: round;stroke-miterlimit: 10.000000;fill: none;"></path>
  <path d="M110.658113 222.000028L121.789735 222.000028" style="stroke:rgb(0.000000%,0.000000%,0.000000%); stroke-width: 0.500000;stroke-linecap: round;stroke-linejoin: round;stroke-miterlimit: 10.000000;fill: none;"></path>
  <path d="M109.588658 194.170958L120.506407 194.170958" style="stroke:rgb(0.000000%,0.000000%,0.000000%); stroke-width: 0.500000;stroke-linecap: round;stroke-linejoin: round;stroke-miterlimit: 10.000000;fill: none;"></path>
  <path d="M106.421396 166.341887L116.705686 166.341887" style="stroke:rgb(0.000000%,0.000000%,0.000000%); stroke-width: 0.500000;stroke-linecap: round;stroke-linejoin: round;stroke-miterlimit: 10.000000;fill: none;"></path>
  <path d="M101.278046 138.512817L110.533644 138.512817" style="stroke:rgb(0.000000%,0.000000%,0.000000%); stroke-width: 0.500000;stroke-linecap: round;stroke-linejoin: round;stroke-miterlimit: 10.000000;fill: none;"></path>
  <path d="M94.356240 110.683746L102.227482 110.683746" style="stroke:rgb(0.000000%,0.000000%,0.000000%); stroke-width: 0.500000;stroke-linecap: round;stroke-linejoin: round;stroke-miterlimit: 10.000000;fill: none;"></path>
  <path d="M85.922008 82.854704L92.106382 82.854704" style="stroke:rgb(0.000000%,0.000000%,0.000000%); stroke-width: 0.500000;stroke-linecap: round;stroke-linejoin: round;stroke-miterlimit: 10.000000;fill: none;"></path>
  <path d="M99.958122 327.749833l0 0" style="stroke:rgb(0.000000%,0.000000%,0.000000%); stroke-width: 1.992529;stroke-linecap: round;stroke-linejoin: round;stroke-miterlimit: 10.000000;fill: none;"></path>
  <path d="M18.216087 327.749833l0 0" style="stroke:rgb(0.000000%,0.000000%,0.000000%); stroke-width: 1.992529;stroke-linecap: round;stroke-linejoin: round;stroke-miterlimit: 10.000000;fill: none;"></path>
  <path d="M101.555047 322.183979l0 0" style="stroke:rgb(0.000000%,0.000000%,0.000000%); stroke-width: 1.992529;stroke-linecap: round;stroke-linejoin: round;stroke-miterlimit: 10.000000;fill: none;"></path>
  <path d="M16.909515 322.183979l0 0" style="stroke:rgb(0.000000%,0.000000%,0.000000%); stroke-width: 1.992529;stroke-linecap: round;stroke-linejoin: round;stroke-miterlimit: 10.000000;fill: none;"></path>
  <path d="M103.080200 316.618154l0 0" style="stroke:rgb(0.000000%,0.000000%,0.000000%); stroke-width: 1.992529;stroke-linecap: round;stroke-linejoin: round;stroke-miterlimit: 10.000000;fill: none;"></path>
  <path d="M15.661647 316.618154l0 0" style="stroke:rgb(0.000000%,0.000000%,0.000000%); stroke-width: 1.992529;stroke-linecap: round;stroke-linejoin: round;stroke-miterlimit: 10.000000;fill: none;"></path>
  <path d="M104.531198 311.052300l0 0" style="stroke:rgb(0.000000%,0.000000%,0.000000%); stroke-width: 1.992529;stroke-linecap: round;stroke-linejoin: round;stroke-miterlimit: 10.000000;fill: none;"></path>
  <path d="M14.474469 311.052300l0 0" style="stroke:rgb(0.000000%,0.000000%,0.000000%); stroke-width: 1.992529;stroke-linecap: round;stroke-linejoin: round;stroke-miterlimit: 10.000000;fill: none;"></path>
  <path d="M105.905859 305.486475l0 0" style="stroke:rgb(0.000000%,0.000000%,0.000000%); stroke-width: 1.992529;stroke-linecap: round;stroke-linejoin: round;stroke-miterlimit: 10.000000;fill: none;"></path>
  <path d="M13.349767 305.486475l0 0" style="stroke:rgb(0.000000%,0.000000%,0.000000%); stroke-width: 1.992529;stroke-linecap: round;stroke-linejoin: round;stroke-miterlimit: 10.000000;fill: none;"></path>
  <path d="M107.202000 299.920621l0 0" style="stroke:rgb(0.000000%,0.000000%,0.000000%); stroke-width: 1.992529;stroke-linecap: round;stroke-linejoin: round;stroke-miterlimit: 10.000000;fill: none;"></path>
  <path d="M12.289270 299.920621l0 0" style="stroke:rgb(0.000000%,0.000000%,0.000000%); stroke-width: 1.992529;stroke-linecap: round;stroke-linejoin: round;stroke-miterlimit: 10.000000;fill: none;"></path>
  <path d="M108.417638 294.354767l0 0" style="stroke:rgb(0.000000%,0.000000%,0.000000%); stroke-width: 1.992529;stroke-linecap: round;stroke-linejoin: round;stroke-miterlimit: 10.000000;fill: none;"></path>
  <path d="M11.294650 294.354767l0 0" style="stroke:rgb(0.000000%,0.000000%,0.000000%); stroke-width: 1.992529;stroke-linecap: round;stroke-linejoin: round;stroke-miterlimit: 10.000000;fill: none;"></path>
  <path d="M109.550929 288.788942l0 0" style="stroke:rgb(0.000000%,0.000000%,0.000000%); stroke-width: 1.992529;stroke-linecap: round;stroke-linejoin: round;stroke-miterlimit: 10.000000;fill: none;"></path>
  <path d="M10.367409 288.788942l0 0" style="stroke:rgb(0.000000%,0.000000%,0.000000%); stroke-width: 1.992529;stroke-linecap: round;stroke-linejoin: round;stroke-miterlimit: 10.000000;fill: none;"></path>
  <path d="M110.600088 283.223088l0 0" style="stroke:rgb(0.000000%,0.000000%,0.000000%); stroke-width: 1.992529;stroke-linecap: round;stroke-linejoin: round;stroke-miterlimit: 10.000000;fill: none;"></path>
  <path d="M9.509022 283.223088l0 0" style="stroke:rgb(0.000000%,0.000000%,0.000000%); stroke-width: 1.992529;stroke-linecap: round;stroke-linejoin: round;stroke-miterlimit: 10.000000;fill: none;"></path>
  <path d="M111.563555 277.657262l0 0" style="stroke:rgb(0.000000%,0.000000%,0.000000%); stroke-width: 1.992529;stroke-linecap: round;stroke-linejoin: round;stroke-miterlimit: 10.000000;fill: none;"></path>
  <path d="M8.720735 277.657262l0 0" style="stroke:rgb(0.000000%,0.000000%,0.000000%); stroke-width: 1.992529;stroke-linecap: round;stroke-linejoin: round;stroke-miterlimit: 10.000000;fill: none;"></path>
  <path d="M112.439772 272.091437l0 0" style="stroke:rgb(0.000000%,0.000000%,0.000000%); stroke-width: 1.992529;stroke-linecap: round;stroke-linejoin: round;stroke-miterlimit: 10.000000;fill: none;"></path>
  <path d="M8.003825 272.091437l0 0" style="stroke:rgb(0.000000%,0.000000%,0.000000%); stroke-width: 1.992529;stroke-linecap: round;stroke-linejoin: round;stroke-miterlimit: 10.000000;fill: none;"></path>
  <path d="M113.227435 266.525640l0 0" style="stroke:rgb(0.000000%,0.000000%,0.000000%); stroke-width: 1.992529;stroke-linecap: round;stroke-linejoin: round;stroke-miterlimit: 10.000000;fill: none;"></path>
  <path d="M7.359369 266.525640l0 0" style="stroke:rgb(0.000000%,0.000000%,0.000000%); stroke-width: 1.992529;stroke-linecap: round;stroke-linejoin: round;stroke-miterlimit: 10.000000;fill: none;"></path>
  <path d="M113.925296 260.959814l0 0" style="stroke:rgb(0.000000%,0.000000%,0.000000%); stroke-width: 1.992529;stroke-linecap: round;stroke-linejoin: round;stroke-miterlimit: 10.000000;fill: none;"></path>
  <path d="M6.788386 260.959814l0 0" style="stroke:rgb(0.000000%,0.000000%,0.000000%); stroke-width: 1.992529;stroke-linecap: round;stroke-linejoin: round;stroke-miterlimit: 10.000000;fill: none;"></path>
  <path d="M114.532307 255.394017l0 0" style="stroke:rgb(0.000000%,0.000000%,0.000000%); stroke-width: 1.992529;stroke-linecap: round;stroke-linejoin: round;stroke-miterlimit: 10.000000;fill: none;"></path>
  <path d="M6.291728 255.394017l0 0" style="stroke:rgb(0.000000%,0.000000%,0.000000%); stroke-width: 1.992529;stroke-linecap: round;stroke-linejoin: round;stroke-miterlimit: 10.000000;fill: none;"></path>
  <path d="M115.047532 249.828192l0 0" style="stroke:rgb(0.000000%,0.000000%,0.000000%); stroke-width: 1.992529;stroke-linecap: round;stroke-linejoin: round;stroke-miterlimit: 10.000000;fill: none;"></path>
  <path d="M5.870188 249.828192l0 0" style="stroke:rgb(0.000000%,0.000000%,0.000000%); stroke-width: 1.992529;stroke-linecap: round;stroke-linejoin: round;stroke-miterlimit: 10.000000;fill: none;"></path>
  <path d="M115.470178 244.262395l0 0" style="stroke:rgb(0.000000%,0.000000%,0.000000%); stroke-width: 1.992529;stroke-linecap: round;stroke-linejoin: round;stroke-miterlimit: 10.000000;fill: none;"></path>
  <path d="M5.524418 244.262395l0 0" style="stroke:rgb(0.000000%,0.000000%,0.000000%); stroke-width: 1.992529;stroke-linecap: round;stroke-linejoin: round;stroke-miterlimit: 10.000000;fill: none;"></path>
  <path d="M115.799564 238.696569l0 0" style="stroke:rgb(0.000000%,0.000000%,0.000000%); stroke-width: 1.992529;stroke-linecap: round;stroke-linejoin: round;stroke-miterlimit: 10.000000;fill: none;"></path>
  <path d="M5.254900 238.696569l0 0" style="stroke:rgb(0.000000%,0.000000%,0.000000%); stroke-width: 1.992529;stroke-linecap: round;stroke-linejoin: round;stroke-miterlimit: 10.000000;fill: none;"></path>
  <path d="M116.035208 233.130772l0 0" style="stroke:rgb(0.000000%,0.000000%,0.000000%); stroke-width: 1.992529;stroke-linecap: round;stroke-linejoin: round;stroke-miterlimit: 10.000000;fill: none;"></path>
  <path d="M5.062116 233.130772l0 0" style="stroke:rgb(0.000000%,0.000000%,0.000000%); stroke-width: 1.992529;stroke-linecap: round;stroke-linejoin: round;stroke-miterlimit: 10.000000;fill: none;"></path>
  <path d="M116.176741 227.564947l0 0" style="stroke:rgb(0.000000%,0.000000%,0.000000%); stroke-width: 1.992529;stroke-linecap: round;stroke-linejoin: round;stroke-miterlimit: 10.000000;fill: none;"></path>
  <path d="M4.946320 227.564947l0 0" style="stroke:rgb(0.000000%,0.000000%,0.000000%); stroke-width: 1.992529;stroke-linecap: round;stroke-linejoin: round;stroke-miterlimit: 10.000000;fill: none;"></path>
  <path d="M116.223938 222.000000l0 0" style="stroke:rgb(0.000000%,0.000000%,0.000000%); stroke-width: 1.992529;stroke-linecap: round;stroke-linejoin: round;stroke-miterlimit: 10.000000;fill: none;"></path>
  <path d="M4.907684 222.000000l0 0" style="stroke:rgb(0.000000%,0.000000%,0.000000%); stroke-width: 1.992529;stroke-linecap: round;stroke-linejoin: round;stroke-miterlimit: 10.000000;fill: none;"></path>
  <path d="M116.176741 216.433324l0 0" style="stroke:rgb(0.000000%,0.000000%,0.000000%); stroke-width: 1.992529;stroke-linecap: round;stroke-linejoin: round;stroke-miterlimit: 10.000000;fill: none;"></path>
  <path d="M4.946320 216.433324l0 0" style="stroke:rgb(0.000000%,0.000000%,0.000000%); stroke-width: 1.992529;stroke-linecap: round;stroke-linejoin: round;stroke-miterlimit: 10.000000;fill: none;"></path>
  <path d="M116.035208 210.867527l0 0" style="stroke:rgb(0.000000%,0.000000%,0.000000%); stroke-width: 1.992529;stroke-linecap: round;stroke-linejoin: round;stroke-miterlimit: 10.000000;fill: none;"></path>
  <path d="M5.062116 210.867527l0 0" style="stroke:rgb(0.000000%,0.000000%,0.000000%); stroke-width: 1.992529;stroke-linecap: round;stroke-linejoin: round;stroke-miterlimit: 10.000000;fill: none;"></path>
  <path d="M115.799564 205.301702l0 0" style="stroke:rgb(0.000000%,0.000000%,0.000000%); stroke-width: 1.992529;stroke-linecap: round;stroke-linejoin: round;stroke-miterlimit: 10.000000;fill: none;"></path>
  <path d="M5.254900 205.301702l0 0" style="stroke:rgb(0.000000%,0.000000%,0.000000%); stroke-width: 1.992529;stroke-linecap: round;stroke-linejoin: round;stroke-miterlimit: 10.000000;fill: none;"></path>
  <path d="M115.470178 199.735904l0 0" style="stroke:rgb(0.000000%,0.000000%,0.000000%); stroke-width: 1.992529;stroke-linecap: round;stroke-linejoin: round;stroke-miterlimit: 10.000000;fill: none;"></path>
  <path d="M5.524418 199.735904l0 0" style="stroke:rgb(0.000000%,0.000000%,0.000000%); stroke-width: 1.992529;stroke-linecap: round;stroke-linejoin: round;stroke-miterlimit: 10.000000;fill: none;"></path>
  <path d="M115.047532 194.170079l0 0" style="stroke:rgb(0.000000%,0.000000%,0.000000%); stroke-width: 1.992529;stroke-linecap: round;stroke-linejoin: round;stroke-miterlimit: 10.000000;fill: none;"></path>
  <path d="M5.870188 194.170079l0 0" style="stroke:rgb(0.000000%,0.000000%,0.000000%); stroke-width: 1.992529;stroke-linecap: round;stroke-linejoin: round;stroke-miterlimit: 10.000000;fill: none;"></path>
  <path d="M114.532307 188.604282l0 0" style="stroke:rgb(0.000000%,0.000000%,0.000000%); stroke-width: 1.992529;stroke-linecap: round;stroke-linejoin: round;stroke-miterlimit: 10.000000;fill: none;"></path>
  <path d="M6.291728 188.604282l0 0" style="stroke:rgb(0.000000%,0.000000%,0.000000%); stroke-width: 1.992529;stroke-linecap: round;stroke-linejoin: round;stroke-miterlimit: 10.000000;fill: none;"></path>
  <path d="M113.925296 183.038456l0 0" style="stroke:rgb(0.000000%,0.000000%,0.000000%); stroke-width: 1.992529;stroke-linecap: round;stroke-linejoin: round;stroke-miterlimit: 10.000000;fill: none;"></path>
  <path d="M6.788386 183.038456l0 0" style="stroke:rgb(0.000000%,0.000000%,0.000000%); stroke-width: 1.992529;stroke-linecap: round;stroke-linejoin: round;stroke-miterlimit: 10.000000;fill: none;"></path>
  <path d="M113.227435 177.472659l0 0" style="stroke:rgb(0.000000%,0.000000%,0.000000%); stroke-width: 1.992529;stroke-linecap: round;stroke-linejoin: round;stroke-miterlimit: 10.000000;fill: none;"></path>
  <path d="M7.359369 177.472659l0 0" style="stroke:rgb(0.000000%,0.000000%,0.000000%); stroke-width: 1.992529;stroke-linecap: round;stroke-linejoin: round;stroke-miterlimit: 10.000000;fill: none;"></path>
  <path d="M112.439772 171.906834l0 0" style="stroke:rgb(0.000000%,0.000000%,0.000000%); stroke-width: 1.992529;stroke-linecap: round;stroke-linejoin: round;stroke-miterlimit: 10.000000;fill: none;"></path>
  <path d="M8.003825 171.906834l0 0" style="stroke:rgb(0.000000%,0.000000%,0.000000%); stroke-width: 1.992529;stroke-linecap: round;stroke-linejoin: round;stroke-miterlimit: 10.000000;fill: none;"></path>
  <path d="M111.563555 166.341037l0 0" style="stroke:rgb(0.000000%,0.000000%,0.000000%); stroke-width: 1.992529;stroke-linecap: round;stroke-linejoin: round;stroke-miterlimit: 10.000000;fill: none;"></path>
  <path d="M8.720735 166.341037l0 0" style="stroke:rgb(0.000000%,0.000000%,0.000000%); stroke-width: 1.992529;stroke-linecap: round;stroke-linejoin: round;stroke-miterlimit: 10.000000;fill: none;"></path>
  <path d="M110.600088 160.775183l0 0" style="stroke:rgb(0.000000%,0.000000%,0.000000%); stroke-width: 1.992529;stroke-linecap: round;stroke-linejoin: round;stroke-miterlimit: 10.000000;fill: none;"></path>
  <path d="M9.509022 160.775183l0 0" style="stroke:rgb(0.000000%,0.000000%,0.000000%); stroke-width: 1.992529;stroke-linecap: round;stroke-linejoin: round;stroke-miterlimit: 10.000000;fill: none;"></path>
  <path d="M109.550929 155.209358l0 0" style="stroke:rgb(0.000000%,0.000000%,0.000000%); stroke-width: 1.992529;stroke-linecap: round;stroke-linejoin: round;stroke-miterlimit: 10.000000;fill: none;"></path>
  <path d="M10.367409 155.209358l0 0" style="stroke:rgb(0.000000%,0.000000%,0.000000%); stroke-width: 1.992529;stroke-linecap: round;stroke-linejoin: round;stroke-miterlimit: 10.000000;fill: none;"></path>
  <path d="M108.417638 149.643504l0 0" style="stroke:rgb(0.000000%,0.000000%,0.000000%); stroke-width: 1.992529;stroke-linecap: round;stroke-linejoin: round;stroke-miterlimit: 10.000000;fill: none;"></path>
  <path d="M11.294650 149.643504l0 0" style="stroke:rgb(0.000000%,0.000000%,0.000000%); stroke-width: 1.992529;stroke-linecap: round;stroke-linejoin: round;stroke-miterlimit: 10.000000;fill: none;"></path>
  <path d="M107.202000 144.077678l0 0" style="stroke:rgb(0.000000%,0.000000%,0.000000%); stroke-width: 1.992529;stroke-linecap: round;stroke-linejoin: round;stroke-miterlimit: 10.000000;fill: none;"></path>
  <path d="M12.289270 144.077678l0 0" style="stroke:rgb(0.000000%,0.000000%,0.000000%); stroke-width: 1.992529;stroke-linecap: round;stroke-linejoin: round;stroke-miterlimit: 10.000000;fill: none;"></path>
  <path d="M105.905859 138.511824l0 0" style="stroke:rgb(0.000000%,0.000000%,0.000000%); stroke-width: 1.992529;stroke-linecap: round;stroke-linejoin: round;stroke-miterlimit: 10.000000;fill: none;"></path>
  <path d="M13.349767 138.511824l0 0" style="stroke:rgb(0.000000%,0.000000%,0.000000%); stroke-width: 1.992529;stroke-linecap: round;stroke-linejoin: round;stroke-miterlimit: 10.000000;fill: none;"></path>
  <path d="M104.531198 132.945971l0 0" style="stroke:rgb(0.000000%,0.000000%,0.000000%); stroke-width: 1.992529;stroke-linecap: round;stroke-linejoin: round;stroke-miterlimit: 10.000000;fill: none;"></path>
  <path d="M14.474469 132.945971l0 0" style="stroke:rgb(0.000000%,0.000000%,0.000000%); stroke-width: 1.992529;stroke-linecap: round;stroke-linejoin: round;stroke-miterlimit: 10.000000;fill: none;"></path>
  <path d="M103.080200 127.380145l0 0" style="stroke:rgb(0.000000%,0.000000%,0.000000%); stroke-width: 1.992529;stroke-linecap: round;stroke-linejoin: round;stroke-miterlimit: 10.000000;fill: none;"></path>
  <path d="M15.661647 127.380145l0 0" style="stroke:rgb(0.000000%,0.000000%,0.000000%); stroke-width: 1.992529;stroke-linecap: round;stroke-linejoin: round;stroke-miterlimit: 10.000000;fill: none;"></path>
  <path d="M101.555047 121.814291l0 0" style="stroke:rgb(0.000000%,0.000000%,0.000000%); stroke-width: 1.992529;stroke-linecap: round;stroke-linejoin: round;stroke-miterlimit: 10.000000;fill: none;"></path>
  <path d="M16.909515 121.814291l0 0" style="stroke:rgb(0.000000%,0.000000%,0.000000%); stroke-width: 1.992529;stroke-linecap: round;stroke-linejoin: round;stroke-miterlimit: 10.000000;fill: none;"></path>
  <path d="M99.958122 116.248466l0 0" style="stroke:rgb(0.000000%,0.000000%,0.000000%); stroke-width: 1.992529;stroke-linecap: round;stroke-linejoin: round;stroke-miterlimit: 10.000000;fill: none;"></path>
  <path d="M18.216087 116.248466l0 0" style="stroke:rgb(0.000000%,0.000000%,0.000000%); stroke-width: 1.992529;stroke-linecap: round;stroke-linejoin: round;stroke-miterlimit: 10.000000;fill: none;"></path>
  <path d="M98.291861 110.682612l0 0" style="stroke:rgb(0.000000%,0.000000%,0.000000%); stroke-width: 1.992529;stroke-linecap: round;stroke-linejoin: round;stroke-miterlimit: 10.000000;fill: none;"></path>
  <path d="M19.579382 110.682612l0 0" style="stroke:rgb(0.000000%,0.000000%,0.000000%); stroke-width: 1.992529;stroke-linecap: round;stroke-linejoin: round;stroke-miterlimit: 10.000000;fill: none;"></path>
  <path d="M96.558844 105.116787l0 0" style="stroke:rgb(0.000000%,0.000000%,0.000000%); stroke-width: 1.992529;stroke-linecap: round;stroke-linejoin: round;stroke-miterlimit: 10.000000;fill: none;"></path>
  <path d="M20.997299 105.116787l0 0" style="stroke:rgb(0.000000%,0.000000%,0.000000%); stroke-width: 1.992529;stroke-linecap: round;stroke-linejoin: round;stroke-miterlimit: 10.000000;fill: none;"></path>
  <path d="M94.761764 99.550933l0 0" style="stroke:rgb(0.000000%,0.000000%,0.000000%); stroke-width: 1.992529;stroke-linecap: round;stroke-linejoin: round;stroke-miterlimit: 10.000000;fill: none;"></path>
  <path d="M22.467658 99.550933l0 0" style="stroke:rgb(0.000000%,0.000000%,0.000000%); stroke-width: 1.992529;stroke-linecap: round;stroke-linejoin: round;stroke-miterlimit: 10.000000;fill: none;"></path>
  <path d="M92.903371 93.985107l0 0" style="stroke:rgb(0.000000%,0.000000%,0.000000%); stroke-width: 1.992529;stroke-linecap: round;stroke-linejoin: round;stroke-miterlimit: 10.000000;fill: none;"></path>
  <path d="M23.988162 93.985107l0 0" style="stroke:rgb(0.000000%,0.000000%,0.000000%); stroke-width: 1.992529;stroke-linecap: round;stroke-linejoin: round;stroke-miterlimit: 10.000000;fill: none;"></path>
  <path d="M90.986527 88.419254l0 0" style="stroke:rgb(0.000000%,0.000000%,0.000000%); stroke-width: 1.992529;stroke-linecap: round;stroke-linejoin: round;stroke-miterlimit: 10.000000;fill: none;"></path>
  <path d="M25.556486 88.419254l0 0" style="stroke:rgb(0.000000%,0.000000%,0.000000%); stroke-width: 1.992529;stroke-linecap: round;stroke-linejoin: round;stroke-miterlimit: 10.000000;fill: none;"></path>
  <path d="M89.014181 82.853428l0 0" style="stroke:rgb(0.000000%,0.000000%,0.000000%); stroke-width: 1.992529;stroke-linecap: round;stroke-linejoin: round;stroke-miterlimit: 10.000000;fill: none;"></path>
  <path d="M27.170192 82.853428l0 0" style="stroke:rgb(0.000000%,0.000000%,0.000000%); stroke-width: 1.992529;stroke-linecap: round;stroke-linejoin: round;stroke-miterlimit: 10.000000;fill: none;"></path>
  <path d="M86.989422 77.287574l0 0" style="stroke:rgb(0.000000%,0.000000%,0.000000%); stroke-width: 1.992529;stroke-linecap: round;stroke-linejoin: round;stroke-miterlimit: 10.000000;fill: none;"></path>
  <path d="M28.826844 77.287574l0 0" style="stroke:rgb(0.000000%,0.000000%,0.000000%); stroke-width: 1.992529;stroke-linecap: round;stroke-linejoin: round;stroke-miterlimit: 10.000000;fill: none;"></path>
  <path d="M84.915313 71.721721l0 0" style="stroke:rgb(0.000000%,0.000000%,0.000000%); stroke-width: 1.992529;stroke-linecap: round;stroke-linejoin: round;stroke-miterlimit: 10.000000;fill: none;"></path>
  <path d="M30.523833 71.721721l0 0" style="stroke:rgb(0.000000%,0.000000%,0.000000%); stroke-width: 1.992529;stroke-linecap: round;stroke-linejoin: round;stroke-miterlimit: 10.000000;fill: none;"></path>
  <path d="M82.795083 66.155895l0 0" style="stroke:rgb(0.000000%,0.000000%,0.000000%); stroke-width: 1.992529;stroke-linecap: round;stroke-linejoin: round;stroke-miterlimit: 10.000000;fill: none;"></path>
  <path d="M32.258579 66.155895l0 0" style="stroke:rgb(0.000000%,0.000000%,0.000000%); stroke-width: 1.992529;stroke-linecap: round;stroke-linejoin: round;stroke-miterlimit: 10.000000;fill: none;"></path>
  <path d="M80.631994 60.590041l0 0" style="stroke:rgb(0.000000%,0.000000%,0.000000%); stroke-width: 1.992529;stroke-linecap: round;stroke-linejoin: round;stroke-miterlimit: 10.000000;fill: none;"></path>
  <path d="M34.028361 60.590041l0 0" style="stroke:rgb(0.000000%,0.000000%,0.000000%); stroke-width: 1.992529;stroke-linecap: round;stroke-linejoin: round;stroke-miterlimit: 10.000000;fill: none;"></path>
  <path d="M78.429390 55.024216l0 0" style="stroke:rgb(0.000000%,0.000000%,0.000000%); stroke-width: 1.992529;stroke-linecap: round;stroke-linejoin: round;stroke-miterlimit: 10.000000;fill: none;"></path>
  <path d="M35.830515 55.024216l0 0" style="stroke:rgb(0.000000%,0.000000%,0.000000%); stroke-width: 1.992529;stroke-linecap: round;stroke-linejoin: round;stroke-miterlimit: 10.000000;fill: none;"></path>
  <path d="M78.390272 50.076796l0 0" style="stroke:rgb(0.000000%,0.000000%,0.000000%); stroke-width: 1.992529;stroke-linecap: round;stroke-linejoin: round;stroke-miterlimit: 10.000000;fill: none;"></path>
  <path d="M39.406504 50.076796l0 0" style="stroke:rgb(0.000000%,0.000000%,0.000000%); stroke-width: 1.992529;stroke-linecap: round;stroke-linejoin: round;stroke-miterlimit: 10.000000;fill: none;"></path>
  <path d="M76.192685 45.129377l0 0" style="stroke:rgb(0.000000%,0.000000%,0.000000%); stroke-width: 1.992529;stroke-linecap: round;stroke-linejoin: round;stroke-miterlimit: 10.000000;fill: none;"></path>
  <path d="M40.871534 45.129377l0 0" style="stroke:rgb(0.000000%,0.000000%,0.000000%); stroke-width: 1.992529;stroke-linecap: round;stroke-linejoin: round;stroke-miterlimit: 10.000000;fill: none;"></path>
  <path d="M73.969303 40.181958l0 0" style="stroke:rgb(0.000000%,0.000000%,0.000000%); stroke-width: 1.992529;stroke-linecap: round;stroke-linejoin: round;stroke-miterlimit: 10.000000;fill: none;"></path>
  <path d="M42.353798 40.181958l0 0" style="stroke:rgb(0.000000%,0.000000%,0.000000%); stroke-width: 1.992529;stroke-linecap: round;stroke-linejoin: round;stroke-miterlimit: 10.000000;fill: none;"></path>
  <path d="M71.722818 35.234539l0 0" style="stroke:rgb(0.000000%,0.000000%,0.000000%); stroke-width: 1.992529;stroke-linecap: round;stroke-linejoin: round;stroke-miterlimit: 10.000000;fill: none;"></path>
  <path d="M43.851455 35.234539l0 0" style="stroke:rgb(0.000000%,0.000000%,0.000000%); stroke-width: 1.992529;stroke-linecap: round;stroke-linejoin: round;stroke-miterlimit: 10.000000;fill: none;"></path>
  <path d="M69.455952 30.287119l0 0" style="stroke:rgb(0.000000%,0.000000%,0.000000%); stroke-width: 1.992529;stroke-linecap: round;stroke-linejoin: round;stroke-miterlimit: 10.000000;fill: none;"></path>
  <path d="M45.362717 30.287119l0 0" style="stroke:rgb(0.000000%,0.000000%,0.000000%); stroke-width: 1.992529;stroke-linecap: round;stroke-linejoin: round;stroke-miterlimit: 10.000000;fill: none;"></path>
  <path d="M57.578308 24.102859l0 0" style="stroke:rgb(0.000000%,0.000000%,0.000000%); stroke-width: 1.992529;stroke-linecap: round;stroke-linejoin: round;stroke-miterlimit: 10.000000;fill: none;"></path>
  <path d="M54.696410 16.681730l0 0" style="stroke:rgb(0.000000%,0.000000%,0.000000%); stroke-width: 1.992529;stroke-linecap: round;stroke-linejoin: round;stroke-miterlimit: 10.000000;fill: none;"></path>
  <path d="M52.421692 24.102859l0 0" style="stroke:rgb(0.000000%,0.000000%,0.000000%); stroke-width: 1.992529;stroke-linecap: round;stroke-linejoin: round;stroke-miterlimit: 10.000000;fill: none;"></path>
  <path d="M55.303590 16.681730l0 0" style="stroke:rgb(0.000000%,0.000000%,0.000000%); stroke-width: 1.992529;stroke-linecap: round;stroke-linejoin: round;stroke-miterlimit: 10.000000;fill: none;"></path>
  <path d="M55.000000 9.260630l0 0" style="stroke:rgb(0.000000%,0.000000%,0.000000%); stroke-width: 1.992529;stroke-linecap: round;stroke-linejoin: round;stroke-miterlimit: 10.000000;fill: none;"></path>
  <path d="M55.000000 333.315659L55.000000 -0.634209" style="stroke:rgb(0.000000%,0.000000%,0.000000%); stroke-width: 0.500000;stroke-linecap: round;stroke-linejoin: round;stroke-miterlimit: 10.000000;fill: none;"></path>
  <path d="M8.721954 305.487212L101.278046 305.487212" style="stroke:rgb(60.000000%,60.000000%,60.000000%); stroke-width: 0.500000;stroke-linecap: round;stroke-linejoin: round;stroke-miterlimit: 10.000000;fill: none;"></path>
  <path d="M3.578604 277.658141L106.421396 277.658141" style="stroke:rgb(60.000000%,60.000000%,60.000000%); stroke-width: 0.500000;stroke-linecap: round;stroke-linejoin: round;stroke-miterlimit: 10.000000;fill: none;"></path>
  <path d="M0.411342 249.829071L109.588658 249.829071" style="stroke:rgb(60.000000%,60.000000%,60.000000%); stroke-width: 0.500000;stroke-linecap: round;stroke-linejoin: round;stroke-miterlimit: 10.000000;fill: none;"></path>
  <path d="M-0.658113 222.000028L110.658113 222.000028" style="stroke:rgb(60.000000%,60.000000%,60.000000%); stroke-width: 0.500000;stroke-linecap: round;stroke-linejoin: round;stroke-miterlimit: 10.000000;fill: none;"></path>
  <path d="M0.411342 194.170958L109.588658 194.170958" style="stroke:rgb(60.000000%,60.000000%,60.000000%); stroke-width: 0.500000;stroke-linecap: round;stroke-linejoin: round;stroke-miterlimit: 10.000000;fill: none;"></path>
  <path d="M3.578604 166.341887L106.421396 166.341887" style="stroke:rgb(60.000000%,60.000000%,60.000000%); stroke-width: 0.500000;stroke-linecap: round;stroke-linejoin: round;stroke-miterlimit: 10.000000;fill: none;"></path>
  <path d="M8.721954 138.512817L101.278046 138.512817" style="stroke:rgb(60.000000%,60.000000%,60.000000%); stroke-width: 0.500000;stroke-linecap: round;stroke-linejoin: round;stroke-miterlimit: 10.000000;fill: none;"></path>
  <path d="M15.643760 110.683746L94.356240 110.683746" style="stroke:rgb(60.000000%,60.000000%,60.000000%); stroke-width: 0.500000;stroke-linecap: round;stroke-linejoin: round;stroke-miterlimit: 10.000000;fill: none;"></path>
  <path d="M24.077992 82.854704L85.922008 82.854704" style="stroke:rgb(60.000000%,60.000000%,60.000000%); stroke-width: 0.500000;stroke-linecap: round;stroke-linejoin: round;stroke-miterlimit: 10.000000;fill: none;"></path>
  <path d="M33.700563 55.025633L76.299437 55.025633" style="stroke:rgb(60.000000%,60.000000%,60.000000%); stroke-width: 0.500000;stroke-linecap: round;stroke-linejoin: round;stroke-miterlimit: 10.000000;fill: none;"></path>
  <path d="M44.141637 27.196591L65.858363 27.196591" style="stroke:rgb(60.000000%,60.000000%,60.000000%); stroke-width: 0.500000;stroke-linecap: round;stroke-linejoin: round;stroke-miterlimit: 10.000000;fill: none;"></path>
  <path d="M55.000000 -0.632480L55.000000 -0.632480" style="stroke:rgb(60.000000%,60.000000%,60.000000%); stroke-width: 0.500000;stroke-linecap: round;stroke-linejoin: round;stroke-miterlimit: 10.000000;fill: none;"></path>
</svg>
