<?xml version="1.0"?>
<!-- Created by MetaPost 2.00 on 2021.10.26:0918 -->
<svg version="1.1" xmlns="http://www.w3.org/2000/svg" xmlns:xlink="http://www.w3.org/1999/xlink" width="566.929000" height="566.929000" viewBox="0 0 566.929000 566.929000">
<!-- Original BoundingBox: -283.464500 -283.464500 283.464500 283.464500 -->
  <path d="M-0.464500 566.464500L566.464500 566.464500L566.464500 -0.464500L-0.464500 -0.464500Z" style="fill: rgb(100.000000%,100.000000%,100.000000%);stroke: none;"></path>
  <path d="M243.643760 394.315659L322.356240 394.315659" style="stroke:rgb(0.000000%,0.000000%,0.000000%); stroke-width: 0.500000;stroke-linecap: round;stroke-linejoin: round;stroke-miterlimit: 10.000000;fill: none;"></path>
  <path d="M243.643760 394.315659L243.472406 393.697253L243.301817 393.078818L243.131965 392.460384L242.962907 391.841977L242.794586 391.223543L242.627030 390.605108L242.460239 389.986674L242.294214 389.368268L242.128983 388.749833L241.964517 388.131399L241.800844 387.512964L241.637966 386.894558L241.475852 386.276124L241.314533 385.657689L241.154007 385.039283L240.994274 384.420848L240.835364 383.802414L240.677219 383.183979L240.519925 382.565573L240.363396 381.947139L240.207717 381.328704L240.052832 380.710270L239.898741 380.091864L239.745528 379.473429L239.593081 378.854995L239.441484 378.236560L239.290738 377.618154L239.140785 376.999720L238.991711 376.381285L238.843431 375.762879L238.696029 375.144444L238.549450 374.526010L238.403721 373.907575L238.258842 373.289169L238.114814 372.670735L237.971636 372.052300L237.829308 371.433866L237.687860 370.815460L237.547261 370.197025L237.407541 369.578591L237.268672 368.960184L237.130682 368.341750L236.993570 367.723315L236.857309 367.104881L236.721954 366.486475L236.587479 365.868040L236.453882 365.249606L236.321164 364.631171L236.189353 364.012765L236.058421 363.394331L235.928367 362.775896L235.799221 362.157462L235.670981 361.539055L235.543649 360.920621L235.417195 360.302186L235.291677 359.683780L235.167038 359.065346L235.043334 358.446911L234.920537 357.828477L234.798648 357.210071L234.677693 356.591636L234.557646 355.973202L234.438506 355.354767L234.320301 354.736361L234.203032 354.117927L234.086698 353.499492L233.971271 352.881086L233.856808 352.262651L233.743253 351.644217L233.630632 351.025782L233.518975 350.407376L233.408254 349.788942L233.298468 349.170507L233.189618 348.552073L233.081731 347.933667L232.974809 347.315232L232.868821 346.696798L232.763798 346.078391L232.659738 345.459957L232.556613 344.841522L232.454453 344.223088L232.353256 343.604682L232.253023 342.986247L232.153782 342.367813L232.055477 341.749378L231.958163 341.130972L231.861814 340.512538L231.766428 339.894103L231.672034 339.275697L231.578604 338.657262L231.486138 338.038828L231.394692 337.420422L231.304211 336.801987L231.214693 336.183581L231.126195 335.565147L231.038661 334.946712L230.952119 334.328306L230.866570 333.709871L230.782041 333.091437L230.698475 332.473031L230.615902 331.854596L230.534349 331.236190L230.453760 330.617756L230.374220 329.999321L230.295644 329.380915L230.218088 328.762481L230.141524 328.144074L230.065981 327.525640L229.991430 326.907205L229.917899 326.288799L229.845389 325.670365L229.773871 325.051959L229.703373 324.433524L229.633896 323.815090L229.565411 323.196683L229.497975 322.578249L229.431559 321.959814L229.366135 321.341408L229.301761 320.722974L229.238378 320.104568L229.176044 319.486133L229.114702 318.867699L229.054438 318.249292L228.995166 317.630858L228.936914 317.012452L228.879710 316.394017L228.823528 315.775583L228.768394 315.157177L228.714281 314.538742L228.661188 313.920336L228.609144 313.301902L228.558148 312.683467L228.508173 312.065061L228.459219 311.446626L228.411342 310.828192L228.364485 310.209786L228.318649 309.591351L228.273890 308.972945L228.230152 308.354511L228.187433 307.736076L228.145792 307.117670L228.105200 306.499235L228.065629 305.880829L228.027106 305.262395L227.989660 304.643960L227.953235 304.025554L227.917859 303.407120L227.883531 302.788713L227.850252 302.170279L227.818051 301.551844L227.786870 300.933438L227.756737 300.315004L227.727682 299.696569L227.699648 299.078163L227.672690 298.459729L227.646782 297.841322L227.621922 297.222888L227.598111 296.604453L227.575377 295.986047L227.553663 295.367613L227.533027 294.749207L227.513440 294.130772L227.494930 293.512338L227.477440 292.893932L227.461056 292.275497L227.445692 291.657091L227.431377 291.038656L227.418167 290.420222L227.405978 289.801816L227.394838 289.183381L227.384775 288.564947L227.375790 287.946541L227.367824 287.328106L227.360936 286.709700L227.355125 286.091265L227.350363 285.472831L227.346649 284.854425L227.343985 284.235990L227.342397 283.617584L227.341887 282.999150L227.342397 282.380715L227.343985 281.762309L227.346649 281.143874L227.350363 280.525440L227.355125 279.907034L227.360936 279.288599L227.367824 278.670193L227.375790 278.051759L227.384775 277.433324L227.394838 276.814918L227.405978 276.196483L227.418167 275.578077L227.431377 274.959643L227.445692 274.341208L227.461056 273.722802L227.477440 273.104368L227.494930 272.485933L227.513440 271.867527L227.533027 271.249093L227.553663 270.630686L227.575377 270.012252L227.598111 269.393817L227.621922 268.775411L227.646782 268.156977L227.672690 267.538571L227.699648 266.920136L227.727682 266.301702L227.756737 265.683295L227.786870 265.064861L227.818051 264.446455L227.850252 263.828020L227.883531 263.209586L227.917859 262.591180L227.953235 261.972745L227.989660 261.354311L228.027106 260.735904L228.065629 260.117470L228.105200 259.499064L228.145792 258.880629L228.187433 258.262195L228.230152 257.643789L228.273890 257.025354L228.318649 256.406948L228.364485 255.788514L228.411342 255.170079L228.459219 254.551673L228.508173 253.933238L228.558148 253.314804L228.609144 252.696398L228.661188 252.077963L228.714281 251.459557L228.768394 250.841123L228.823528 250.222688L228.879710 249.604282L228.936914 248.985847L228.995166 248.367441L229.054438 247.749007L229.114702 247.130572L229.176044 246.512166L229.238378 245.893732L229.301761 245.275325L229.366135 244.656891L229.431559 244.038456L229.497975 243.420050L229.565411 242.801616L229.633896 242.183181L229.703373 241.564775L229.773871 240.946341L229.845389 240.327934L229.917899 239.709500L229.991430 239.091065L230.065981 238.472659L230.141524 237.854225L230.218088 237.235819L230.295644 236.617384L230.374220 235.998950L230.453760 235.380544L230.534349 234.762109L230.615902 234.143703L230.698475 233.525268L230.782041 232.906834L230.866570 232.288428L230.952119 231.669993L231.038661 231.051559L231.126195 230.433153L231.214693 229.814718L231.304211 229.196312L231.394692 228.577877L231.486138 227.959443L231.578604 227.341037L231.672034 226.722602L231.766428 226.104168L231.861814 225.485762L231.958163 224.867327L232.055477 224.248893L232.153782 223.630486L232.253023 223.012052L232.353256 222.393617L232.454453 221.775183L232.556613 221.156777L232.659738 220.538342L232.763798 219.919908L232.868821 219.301473L232.974809 218.683067L233.081731 218.064633L233.189618 217.446198L233.298468 216.827792L233.408254 216.209358L233.518975 215.590923L233.630632 214.972489L233.743253 214.354082L233.856808 213.735648L233.971271 213.117213L234.086698 212.498779L234.203032 211.880373L234.320301 211.261938L234.438506 210.643504L234.557646 210.025069L234.677693 209.406663L234.798648 208.788229L234.920537 208.169794L235.043334 207.551388L235.167038 206.932953L235.291677 206.314519L235.417195 205.696084L235.543649 205.077678L235.670981 204.459244L235.799221 203.840809L235.928367 203.222375L236.058421 202.603969L236.189353 201.985534L236.321164 201.367100L236.453882 200.748693L236.587479 200.130259L236.721954 199.511824L236.857309 198.893390L236.993570 198.274984L237.130682 197.656549L237.268672 197.038115L237.407541 196.419680L237.547261 195.801274L237.687860 195.182840L237.829308 194.564405L237.971636 193.945971L238.114814 193.327564L238.258842 192.709130L238.403721 192.090695L238.549450 191.472289L238.696029 190.853855L238.843431 190.235420L238.991711 189.616986L239.140785 188.998580L239.290738 188.380145L239.441484 187.761711L239.593081 187.143276L239.745528 186.524870L239.898741 185.906436L240.052832 185.288001L240.207717 184.669595L240.363396 184.051160L240.519925 183.432726L240.677219 182.814291L240.835364 182.195885L240.994274 181.577451L241.154007 180.959016L241.314533 180.340582L241.475852 179.722176L241.637966 179.103741L241.800844 178.485307L241.964517 177.866900L242.128983 177.248466L242.294214 176.630031L242.460239 176.011597L242.627030 175.393191L242.794586 174.774756L242.962907 174.156322L243.131965 173.537887L243.301817 172.919481L243.472406 172.301047L243.643760 171.682612L243.815852 171.064178L243.988708 170.445771L244.162302 169.827337L244.336633 169.208931L244.511672 168.590496L244.687477 167.972062L244.863990 167.353627L245.041240 166.735221L245.219228 166.116787L245.397924 165.498352L245.577329 164.879918L245.757442 164.261512L245.938264 163.643077L246.119823 163.024643L246.302034 162.406208L246.484982 161.787802L246.668610 161.169367L246.852947 160.550933L247.037964 159.932527L247.223634 159.314092L247.410012 158.695658L247.597070 158.077223L247.784808 157.458817L247.973199 156.840383L248.162270 156.221948L248.351992 155.603514L248.542396 154.985107L248.733451 154.366673L248.925129 153.748238L249.117488 153.129832L249.310471 152.511398L249.504106 151.892963L249.698364 151.274529L249.893274 150.656123L250.088808 150.037688L250.284965 149.419254L250.481746 148.800819L250.679179 148.182413L250.877179 147.563978L251.075803 146.945544L251.275050 146.327109L251.474892 145.708703L251.675330 145.090269L251.876363 144.471834L252.077992 143.853428L252.280215 143.234994L252.483034 142.616559L252.686420 141.998125L252.890372 141.379718L253.094920 140.761284L253.300007 140.142849L253.505689 139.524415L253.711909 138.906009L253.918725 138.287574L254.126051 137.669140L254.333944 137.050734L254.542375 136.432299L254.751374 135.813865L254.960882 135.195430L255.170929 134.577024L255.381515 133.958590L255.592640 133.340155L255.804274 132.721721L256.016419 132.103314L256.229074 131.484880L256.442239 130.866445L256.655915 130.248011L256.870101 129.629605L257.084768 129.011170L257.299946 128.392736L257.515606 127.774330L257.731748 127.155895L257.948371 126.537461L258.165477 125.919026L258.383036 125.300620L258.601077 124.682185L258.819599 124.063751L259.038576 123.445316L259.257977 122.826910L259.477861 122.208476L259.698169 121.590041L259.918960 120.971635L260.140147 120.353201L260.361816 119.734766L260.583882 119.116332L260.806374 118.497925L261.029290 117.879491L261.252632 117.261056L261.476399 116.642622L261.700563 116.024216L261.925123 115.405781L262.150109 114.787347L262.375463 114.168941L262.601243 113.550506L262.827391 112.932072L263.053907 112.313637L263.280820 111.695231L263.508131 111.076796L263.735781 110.458362L263.963800 109.839927L264.192187 109.221521L264.420943 108.603087L264.650039 107.984652L264.879475 107.366218L265.109280 106.747812L265.339425 106.129377L265.569881 105.510943L265.800706 104.892537L266.031815 104.274102L266.263292 103.655668L266.495053 103.037233L266.727153 102.418827L266.959538 101.800392L267.192234 101.181958L267.425241 100.563523L267.658533 99.945117L267.892136 99.326683L268.126022 98.708248L268.360164 98.089842L268.594618 97.471408L268.829326 96.852973L269.064318 96.234539L269.299565 95.616132L269.535068 94.997698L269.770854 94.379263L270.006866 93.760829L270.243134 93.142423L270.479656 92.523988L270.716406 91.905554L270.953382 91.287119L271.190585 90.668713L271.428015 90.050279L271.665672 89.431844L271.903555 88.813438L272.141637 88.195003L272.379946 87.576569L272.618424 86.958134L272.857102 86.339728L273.096005 85.721294L273.335079 85.102859L273.574323 84.484425L273.813766 83.866019L274.053378 83.247584L274.293161 82.629150L274.533114 82.010744L274.773208 81.392309L275.013473 80.773875L275.253879 80.155440L275.494455 79.537034L275.735173 78.918599L275.976005 78.300165L276.216978 77.681730L276.458093 77.063324L276.699321 76.444890L276.940691 75.826455L277.182146 75.208021L277.423715 74.589615L277.665397 73.971180L277.907192 73.352746L278.149072 72.734339L278.391066 72.115905L278.633116 71.497470L278.875251 70.879036L279.117500 70.260630L279.359777 69.642195L279.602168 69.023761L279.844587 68.405326L280.087090 67.786920L280.329623 67.168486L280.572240 66.550051L280.814886 65.931645L281.057560 65.313210L281.300290 64.694776L281.543049 64.076341L281.785837 63.457935L282.028624 62.839501L282.271468 62.221066L282.514312 61.602632L282.757156 60.984226L283.000000 60.365791" style="stroke:rgb(0.000000%,0.000000%,0.000000%); stroke-width: 0.500000;stroke-linecap: round;stroke-linejoin: round;stroke-miterlimit: 10.000000;fill: none;"></path>
  <path d="M322.356240 394.315659L322.527594 393.697253L322.698183 393.078818L322.868035 392.460384L323.037093 391.841977L323.205414 391.223543L323.372970 390.605108L323.539761 389.986674L323.705786 389.368268L323.871017 388.749833L324.035483 388.131399L324.199156 387.512964L324.362034 386.894558L324.524148 386.276124L324.685467 385.657689L324.845993 385.039283L325.005726 384.420848L325.164636 383.802414L325.322781 383.183979L325.480075 382.565573L325.636604 381.947139L325.792283 381.328704L325.947168 380.710270L326.101259 380.091864L326.254472 379.473429L326.406919 378.854995L326.558516 378.236560L326.709262 377.618154L326.859215 376.999720L327.008289 376.381285L327.156569 375.762879L327.303971 375.144444L327.450550 374.526010L327.596279 373.907575L327.741158 373.289169L327.885186 372.670735L328.028364 372.052300L328.170692 371.433866L328.312140 370.815460L328.452739 370.197025L328.592459 369.578591L328.731328 368.960184L328.869318 368.341750L329.006430 367.723315L329.142691 367.104881L329.278046 366.486475L329.412521 365.868040L329.546118 365.249606L329.678836 364.631171L329.810647 364.012765L329.941579 363.394331L330.071633 362.775896L330.200779 362.157462L330.329019 361.539055L330.456351 360.920621L330.582805 360.302186L330.708323 359.683780L330.832962 359.065346L330.956666 358.446911L331.079463 357.828477L331.201352 357.210071L331.322307 356.591636L331.442354 355.973202L331.561494 355.354767L331.679699 354.736361L331.796968 354.117927L331.913302 353.499492L332.028729 352.881086L332.143192 352.262651L332.256747 351.644217L332.369368 351.025782L332.481025 350.407376L332.591746 349.788942L332.701532 349.170507L332.810382 348.552073L332.918269 347.933667L333.025191 347.315232L333.131179 346.696798L333.236202 346.078391L333.340262 345.459957L333.443387 344.841522L333.545547 344.223088L333.646744 343.604682L333.746977 342.986247L333.846218 342.367813L333.944523 341.749378L334.041837 341.130972L334.138186 340.512538L334.233572 339.894103L334.327966 339.275697L334.421396 338.657262L334.513862 338.038828L334.605308 337.420422L334.695789 336.801987L334.785307 336.183581L334.873805 335.565147L334.961339 334.946712L335.047881 334.328306L335.133430 333.709871L335.217959 333.091437L335.301525 332.473031L335.384098 331.854596L335.465651 331.236190L335.546240 330.617756L335.625780 329.999321L335.704356 329.380915L335.781912 328.762481L335.858476 328.144074L335.934019 327.525640L336.008570 326.907205L336.082101 326.288799L336.154611 325.670365L336.226129 325.051959L336.296627 324.433524L336.366104 323.815090L336.434589 323.196683L336.502025 322.578249L336.568441 321.959814L336.633865 321.341408L336.698239 320.722974L336.761622 320.104568L336.823956 319.486133L336.885298 318.867699L336.945562 318.249292L337.004834 317.630858L337.063086 317.012452L337.120290 316.394017L337.176472 315.775583L337.231606 315.157177L337.285719 314.538742L337.338812 313.920336L337.390856 313.301902L337.441852 312.683467L337.491827 312.065061L337.540781 311.446626L337.588658 310.828192L337.635515 310.209786L337.681351 309.591351L337.726110 308.972945L337.769848 308.354511L337.812567 307.736076L337.854208 307.117670L337.894800 306.499235L337.934371 305.880829L337.972894 305.262395L338.010340 304.643960L338.046765 304.025554L338.082141 303.407120L338.116469 302.788713L338.149748 302.170279L338.181949 301.551844L338.213130 300.933438L338.243263 300.315004L338.272318 299.696569L338.300352 299.078163L338.327310 298.459729L338.353218 297.841322L338.378078 297.222888L338.401889 296.604453L338.424623 295.986047L338.446337 295.367613L338.466973 294.749207L338.486560 294.130772L338.505070 293.512338L338.522560 292.893932L338.538944 292.275497L338.554308 291.657091L338.568623 291.038656L338.581833 290.420222L338.594022 289.801816L338.605162 289.183381L338.615225 288.564947L338.624210 287.946541L338.632176 287.328106L338.639064 286.709700L338.644875 286.091265L338.649637 285.472831L338.653351 284.854425L338.656015 284.235990L338.657603 283.617584L338.658113 282.999150L338.657603 282.380715L338.656015 281.762309L338.653351 281.143874L338.649637 280.525440L338.644875 279.907034L338.639064 279.288599L338.632176 278.670193L338.624210 278.051759L338.615225 277.433324L338.605162 276.814918L338.594022 276.196483L338.581833 275.578077L338.568623 274.959643L338.554308 274.341208L338.538944 273.722802L338.522560 273.104368L338.505070 272.485933L338.486560 271.867527L338.466973 271.249093L338.446337 270.630686L338.424623 270.012252L338.401889 269.393817L338.378078 268.775411L338.353218 268.156977L338.327310 267.538571L338.300352 266.920136L338.272318 266.301702L338.243263 265.683295L338.213130 265.064861L338.181949 264.446455L338.149748 263.828020L338.116469 263.209586L338.082141 262.591180L338.046765 261.972745L338.010340 261.354311L337.972894 260.735904L337.934371 260.117470L337.894800 259.499064L337.854208 258.880629L337.812567 258.262195L337.769848 257.643789L337.726110 257.025354L337.681351 256.406948L337.635515 255.788514L337.588658 255.170079L337.540781 254.551673L337.491827 253.933238L337.441852 253.314804L337.390856 252.696398L337.338812 252.077963L337.285719 251.459557L337.231606 250.841123L337.176472 250.222688L337.120290 249.604282L337.063086 248.985847L337.004834 248.367441L336.945562 247.749007L336.885298 247.130572L336.823956 246.512166L336.761622 245.893732L336.698239 245.275325L336.633865 244.656891L336.568441 244.038456L336.502025 243.420050L336.434589 242.801616L336.366104 242.183181L336.296627 241.564775L336.226129 240.946341L336.154611 240.327934L336.082101 239.709500L336.008570 239.091065L335.934019 238.472659L335.858476 237.854225L335.781912 237.235819L335.704356 236.617384L335.625780 235.998950L335.546240 235.380544L335.465651 234.762109L335.384098 234.143703L335.301525 233.525268L335.217959 232.906834L335.133430 232.288428L335.047881 231.669993L334.961339 231.051559L334.873805 230.433153L334.785307 229.814718L334.695789 229.196312L334.605308 228.577877L334.513862 227.959443L334.421396 227.341037L334.327966 226.722602L334.233572 226.104168L334.138186 225.485762L334.041837 224.867327L333.944523 224.248893L333.846218 223.630486L333.746977 223.012052L333.646744 222.393617L333.545547 221.775183L333.443387 221.156777L333.340262 220.538342L333.236202 219.919908L333.131179 219.301473L333.025191 218.683067L332.918269 218.064633L332.810382 217.446198L332.701532 216.827792L332.591746 216.209358L332.481025 215.590923L332.369368 214.972489L332.256747 214.354082L332.143192 213.735648L332.028729 213.117213L331.913302 212.498779L331.796968 211.880373L331.679699 211.261938L331.561494 210.643504L331.442354 210.025069L331.322307 209.406663L331.201352 208.788229L331.079463 208.169794L330.956666 207.551388L330.832962 206.932953L330.708323 206.314519L330.582805 205.696084L330.456351 205.077678L330.329019 204.459244L330.200779 203.840809L330.071633 203.222375L329.941579 202.603969L329.810647 201.985534L329.678836 201.367100L329.546118 200.748693L329.412521 200.130259L329.278046 199.511824L329.142691 198.893390L329.006430 198.274984L328.869318 197.656549L328.731328 197.038115L328.592459 196.419680L328.452739 195.801274L328.312140 195.182840L328.170692 194.564405L328.028364 193.945971L327.885186 193.327564L327.741158 192.709130L327.596279 192.090695L327.450550 191.472289L327.303971 190.853855L327.156569 190.235420L327.008289 189.616986L326.859215 188.998580L326.709262 188.380145L326.558516 187.761711L326.406919 187.143276L326.254472 186.524870L326.101259 185.906436L325.947168 185.288001L325.792283 184.669595L325.636604 184.051160L325.480075 183.432726L325.322781 182.814291L325.164636 182.195885L325.005726 181.577451L324.845993 180.959016L324.685467 180.340582L324.524148 179.722176L324.362034 179.103741L324.199156 178.485307L324.035483 177.866900L323.871017 177.248466L323.705786 176.630031L323.539761 176.011597L323.372970 175.393191L323.205414 174.774756L323.037093 174.156322L322.868035 173.537887L322.698183 172.919481L322.527594 172.301047L322.356240 171.682612L322.184148 171.064178L322.011292 170.445771L321.837698 169.827337L321.663367 169.208931L321.488328 168.590496L321.312523 167.972062L321.136010 167.353627L320.958760 166.735221L320.780772 166.116787L320.602076 165.498352L320.422671 164.879918L320.242558 164.261512L320.061736 163.643077L319.880177 163.024643L319.697966 162.406208L319.515018 161.787802L319.331390 161.169367L319.147053 160.550933L318.962036 159.932527L318.776366 159.314092L318.589988 158.695658L318.402930 158.077223L318.215192 157.458817L318.026801 156.840383L317.837730 156.221948L317.648008 155.603514L317.457604 154.985107L317.266549 154.366673L317.074871 153.748238L316.882512 153.129832L316.689529 152.511398L316.495894 151.892963L316.301636 151.274529L316.106726 150.656123L315.911192 150.037688L315.715035 149.419254L315.518254 148.800819L315.320821 148.182413L315.122821 147.563978L314.924197 146.945544L314.724950 146.327109L314.525108 145.708703L314.324670 145.090269L314.123637 144.471834L313.922008 143.853428L313.719785 143.234994L313.516966 142.616559L313.313580 141.998125L313.109628 141.379718L312.905080 140.761284L312.699993 140.142849L312.494311 139.524415L312.288091 138.906009L312.081275 138.287574L311.873949 137.669140L311.666056 137.050734L311.457625 136.432299L311.248626 135.813865L311.039118 135.195430L310.829071 134.577024L310.618485 133.958590L310.407360 133.340155L310.195726 132.721721L309.983581 132.103314L309.770926 131.484880L309.557761 130.866445L309.344085 130.248011L309.129899 129.629605L308.915232 129.011170L308.700054 128.392736L308.484394 127.774330L308.268252 127.155895L308.051629 126.537461L307.834523 125.919026L307.616964 125.300620L307.398923 124.682185L307.180401 124.063751L306.961424 123.445316L306.742023 122.826910L306.522139 122.208476L306.301831 121.590041L306.081040 120.971635L305.859853 120.353201L305.638184 119.734766L305.416118 119.116332L305.193626 118.497925L304.970710 117.879491L304.747368 117.261056L304.523601 116.642622L304.299437 116.024216L304.074877 115.405781L303.849891 114.787347L303.624537 114.168941L303.398757 113.550506L303.172609 112.932072L302.946093 112.313637L302.719180 111.695231L302.491869 111.076796L302.264219 110.458362L302.036200 109.839927L301.807813 109.221521L301.579057 108.603087L301.349961 107.984652L301.120525 107.366218L300.890720 106.747812L300.660575 106.129377L300.430119 105.510943L300.199294 104.892537L299.968185 104.274102L299.736708 103.655668L299.504947 103.037233L299.272847 102.418827L299.040462 101.800392L298.807766 101.181958L298.574759 100.563523L298.341467 99.945117L298.107864 99.326683L297.873978 98.708248L297.639836 98.089842L297.405382 97.471408L297.170674 96.852973L296.935682 96.234539L296.700435 95.616132L296.464932 94.997698L296.229146 94.379263L295.993134 93.760829L295.756866 93.142423L295.520344 92.523988L295.283594 91.905554L295.046618 91.287119L294.809415 90.668713L294.571985 90.050279L294.334328 89.431844L294.096445 88.813438L293.858363 88.195003L293.620054 87.576569L293.381576 86.958134L293.142898 86.339728L292.903995 85.721294L292.664921 85.102859L292.425677 84.484425L292.186234 83.866019L291.946622 83.247584L291.706839 82.629150L291.466886 82.010744L291.226792 81.392309L290.986527 80.773875L290.746121 80.155440L290.505545 79.537034L290.264827 78.918599L290.023995 78.300165L289.783022 77.681730L289.541907 77.063324L289.300679 76.444890L289.059309 75.826455L288.817854 75.208021L288.576285 74.589615L288.334603 73.971180L288.092808 73.352746L287.850928 72.734339L287.608934 72.115905L287.366884 71.497470L287.124749 70.879036L286.882500 70.260630L286.640223 69.642195L286.397832 69.023761L286.155413 68.405326L285.912910 67.786920L285.670377 67.168486L285.427760 66.550051L285.185114 65.931645L284.942440 65.313210L284.699710 64.694776L284.456951 64.076341L284.214163 63.457935L283.971376 62.839501L283.728532 62.221066L283.485688 61.602632L283.242844 60.984226L283.000000 60.365791" style="stroke:rgb(0.000000%,0.000000%,0.000000%); stroke-width: 0.500000;stroke-linecap: round;stroke-linejoin: round;stroke-miterlimit: 10.000000;fill: none;"></path>
  <path d="M330.227482 394.315659L330.433107 393.697253L330.637825 393.078818L330.841636 392.460384L331.044511 391.841977L331.246508 391.223543L331.447570 390.605108L331.647724 389.986674L331.846943 389.368268L332.045226 388.749833L332.242574 388.131399L332.438987 387.512964L332.634464 386.894558L332.828977 386.276124L333.022555 385.657689L333.215198 385.039283L333.406876 384.420848L333.597563 383.802414L333.787314 383.183979L333.976101 382.565573L334.163925 381.947139L334.350756 381.328704L334.536624 380.710270L334.721500 380.091864L334.905383 379.473429L335.088303 378.854995L335.270202 378.236560L335.451109 377.618154L335.631052 376.999720L335.809975 376.381285L335.987877 375.762879L336.164787 375.144444L336.340677 374.526010L336.515546 373.907575L336.689395 373.289169L336.862224 372.670735L337.034031 372.052300L337.204819 371.433866L337.374586 370.815460L337.543275 370.197025L337.710973 369.578591L337.877593 368.960184L338.043193 368.341750L338.207716 367.723315L338.371218 367.104881L338.533644 366.486475L338.695020 365.868040L338.855347 365.249606L339.014598 364.631171L339.172799 364.012765L339.329895 363.394331L339.485943 362.775896L339.640913 362.157462L339.794805 361.539055L339.947621 360.920621L340.099360 360.302186L340.249993 359.683780L340.399549 359.065346L340.547999 358.446911L340.695344 357.828477L340.841612 357.210071L340.986774 356.591636L341.130830 355.973202L341.273782 355.354767L341.415627 354.736361L341.556367 354.117927L341.695974 353.499492L341.834474 352.881086L341.971841 352.262651L342.108103 351.644217L342.243230 351.025782L342.377224 350.407376L342.510112 349.788942L342.641838 349.170507L342.772430 348.552073L342.901917 347.933667L343.030213 347.315232L343.157403 346.696798L343.283460 346.078391L343.408326 345.459957L343.532058 344.841522L343.654657 344.223088L343.776093 343.604682L343.896367 342.986247L344.015479 342.367813L344.133428 341.749378L344.250215 341.130972L344.365841 340.512538L344.480304 339.894103L344.593576 339.275697L344.705686 338.657262L344.816606 338.038828L344.926392 337.420422L345.034959 336.801987L345.142363 336.183581L345.248577 335.565147L345.353601 334.946712L345.457462 334.328306L345.560105 333.709871L345.661557 333.091437L345.761847 332.473031L345.860917 331.854596L345.958798 331.236190L346.055487 330.617756L346.150958 329.999321L346.245239 329.380915L346.338300 328.762481L346.430171 328.144074L346.520823 327.525640L346.610284 326.907205L346.698527 326.288799L346.785550 325.670365L346.871355 325.051959L346.955941 324.433524L347.039336 323.815090L347.121484 323.196683L347.202442 322.578249L347.282152 321.959814L347.360643 321.341408L347.437915 320.722974L347.513941 320.104568L347.588747 319.486133L347.662334 318.867699L347.734703 318.249292L347.805824 317.630858L347.875698 317.012452L347.944353 316.394017L348.011761 315.775583L348.077922 315.157177L348.142863 314.538742L348.206558 313.920336L348.269033 313.301902L348.330233 312.683467L348.390214 312.065061L348.448920 311.446626L348.506407 310.828192L348.562646 310.209786L348.617610 309.591351L348.671355 308.972945L348.723824 308.354511L348.775074 307.736076L348.825049 307.117670L348.873777 306.499235L348.921229 305.880829L348.967462 305.262395L349.012419 304.643960L349.056129 304.025554L349.098564 303.407120L349.139751 302.788713L349.179691 302.170279L349.218356 301.551844L349.255773 300.933438L349.291915 300.315004L349.326810 299.696569L349.360428 299.078163L349.392772 298.459729L349.423868 297.841322L349.453717 297.222888L349.482261 296.604453L349.509559 295.986047L349.535609 295.367613L349.560356 294.749207L349.583855 294.130772L349.606079 293.512338L349.627055 292.893932L349.646756 292.275497L349.665181 291.657091L349.682331 291.038656L349.698205 290.420222L349.712831 289.801816L349.726183 289.183381L349.738258 288.564947L349.749058 287.946541L349.758611 287.328106L349.766860 286.709700L349.773861 286.091265L349.779587 285.472831L349.784038 284.854425L349.787213 284.235990L349.789112 283.617584L349.789735 282.999150L349.789112 282.380715L349.787213 281.762309L349.784038 281.143874L349.779587 280.525440L349.773861 279.907034L349.766860 279.288599L349.758611 278.670193L349.749058 278.051759L349.738258 277.433324L349.726183 276.814918L349.712831 276.196483L349.698205 275.578077L349.682331 274.959643L349.665181 274.341208L349.646756 273.722802L349.627055 273.104368L349.606079 272.485933L349.583855 271.867527L349.560356 271.249093L349.535609 270.630686L349.509559 270.012252L349.482261 269.393817L349.453717 268.775411L349.423868 268.156977L349.392772 267.538571L349.360428 266.920136L349.326810 266.301702L349.291915 265.683295L349.255773 265.064861L349.218356 264.446455L349.179691 263.828020L349.139751 263.209586L349.098564 262.591180L349.056129 261.972745L349.012419 261.354311L348.967462 260.735904L348.921229 260.117470L348.873777 259.499064L348.825049 258.880629L348.775074 258.262195L348.723824 257.643789L348.671355 257.025354L348.617610 256.406948L348.562646 255.788514L348.506407 255.170079L348.448920 254.551673L348.390214 253.933238L348.330233 253.314804L348.269033 252.696398L348.206558 252.077963L348.142863 251.459557L348.077922 250.841123L348.011761 250.222688L347.944353 249.604282L347.875698 248.985847L347.805824 248.367441L347.734703 247.749007L347.662334 247.130572L347.588747 246.512166L347.513941 245.893732L347.437915 245.275325L347.360643 244.656891L347.282152 244.038456L347.202442 243.420050L347.121484 242.801616L347.039336 242.183181L346.955941 241.564775L346.871355 240.946341L346.785550 240.327934L346.698527 239.709500L346.610284 239.091065L346.520823 238.472659L346.430171 237.854225L346.338300 237.235819L346.245239 236.617384L346.150958 235.998950L346.055487 235.380544L345.958798 234.762109L345.860917 234.143703L345.761847 233.525268L345.661557 232.906834L345.560105 232.288428L345.457462 231.669993L345.353601 231.051559L345.248577 230.433153L345.142363 229.814718L345.034959 229.196312L344.926392 228.577877L344.816606 227.959443L344.705686 227.341037L344.593576 226.722602L344.480304 226.104168L344.365841 225.485762L344.250215 224.867327L344.133428 224.248893L344.015479 223.630486L343.896367 223.012052L343.776093 222.393617L343.654657 221.775183L343.532058 221.156777L343.408326 220.538342L343.283460 219.919908L343.157403 219.301473L343.030213 218.683067L342.901917 218.064633L342.772430 217.446198L342.641838 216.827792L342.510112 216.209358L342.377224 215.590923L342.243230 214.972489L342.108103 214.354082L341.971841 213.735648L341.834474 213.117213L341.695974 212.498779L341.556367 211.880373L341.415627 211.261938L341.273782 210.643504L341.130830 210.025069L340.986774 209.406663L340.841612 208.788229L340.695344 208.169794L340.547999 207.551388L340.399549 206.932953L340.249993 206.314519L340.099360 205.696084L339.947621 205.077678L339.794805 204.459244L339.640913 203.840809L339.485943 203.222375L339.329895 202.603969L339.172799 201.985534L339.014598 201.367100L338.855347 200.748693L338.695020 200.130259L338.533644 199.511824L338.371218 198.893390L338.207716 198.274984L338.043193 197.656549L337.877593 197.038115L337.710973 196.419680L337.543275 195.801274L337.374586 195.182840L337.204819 194.564405L337.034031 193.945971L336.862224 193.327564L336.689395 192.709130L336.515546 192.090695L336.340677 191.472289L336.164787 190.853855L335.987877 190.235420L335.809975 189.616986L335.631052 188.998580L335.451109 188.380145L335.270202 187.761711L335.088303 187.143276L334.905383 186.524870L334.721500 185.906436L334.536624 185.288001L334.350756 184.669595L334.163925 184.051160L333.976101 183.432726L333.787314 182.814291L333.597563 182.195885L333.406876 181.577451L333.215198 180.959016L333.022555 180.340582L332.828977 179.722176L332.634464 179.103741L332.438987 178.485307L332.242574 177.866900L332.045226 177.248466L331.846943 176.630031L331.647724 176.011597L331.447570 175.393191L331.246508 174.774756L331.044511 174.156322L330.841636 173.537887L330.637825 172.919481L330.433107 172.301047L330.227482 171.682612L330.020978 171.064178L329.813567 170.445771L329.605249 169.827337L329.396052 169.208931L329.185976 168.590496L328.975022 167.972062L328.763189 167.353627L328.550506 166.735221L328.336944 166.116787L328.122503 165.498352L327.907211 164.879918L327.691070 164.261512L327.474078 163.643077L327.256235 163.024643L327.037542 162.406208L326.818027 161.787802L326.597662 161.169367L326.376475 160.550933L326.154465 159.932527L325.931634 159.314092L325.707980 158.695658L325.483505 158.077223L325.258236 157.458817L325.032144 156.840383L324.805259 156.221948L324.577609 155.603514L324.349137 154.985107L324.119871 154.366673L323.889839 153.748238L323.659014 153.129832L323.427424 152.511398L323.195068 151.892963L322.961946 151.274529L322.728060 150.656123L322.493436 150.037688L322.258019 149.419254L322.021893 148.800819L321.785002 148.182413L321.547374 147.563978L321.309008 146.945544L321.069934 146.327109L320.830123 145.708703L320.589604 145.090269L320.348347 144.471834L320.106382 143.853428L319.863736 143.234994L319.620354 142.616559L319.376291 141.998125L319.131547 141.379718L318.886095 140.761284L318.639992 140.142849L318.393179 139.524415L318.145686 138.906009L317.897541 138.287574L317.648745 137.669140L317.399267 137.050734L317.149138 136.432299L316.898357 135.813865L316.646924 135.195430L316.394868 134.577024L316.142187 133.958590L315.888855 133.340155L315.634871 132.721721L315.380320 132.103314L315.125117 131.484880L314.869318 130.866445L314.612896 130.248011L314.355879 129.629605L314.098267 129.011170L313.840087 128.392736L313.581284 127.774330L313.321914 127.155895L313.061949 126.537461L312.801445 125.919026L312.540346 125.300620L312.278708 124.682185L312.016475 124.063751L311.753732 123.445316L311.490422 122.826910L311.226573 122.208476L310.962186 121.590041L310.697260 120.971635L310.431795 120.353201L310.165849 119.734766L309.899364 119.116332L309.632340 118.497925L309.364835 117.879491L309.096819 117.261056L308.828321 116.642622L308.559342 116.024216" style="stroke:rgb(0.000000%,0.000000%,0.000000%); stroke-width: 0.500000;stroke-linecap: round;stroke-linejoin: round;stroke-miterlimit: 10.000000;fill: none;"></path>
  <path d="M312.819218 116.024216L312.504828 115.405781L312.189842 114.787347L311.874346 114.168941L311.558283 113.550506L311.241682 112.932072L310.924513 112.313637L310.606834 111.695231L310.288646 111.076796L309.969918 110.458362L309.650680 109.839927L309.330932 109.221521L309.010674 108.603087L308.689934 107.984652L308.368712 107.366218L308.047008 106.747812L307.724823 106.129377L307.402155 105.510943L307.079034 104.892537L306.755431 104.274102L306.431402 103.655668L306.106921 103.037233L305.782014 102.418827L305.456653 101.800392L305.130867 101.181958L304.804656 100.563523L304.478048 99.945117L304.151015 99.326683L303.823586 98.708248L303.495759 98.089842L303.167535 97.471408L302.838915 96.852973L302.509954 96.234539L302.180597 95.616132L301.850899 94.997698L301.520805 94.379263L301.190371 93.760829L300.859596 93.142423L300.528481 92.523988L300.197054 91.905554L299.865259 91.287119L299.533180 90.668713L299.200762 90.050279L298.868031 89.431844L298.535017 88.813438L298.201691 88.195003" style="stroke:rgb(0.000000%,0.000000%,0.000000%); stroke-width: 0.500000;stroke-linecap: round;stroke-linejoin: round;stroke-miterlimit: 10.000000;fill: none;"></path>
  <path d="M304.299437 116.024216L312.819218 116.024216" style="stroke:rgb(0.000000%,0.000000%,0.000000%); stroke-width: 0.500000;stroke-linecap: round;stroke-linejoin: round;stroke-miterlimit: 10.000000;fill: none;"></path>
  <path d="M293.858363 88.195003L298.201691 88.195003" style="stroke:rgb(0.000000%,0.000000%,0.000000%); stroke-width: 0.500000;stroke-linecap: round;stroke-linejoin: round;stroke-miterlimit: 10.000000;fill: none;"></path>
  <path d="M322.356240 394.316254L330.227482 394.316254" style="stroke:rgb(0.000000%,0.000000%,0.000000%); stroke-width: 0.500000;stroke-linecap: round;stroke-linejoin: round;stroke-miterlimit: 10.000000;fill: none;"></path>
  <path d="M329.278046 366.487212L338.533644 366.487212" style="stroke:rgb(0.000000%,0.000000%,0.000000%); stroke-width: 0.500000;stroke-linecap: round;stroke-linejoin: round;stroke-miterlimit: 10.000000;fill: none;"></path>
  <path d="M334.421396 338.658141L344.705686 338.658141" style="stroke:rgb(0.000000%,0.000000%,0.000000%); stroke-width: 0.500000;stroke-linecap: round;stroke-linejoin: round;stroke-miterlimit: 10.000000;fill: none;"></path>
  <path d="M337.588658 310.829071L348.506407 310.829071" style="stroke:rgb(0.000000%,0.000000%,0.000000%); stroke-width: 0.500000;stroke-linecap: round;stroke-linejoin: round;stroke-miterlimit: 10.000000;fill: none;"></path>
  <path d="M338.658113 283.000028L349.789735 283.000028" style="stroke:rgb(0.000000%,0.000000%,0.000000%); stroke-width: 0.500000;stroke-linecap: round;stroke-linejoin: round;stroke-miterlimit: 10.000000;fill: none;"></path>
  <path d="M337.588658 255.170958L348.506407 255.170958" style="stroke:rgb(0.000000%,0.000000%,0.000000%); stroke-width: 0.500000;stroke-linecap: round;stroke-linejoin: round;stroke-miterlimit: 10.000000;fill: none;"></path>
  <path d="M334.421396 227.341887L344.705686 227.341887" style="stroke:rgb(0.000000%,0.000000%,0.000000%); stroke-width: 0.500000;stroke-linecap: round;stroke-linejoin: round;stroke-miterlimit: 10.000000;fill: none;"></path>
  <path d="M329.278046 199.512817L338.533644 199.512817" style="stroke:rgb(0.000000%,0.000000%,0.000000%); stroke-width: 0.500000;stroke-linecap: round;stroke-linejoin: round;stroke-miterlimit: 10.000000;fill: none;"></path>
  <path d="M322.356240 171.683746L330.227482 171.683746" style="stroke:rgb(0.000000%,0.000000%,0.000000%); stroke-width: 0.500000;stroke-linecap: round;stroke-linejoin: round;stroke-miterlimit: 10.000000;fill: none;"></path>
  <path d="M313.922008 143.854704L320.106382 143.854704" style="stroke:rgb(0.000000%,0.000000%,0.000000%); stroke-width: 0.500000;stroke-linecap: round;stroke-linejoin: round;stroke-miterlimit: 10.000000;fill: none;"></path>
  <path d="M327.958122 388.749833l0 0" style="stroke:rgb(0.000000%,0.000000%,0.000000%); stroke-width: 1.992529;stroke-linecap: round;stroke-linejoin: round;stroke-miterlimit: 10.000000;fill: none;"></path>
  <path d="M246.216087 388.749833l0 0" style="stroke:rgb(0.000000%,0.000000%,0.000000%); stroke-width: 1.992529;stroke-linecap: round;stroke-linejoin: round;stroke-miterlimit: 10.000000;fill: none;"></path>
  <path d="M329.555047 383.183979l0 0" style="stroke:rgb(0.000000%,0.000000%,0.000000%); stroke-width: 1.992529;stroke-linecap: round;stroke-linejoin: round;stroke-miterlimit: 10.000000;fill: none;"></path>
  <path d="M244.909515 383.183979l0 0" style="stroke:rgb(0.000000%,0.000000%,0.000000%); stroke-width: 1.992529;stroke-linecap: round;stroke-linejoin: round;stroke-miterlimit: 10.000000;fill: none;"></path>
  <path d="M331.080200 377.618154l0 0" style="stroke:rgb(0.000000%,0.000000%,0.000000%); stroke-width: 1.992529;stroke-linecap: round;stroke-linejoin: round;stroke-miterlimit: 10.000000;fill: none;"></path>
  <path d="M243.661647 377.618154l0 0" style="stroke:rgb(0.000000%,0.000000%,0.000000%); stroke-width: 1.992529;stroke-linecap: round;stroke-linejoin: round;stroke-miterlimit: 10.000000;fill: none;"></path>
  <path d="M332.531198 372.052300l0 0" style="stroke:rgb(0.000000%,0.000000%,0.000000%); stroke-width: 1.992529;stroke-linecap: round;stroke-linejoin: round;stroke-miterlimit: 10.000000;fill: none;"></path>
  <path d="M242.474469 372.052300l0 0" style="stroke:rgb(0.000000%,0.000000%,0.000000%); stroke-width: 1.992529;stroke-linecap: round;stroke-linejoin: round;stroke-miterlimit: 10.000000;fill: none;"></path>
  <path d="M333.905859 366.486475l0 0" style="stroke:rgb(0.000000%,0.000000%,0.000000%); stroke-width: 1.992529;stroke-linecap: round;stroke-linejoin: round;stroke-miterlimit: 10.000000;fill: none;"></path>
  <path d="M241.349767 366.486475l0 0" style="stroke:rgb(0.000000%,0.000000%,0.000000%); stroke-width: 1.992529;stroke-linecap: round;stroke-linejoin: round;stroke-miterlimit: 10.000000;fill: none;"></path>
  <path d="M335.202000 360.920621l0 0" style="stroke:rgb(0.000000%,0.000000%,0.000000%); stroke-width: 1.992529;stroke-linecap: round;stroke-linejoin: round;stroke-miterlimit: 10.000000;fill: none;"></path>
  <path d="M240.289270 360.920621l0 0" style="stroke:rgb(0.000000%,0.000000%,0.000000%); stroke-width: 1.992529;stroke-linecap: round;stroke-linejoin: round;stroke-miterlimit: 10.000000;fill: none;"></path>
  <path d="M336.417638 355.354767l0 0" style="stroke:rgb(0.000000%,0.000000%,0.000000%); stroke-width: 1.992529;stroke-linecap: round;stroke-linejoin: round;stroke-miterlimit: 10.000000;fill: none;"></path>
  <path d="M239.294650 355.354767l0 0" style="stroke:rgb(0.000000%,0.000000%,0.000000%); stroke-width: 1.992529;stroke-linecap: round;stroke-linejoin: round;stroke-miterlimit: 10.000000;fill: none;"></path>
  <path d="M337.550929 349.788942l0 0" style="stroke:rgb(0.000000%,0.000000%,0.000000%); stroke-width: 1.992529;stroke-linecap: round;stroke-linejoin: round;stroke-miterlimit: 10.000000;fill: none;"></path>
  <path d="M238.367409 349.788942l0 0" style="stroke:rgb(0.000000%,0.000000%,0.000000%); stroke-width: 1.992529;stroke-linecap: round;stroke-linejoin: round;stroke-miterlimit: 10.000000;fill: none;"></path>
  <path d="M338.600088 344.223088l0 0" style="stroke:rgb(0.000000%,0.000000%,0.000000%); stroke-width: 1.992529;stroke-linecap: round;stroke-linejoin: round;stroke-miterlimit: 10.000000;fill: none;"></path>
  <path d="M237.509022 344.223088l0 0" style="stroke:rgb(0.000000%,0.000000%,0.000000%); stroke-width: 1.992529;stroke-linecap: round;stroke-linejoin: round;stroke-miterlimit: 10.000000;fill: none;"></path>
  <path d="M339.563555 338.657262l0 0" style="stroke:rgb(0.000000%,0.000000%,0.000000%); stroke-width: 1.992529;stroke-linecap: round;stroke-linejoin: round;stroke-miterlimit: 10.000000;fill: none;"></path>
  <path d="M236.720735 338.657262l0 0" style="stroke:rgb(0.000000%,0.000000%,0.000000%); stroke-width: 1.992529;stroke-linecap: round;stroke-linejoin: round;stroke-miterlimit: 10.000000;fill: none;"></path>
  <path d="M340.439772 333.091437l0 0" style="stroke:rgb(0.000000%,0.000000%,0.000000%); stroke-width: 1.992529;stroke-linecap: round;stroke-linejoin: round;stroke-miterlimit: 10.000000;fill: none;"></path>
  <path d="M236.003825 333.091437l0 0" style="stroke:rgb(0.000000%,0.000000%,0.000000%); stroke-width: 1.992529;stroke-linecap: round;stroke-linejoin: round;stroke-miterlimit: 10.000000;fill: none;"></path>
  <path d="M341.227435 327.525640l0 0" style="stroke:rgb(0.000000%,0.000000%,0.000000%); stroke-width: 1.992529;stroke-linecap: round;stroke-linejoin: round;stroke-miterlimit: 10.000000;fill: none;"></path>
  <path d="M235.359369 327.525640l0 0" style="stroke:rgb(0.000000%,0.000000%,0.000000%); stroke-width: 1.992529;stroke-linecap: round;stroke-linejoin: round;stroke-miterlimit: 10.000000;fill: none;"></path>
  <path d="M341.925296 321.959814l0 0" style="stroke:rgb(0.000000%,0.000000%,0.000000%); stroke-width: 1.992529;stroke-linecap: round;stroke-linejoin: round;stroke-miterlimit: 10.000000;fill: none;"></path>
  <path d="M234.788386 321.959814l0 0" style="stroke:rgb(0.000000%,0.000000%,0.000000%); stroke-width: 1.992529;stroke-linecap: round;stroke-linejoin: round;stroke-miterlimit: 10.000000;fill: none;"></path>
  <path d="M342.532307 316.394017l0 0" style="stroke:rgb(0.000000%,0.000000%,0.000000%); stroke-width: 1.992529;stroke-linecap: round;stroke-linejoin: round;stroke-miterlimit: 10.000000;fill: none;"></path>
  <path d="M234.291728 316.394017l0 0" style="stroke:rgb(0.000000%,0.000000%,0.000000%); stroke-width: 1.992529;stroke-linecap: round;stroke-linejoin: round;stroke-miterlimit: 10.000000;fill: none;"></path>
  <path d="M343.047532 310.828192l0 0" style="stroke:rgb(0.000000%,0.000000%,0.000000%); stroke-width: 1.992529;stroke-linecap: round;stroke-linejoin: round;stroke-miterlimit: 10.000000;fill: none;"></path>
  <path d="M233.870188 310.828192l0 0" style="stroke:rgb(0.000000%,0.000000%,0.000000%); stroke-width: 1.992529;stroke-linecap: round;stroke-linejoin: round;stroke-miterlimit: 10.000000;fill: none;"></path>
  <path d="M343.470178 305.262395l0 0" style="stroke:rgb(0.000000%,0.000000%,0.000000%); stroke-width: 1.992529;stroke-linecap: round;stroke-linejoin: round;stroke-miterlimit: 10.000000;fill: none;"></path>
  <path d="M233.524418 305.262395l0 0" style="stroke:rgb(0.000000%,0.000000%,0.000000%); stroke-width: 1.992529;stroke-linecap: round;stroke-linejoin: round;stroke-miterlimit: 10.000000;fill: none;"></path>
  <path d="M343.799564 299.696569l0 0" style="stroke:rgb(0.000000%,0.000000%,0.000000%); stroke-width: 1.992529;stroke-linecap: round;stroke-linejoin: round;stroke-miterlimit: 10.000000;fill: none;"></path>
  <path d="M233.254900 299.696569l0 0" style="stroke:rgb(0.000000%,0.000000%,0.000000%); stroke-width: 1.992529;stroke-linecap: round;stroke-linejoin: round;stroke-miterlimit: 10.000000;fill: none;"></path>
  <path d="M344.035208 294.130772l0 0" style="stroke:rgb(0.000000%,0.000000%,0.000000%); stroke-width: 1.992529;stroke-linecap: round;stroke-linejoin: round;stroke-miterlimit: 10.000000;fill: none;"></path>
  <path d="M233.062116 294.130772l0 0" style="stroke:rgb(0.000000%,0.000000%,0.000000%); stroke-width: 1.992529;stroke-linecap: round;stroke-linejoin: round;stroke-miterlimit: 10.000000;fill: none;"></path>
  <path d="M344.176741 288.564947l0 0" style="stroke:rgb(0.000000%,0.000000%,0.000000%); stroke-width: 1.992529;stroke-linecap: round;stroke-linejoin: round;stroke-miterlimit: 10.000000;fill: none;"></path>
  <path d="M232.946320 288.564947l0 0" style="stroke:rgb(0.000000%,0.000000%,0.000000%); stroke-width: 1.992529;stroke-linecap: round;stroke-linejoin: round;stroke-miterlimit: 10.000000;fill: none;"></path>
  <path d="M344.223938 283.000000l0 0" style="stroke:rgb(0.000000%,0.000000%,0.000000%); stroke-width: 1.992529;stroke-linecap: round;stroke-linejoin: round;stroke-miterlimit: 10.000000;fill: none;"></path>
  <path d="M232.907684 283.000000l0 0" style="stroke:rgb(0.000000%,0.000000%,0.000000%); stroke-width: 1.992529;stroke-linecap: round;stroke-linejoin: round;stroke-miterlimit: 10.000000;fill: none;"></path>
  <path d="M344.176741 277.433324l0 0" style="stroke:rgb(0.000000%,0.000000%,0.000000%); stroke-width: 1.992529;stroke-linecap: round;stroke-linejoin: round;stroke-miterlimit: 10.000000;fill: none;"></path>
  <path d="M232.946320 277.433324l0 0" style="stroke:rgb(0.000000%,0.000000%,0.000000%); stroke-width: 1.992529;stroke-linecap: round;stroke-linejoin: round;stroke-miterlimit: 10.000000;fill: none;"></path>
  <path d="M344.035208 271.867527l0 0" style="stroke:rgb(0.000000%,0.000000%,0.000000%); stroke-width: 1.992529;stroke-linecap: round;stroke-linejoin: round;stroke-miterlimit: 10.000000;fill: none;"></path>
  <path d="M233.062116 271.867527l0 0" style="stroke:rgb(0.000000%,0.000000%,0.000000%); stroke-width: 1.992529;stroke-linecap: round;stroke-linejoin: round;stroke-miterlimit: 10.000000;fill: none;"></path>
  <path d="M343.799564 266.301702l0 0" style="stroke:rgb(0.000000%,0.000000%,0.000000%); stroke-width: 1.992529;stroke-linecap: round;stroke-linejoin: round;stroke-miterlimit: 10.000000;fill: none;"></path>
  <path d="M233.254900 266.301702l0 0" style="stroke:rgb(0.000000%,0.000000%,0.000000%); stroke-width: 1.992529;stroke-linecap: round;stroke-linejoin: round;stroke-miterlimit: 10.000000;fill: none;"></path>
  <path d="M343.470178 260.735904l0 0" style="stroke:rgb(0.000000%,0.000000%,0.000000%); stroke-width: 1.992529;stroke-linecap: round;stroke-linejoin: round;stroke-miterlimit: 10.000000;fill: none;"></path>
  <path d="M233.524418 260.735904l0 0" style="stroke:rgb(0.000000%,0.000000%,0.000000%); stroke-width: 1.992529;stroke-linecap: round;stroke-linejoin: round;stroke-miterlimit: 10.000000;fill: none;"></path>
  <path d="M343.047532 255.170079l0 0" style="stroke:rgb(0.000000%,0.000000%,0.000000%); stroke-width: 1.992529;stroke-linecap: round;stroke-linejoin: round;stroke-miterlimit: 10.000000;fill: none;"></path>
  <path d="M233.870188 255.170079l0 0" style="stroke:rgb(0.000000%,0.000000%,0.000000%); stroke-width: 1.992529;stroke-linecap: round;stroke-linejoin: round;stroke-miterlimit: 10.000000;fill: none;"></path>
  <path d="M342.532307 249.604282l0 0" style="stroke:rgb(0.000000%,0.000000%,0.000000%); stroke-width: 1.992529;stroke-linecap: round;stroke-linejoin: round;stroke-miterlimit: 10.000000;fill: none;"></path>
  <path d="M234.291728 249.604282l0 0" style="stroke:rgb(0.000000%,0.000000%,0.000000%); stroke-width: 1.992529;stroke-linecap: round;stroke-linejoin: round;stroke-miterlimit: 10.000000;fill: none;"></path>
  <path d="M341.925296 244.038456l0 0" style="stroke:rgb(0.000000%,0.000000%,0.000000%); stroke-width: 1.992529;stroke-linecap: round;stroke-linejoin: round;stroke-miterlimit: 10.000000;fill: none;"></path>
  <path d="M234.788386 244.038456l0 0" style="stroke:rgb(0.000000%,0.000000%,0.000000%); stroke-width: 1.992529;stroke-linecap: round;stroke-linejoin: round;stroke-miterlimit: 10.000000;fill: none;"></path>
  <path d="M341.227435 238.472659l0 0" style="stroke:rgb(0.000000%,0.000000%,0.000000%); stroke-width: 1.992529;stroke-linecap: round;stroke-linejoin: round;stroke-miterlimit: 10.000000;fill: none;"></path>
  <path d="M235.359369 238.472659l0 0" style="stroke:rgb(0.000000%,0.000000%,0.000000%); stroke-width: 1.992529;stroke-linecap: round;stroke-linejoin: round;stroke-miterlimit: 10.000000;fill: none;"></path>
  <path d="M340.439772 232.906834l0 0" style="stroke:rgb(0.000000%,0.000000%,0.000000%); stroke-width: 1.992529;stroke-linecap: round;stroke-linejoin: round;stroke-miterlimit: 10.000000;fill: none;"></path>
  <path d="M236.003825 232.906834l0 0" style="stroke:rgb(0.000000%,0.000000%,0.000000%); stroke-width: 1.992529;stroke-linecap: round;stroke-linejoin: round;stroke-miterlimit: 10.000000;fill: none;"></path>
  <path d="M339.563555 227.341037l0 0" style="stroke:rgb(0.000000%,0.000000%,0.000000%); stroke-width: 1.992529;stroke-linecap: round;stroke-linejoin: round;stroke-miterlimit: 10.000000;fill: none;"></path>
  <path d="M236.720735 227.341037l0 0" style="stroke:rgb(0.000000%,0.000000%,0.000000%); stroke-width: 1.992529;stroke-linecap: round;stroke-linejoin: round;stroke-miterlimit: 10.000000;fill: none;"></path>
  <path d="M338.600088 221.775183l0 0" style="stroke:rgb(0.000000%,0.000000%,0.000000%); stroke-width: 1.992529;stroke-linecap: round;stroke-linejoin: round;stroke-miterlimit: 10.000000;fill: none;"></path>
  <path d="M237.509022 221.775183l0 0" style="stroke:rgb(0.000000%,0.000000%,0.000000%); stroke-width: 1.992529;stroke-linecap: round;stroke-linejoin: round;stroke-miterlimit: 10.000000;fill: none;"></path>
  <path d="M337.550929 216.209358l0 0" style="stroke:rgb(0.000000%,0.000000%,0.000000%); stroke-width: 1.992529;stroke-linecap: round;stroke-linejoin: round;stroke-miterlimit: 10.000000;fill: none;"></path>
  <path d="M238.367409 216.209358l0 0" style="stroke:rgb(0.000000%,0.000000%,0.000000%); stroke-width: 1.992529;stroke-linecap: round;stroke-linejoin: round;stroke-miterlimit: 10.000000;fill: none;"></path>
  <path d="M336.417638 210.643504l0 0" style="stroke:rgb(0.000000%,0.000000%,0.000000%); stroke-width: 1.992529;stroke-linecap: round;stroke-linejoin: round;stroke-miterlimit: 10.000000;fill: none;"></path>
  <path d="M239.294650 210.643504l0 0" style="stroke:rgb(0.000000%,0.000000%,0.000000%); stroke-width: 1.992529;stroke-linecap: round;stroke-linejoin: round;stroke-miterlimit: 10.000000;fill: none;"></path>
  <path d="M335.202000 205.077678l0 0" style="stroke:rgb(0.000000%,0.000000%,0.000000%); stroke-width: 1.992529;stroke-linecap: round;stroke-linejoin: round;stroke-miterlimit: 10.000000;fill: none;"></path>
  <path d="M240.289270 205.077678l0 0" style="stroke:rgb(0.000000%,0.000000%,0.000000%); stroke-width: 1.992529;stroke-linecap: round;stroke-linejoin: round;stroke-miterlimit: 10.000000;fill: none;"></path>
  <path d="M333.905859 199.511824l0 0" style="stroke:rgb(0.000000%,0.000000%,0.000000%); stroke-width: 1.992529;stroke-linecap: round;stroke-linejoin: round;stroke-miterlimit: 10.000000;fill: none;"></path>
  <path d="M241.349767 199.511824l0 0" style="stroke:rgb(0.000000%,0.000000%,0.000000%); stroke-width: 1.992529;stroke-linecap: round;stroke-linejoin: round;stroke-miterlimit: 10.000000;fill: none;"></path>
  <path d="M332.531198 193.945971l0 0" style="stroke:rgb(0.000000%,0.000000%,0.000000%); stroke-width: 1.992529;stroke-linecap: round;stroke-linejoin: round;stroke-miterlimit: 10.000000;fill: none;"></path>
  <path d="M242.474469 193.945971l0 0" style="stroke:rgb(0.000000%,0.000000%,0.000000%); stroke-width: 1.992529;stroke-linecap: round;stroke-linejoin: round;stroke-miterlimit: 10.000000;fill: none;"></path>
  <path d="M331.080200 188.380145l0 0" style="stroke:rgb(0.000000%,0.000000%,0.000000%); stroke-width: 1.992529;stroke-linecap: round;stroke-linejoin: round;stroke-miterlimit: 10.000000;fill: none;"></path>
  <path d="M243.661647 188.380145l0 0" style="stroke:rgb(0.000000%,0.000000%,0.000000%); stroke-width: 1.992529;stroke-linecap: round;stroke-linejoin: round;stroke-miterlimit: 10.000000;fill: none;"></path>
  <path d="M329.555047 182.814291l0 0" style="stroke:rgb(0.000000%,0.000000%,0.000000%); stroke-width: 1.992529;stroke-linecap: round;stroke-linejoin: round;stroke-miterlimit: 10.000000;fill: none;"></path>
  <path d="M244.909515 182.814291l0 0" style="stroke:rgb(0.000000%,0.000000%,0.000000%); stroke-width: 1.992529;stroke-linecap: round;stroke-linejoin: round;stroke-miterlimit: 10.000000;fill: none;"></path>
  <path d="M327.958122 177.248466l0 0" style="stroke:rgb(0.000000%,0.000000%,0.000000%); stroke-width: 1.992529;stroke-linecap: round;stroke-linejoin: round;stroke-miterlimit: 10.000000;fill: none;"></path>
  <path d="M246.216087 177.248466l0 0" style="stroke:rgb(0.000000%,0.000000%,0.000000%); stroke-width: 1.992529;stroke-linecap: round;stroke-linejoin: round;stroke-miterlimit: 10.000000;fill: none;"></path>
  <path d="M326.291861 171.682612l0 0" style="stroke:rgb(0.000000%,0.000000%,0.000000%); stroke-width: 1.992529;stroke-linecap: round;stroke-linejoin: round;stroke-miterlimit: 10.000000;fill: none;"></path>
  <path d="M247.579382 171.682612l0 0" style="stroke:rgb(0.000000%,0.000000%,0.000000%); stroke-width: 1.992529;stroke-linecap: round;stroke-linejoin: round;stroke-miterlimit: 10.000000;fill: none;"></path>
  <path d="M324.558844 166.116787l0 0" style="stroke:rgb(0.000000%,0.000000%,0.000000%); stroke-width: 1.992529;stroke-linecap: round;stroke-linejoin: round;stroke-miterlimit: 10.000000;fill: none;"></path>
  <path d="M248.997299 166.116787l0 0" style="stroke:rgb(0.000000%,0.000000%,0.000000%); stroke-width: 1.992529;stroke-linecap: round;stroke-linejoin: round;stroke-miterlimit: 10.000000;fill: none;"></path>
  <path d="M322.761764 160.550933l0 0" style="stroke:rgb(0.000000%,0.000000%,0.000000%); stroke-width: 1.992529;stroke-linecap: round;stroke-linejoin: round;stroke-miterlimit: 10.000000;fill: none;"></path>
  <path d="M250.467658 160.550933l0 0" style="stroke:rgb(0.000000%,0.000000%,0.000000%); stroke-width: 1.992529;stroke-linecap: round;stroke-linejoin: round;stroke-miterlimit: 10.000000;fill: none;"></path>
  <path d="M320.903371 154.985107l0 0" style="stroke:rgb(0.000000%,0.000000%,0.000000%); stroke-width: 1.992529;stroke-linecap: round;stroke-linejoin: round;stroke-miterlimit: 10.000000;fill: none;"></path>
  <path d="M251.988162 154.985107l0 0" style="stroke:rgb(0.000000%,0.000000%,0.000000%); stroke-width: 1.992529;stroke-linecap: round;stroke-linejoin: round;stroke-miterlimit: 10.000000;fill: none;"></path>
  <path d="M318.986527 149.419254l0 0" style="stroke:rgb(0.000000%,0.000000%,0.000000%); stroke-width: 1.992529;stroke-linecap: round;stroke-linejoin: round;stroke-miterlimit: 10.000000;fill: none;"></path>
  <path d="M253.556486 149.419254l0 0" style="stroke:rgb(0.000000%,0.000000%,0.000000%); stroke-width: 1.992529;stroke-linecap: round;stroke-linejoin: round;stroke-miterlimit: 10.000000;fill: none;"></path>
  <path d="M317.014181 143.853428l0 0" style="stroke:rgb(0.000000%,0.000000%,0.000000%); stroke-width: 1.992529;stroke-linecap: round;stroke-linejoin: round;stroke-miterlimit: 10.000000;fill: none;"></path>
  <path d="M255.170192 143.853428l0 0" style="stroke:rgb(0.000000%,0.000000%,0.000000%); stroke-width: 1.992529;stroke-linecap: round;stroke-linejoin: round;stroke-miterlimit: 10.000000;fill: none;"></path>
  <path d="M314.989422 138.287574l0 0" style="stroke:rgb(0.000000%,0.000000%,0.000000%); stroke-width: 1.992529;stroke-linecap: round;stroke-linejoin: round;stroke-miterlimit: 10.000000;fill: none;"></path>
  <path d="M256.826844 138.287574l0 0" style="stroke:rgb(0.000000%,0.000000%,0.000000%); stroke-width: 1.992529;stroke-linecap: round;stroke-linejoin: round;stroke-miterlimit: 10.000000;fill: none;"></path>
  <path d="M312.915313 132.721721l0 0" style="stroke:rgb(0.000000%,0.000000%,0.000000%); stroke-width: 1.992529;stroke-linecap: round;stroke-linejoin: round;stroke-miterlimit: 10.000000;fill: none;"></path>
  <path d="M258.523833 132.721721l0 0" style="stroke:rgb(0.000000%,0.000000%,0.000000%); stroke-width: 1.992529;stroke-linecap: round;stroke-linejoin: round;stroke-miterlimit: 10.000000;fill: none;"></path>
  <path d="M310.795083 127.155895l0 0" style="stroke:rgb(0.000000%,0.000000%,0.000000%); stroke-width: 1.992529;stroke-linecap: round;stroke-linejoin: round;stroke-miterlimit: 10.000000;fill: none;"></path>
  <path d="M260.258579 127.155895l0 0" style="stroke:rgb(0.000000%,0.000000%,0.000000%); stroke-width: 1.992529;stroke-linecap: round;stroke-linejoin: round;stroke-miterlimit: 10.000000;fill: none;"></path>
  <path d="M308.631994 121.590041l0 0" style="stroke:rgb(0.000000%,0.000000%,0.000000%); stroke-width: 1.992529;stroke-linecap: round;stroke-linejoin: round;stroke-miterlimit: 10.000000;fill: none;"></path>
  <path d="M262.028361 121.590041l0 0" style="stroke:rgb(0.000000%,0.000000%,0.000000%); stroke-width: 1.992529;stroke-linecap: round;stroke-linejoin: round;stroke-miterlimit: 10.000000;fill: none;"></path>
  <path d="M306.429390 116.024216l0 0" style="stroke:rgb(0.000000%,0.000000%,0.000000%); stroke-width: 1.992529;stroke-linecap: round;stroke-linejoin: round;stroke-miterlimit: 10.000000;fill: none;"></path>
  <path d="M263.830515 116.024216l0 0" style="stroke:rgb(0.000000%,0.000000%,0.000000%); stroke-width: 1.992529;stroke-linecap: round;stroke-linejoin: round;stroke-miterlimit: 10.000000;fill: none;"></path>
  <path d="M306.390272 111.076796l0 0" style="stroke:rgb(0.000000%,0.000000%,0.000000%); stroke-width: 1.992529;stroke-linecap: round;stroke-linejoin: round;stroke-miterlimit: 10.000000;fill: none;"></path>
  <path d="M267.406504 111.076796l0 0" style="stroke:rgb(0.000000%,0.000000%,0.000000%); stroke-width: 1.992529;stroke-linecap: round;stroke-linejoin: round;stroke-miterlimit: 10.000000;fill: none;"></path>
  <path d="M304.192685 106.129377l0 0" style="stroke:rgb(0.000000%,0.000000%,0.000000%); stroke-width: 1.992529;stroke-linecap: round;stroke-linejoin: round;stroke-miterlimit: 10.000000;fill: none;"></path>
  <path d="M268.871534 106.129377l0 0" style="stroke:rgb(0.000000%,0.000000%,0.000000%); stroke-width: 1.992529;stroke-linecap: round;stroke-linejoin: round;stroke-miterlimit: 10.000000;fill: none;"></path>
  <path d="M301.969303 101.181958l0 0" style="stroke:rgb(0.000000%,0.000000%,0.000000%); stroke-width: 1.992529;stroke-linecap: round;stroke-linejoin: round;stroke-miterlimit: 10.000000;fill: none;"></path>
  <path d="M270.353798 101.181958l0 0" style="stroke:rgb(0.000000%,0.000000%,0.000000%); stroke-width: 1.992529;stroke-linecap: round;stroke-linejoin: round;stroke-miterlimit: 10.000000;fill: none;"></path>
  <path d="M299.722818 96.234539l0 0" style="stroke:rgb(0.000000%,0.000000%,0.000000%); stroke-width: 1.992529;stroke-linecap: round;stroke-linejoin: round;stroke-miterlimit: 10.000000;fill: none;"></path>
  <path d="M271.851455 96.234539l0 0" style="stroke:rgb(0.000000%,0.000000%,0.000000%); stroke-width: 1.992529;stroke-linecap: round;stroke-linejoin: round;stroke-miterlimit: 10.000000;fill: none;"></path>
  <path d="M297.455952 91.287119l0 0" style="stroke:rgb(0.000000%,0.000000%,0.000000%); stroke-width: 1.992529;stroke-linecap: round;stroke-linejoin: round;stroke-miterlimit: 10.000000;fill: none;"></path>
  <path d="M273.362717 91.287119l0 0" style="stroke:rgb(0.000000%,0.000000%,0.000000%); stroke-width: 1.992529;stroke-linecap: round;stroke-linejoin: round;stroke-miterlimit: 10.000000;fill: none;"></path>
  <path d="M285.578308 85.102859l0 0" style="stroke:rgb(0.000000%,0.000000%,0.000000%); stroke-width: 1.992529;stroke-linecap: round;stroke-linejoin: round;stroke-miterlimit: 10.000000;fill: none;"></path>
  <path d="M282.696410 77.681730l0 0" style="stroke:rgb(0.000000%,0.000000%,0.000000%); stroke-width: 1.992529;stroke-linecap: round;stroke-linejoin: round;stroke-miterlimit: 10.000000;fill: none;"></path>
  <path d="M280.421692 85.102859l0 0" style="stroke:rgb(0.000000%,0.000000%,0.000000%); stroke-width: 1.992529;stroke-linecap: round;stroke-linejoin: round;stroke-miterlimit: 10.000000;fill: none;"></path>
  <path d="M283.303590 77.681730l0 0" style="stroke:rgb(0.000000%,0.000000%,0.000000%); stroke-width: 1.992529;stroke-linecap: round;stroke-linejoin: round;stroke-miterlimit: 10.000000;fill: none;"></path>
  <path d="M283.000000 70.260630l0 0" style="stroke:rgb(0.000000%,0.000000%,0.000000%); stroke-width: 1.992529;stroke-linecap: round;stroke-linejoin: round;stroke-miterlimit: 10.000000;fill: none;"></path>
</svg>
